<svg xmlns="http://www.w3.org/2000/svg" xmlns:xlink="http://www.w3.org/1999/xlink" viewBox="0 0 171.41 171.42"><defs><style>.cls-1{fill:none;}.cls-2{isolation:isolate;}.cls-3{clip-path:url(#clip-path);}.cls-4{fill:#af9100;}.cls-5{fill:#ab8d00;}.cls-6{fill:#a68900;}.cls-7{fill:#a18500;}.cls-8{fill:#9c8100;}.cls-9{fill:#987e00;}.cls-10{fill:#937a00;}.cls-11{fill:#8e7600;}.cls-12{fill:#b49500;}.cls-13{fill:#b99900;}.cls-14{fill:#bd9d00;}.cls-15{fill:#c2a100;}.cls-16{fill:#c7a400;}.cls-17{fill:#cba800;}.cls-18{fill:#d0ac00;}.cls-19{fill:#d5b000;}.cls-20{fill:#d9b400;}.cls-21{fill:#deb800;}.cls-22{fill:#e3bc00;}.cls-23{fill:#e8c000;}.cls-24{fill:#ecc300;}.cls-25{fill:#f1c700;}.cls-26{fill:#f6cb00;}.cls-27{fill:#facf00;}.cls-28{fill:#ffd300;}.cls-29{fill:#ffd81f;}.cls-30{fill:#ffda2b;}.cls-31{fill:#ffdc35;}.cls-32{fill:#ffde3d;}.cls-33{fill:#ffdf44;}.cls-34{fill:#ffe04b;}.cls-35{fill:#ffe151;}.cls-36{fill:#ffe257;}.cls-37{fill:#ffe35c;}.cls-38{fill:#ffe461;}.cls-39{fill:#ffe565;}.cls-40{fill:#ffe56a;}.cls-41{fill:#ffe66e;}.cls-42{fill:#ffe772;}.cls-43{clip-path:url(#clip-path-2);}.cls-44{fill:#fff;}.cls-45{clip-path:url(#clip-path-3);}</style><clipPath id="clip-path"><path class="cls-1" d="M85.71,171.42A86.18,86.18,0,0,1,71.8,170.3a85.55,85.55,0,0,1-25.48-8.44A85.89,85.89,0,0,1,9.57,125.1,85.13,85.13,0,0,1,1.12,99.61a86.81,86.81,0,0,1,0-27.8A85.13,85.13,0,0,1,9.57,46.32a86.18,86.18,0,0,1,7-11.23,87.69,87.69,0,0,1,8.57-10,85.91,85.91,0,0,1,10-8.56A85.3,85.3,0,0,1,71.8,1.12,86.18,86.18,0,0,1,85.71,0a131.73,131.73,0,0,1,13.9,1.12A96.55,96.55,0,0,1,112.8,4.37a91.57,91.57,0,0,1,12.3,5.2,100,100,0,0,1,11.23,7,91.4,91.4,0,0,1,10,8.56,95.87,95.87,0,0,1,8.57,10,95.49,95.49,0,0,1,7,11.23,129.08,129.08,0,0,1,5.2,12.3,86.5,86.5,0,0,1,3.24,41,126.86,126.86,0,0,1-3.24,13.19c-.64,1.91-1.59,4.42-2.37,6.27s-2.83,4-2.83,6a86.24,86.24,0,0,1-7,11.23c-1.23,1.55-2.75,3.71-4.09,5.16-2.69,2.89-6.31,6.73-9.3,9.3a85.37,85.37,0,0,1-55.78,20.63Z"/></clipPath><clipPath id="clip-path-2"><path class="cls-1" d="M85.71,171.42A86.18,86.18,0,0,1,71.8,170.3a85.55,85.55,0,0,1-25.48-8.44A85.89,85.89,0,0,1,9.57,125.1,85.13,85.13,0,0,1,1.12,99.61a86.81,86.81,0,0,1,0-27.8A85.13,85.13,0,0,1,9.57,46.32a86.18,86.18,0,0,1,7-11.23,87.69,87.69,0,0,1,8.57-10,85.91,85.91,0,0,1,10-8.56A85.3,85.3,0,0,1,71.8,1.12a85.72,85.72,0,1,1,13.91,170.3Z"/></clipPath><clipPath id="clip-path-3"><path class="cls-1" d="M171.41,85.71a85.86,85.86,0,0,0-4.36-27.09,129.08,129.08,0,0,0-5.2-12.3,95.49,95.49,0,0,0-7-11.23,95.87,95.87,0,0,0-8.57-10,91.4,91.4,0,0,0-10-8.56,100,100,0,0,0-11.23-7,91.57,91.57,0,0,0-12.3-5.2A96.55,96.55,0,0,0,99.61,1.12,131.73,131.73,0,0,0,85.71,0a85.71,85.71,0,0,1,0,171.42c2.11-.08,4.93,0,7-.28a129.58,129.58,0,0,0,13.57-2.21,85.3,85.3,0,0,0,35.18-18.14c3-2.57,6.61-6.41,9.3-9.3,1.34-1.45,2.86-3.61,4.09-5.16a86.24,86.24,0,0,0,7-11.23,126.17,126.17,0,0,0,5.2-12.3,126.86,126.86,0,0,0,3.24-13.19A86.05,86.05,0,0,0,171.41,85.71Z"/></clipPath></defs><title>Recurso 21</title><g id="Capa_2" data-name="Capa 2"><g id="Capa_1-2" data-name="Capa 1"><g class="cls-2"><g class="cls-2"><g class="cls-3"><g class="cls-2"><path class="cls-4" d="M85.71,171.42c9.94-.4,22.31-.9,39.39-9.56a85.38,85.38,0,0,0,16.39-11.07c6-5.14,8.62-8.45,13.39-14.46a86.24,86.24,0,0,0,7-11.23c5.08-10.82,6-13.68,8.44-25.49a86.18,86.18,0,0,0-3.24-41c-2.88-7.62-5.36-14.2-12.17-23.53A85.91,85.91,0,0,0,112.8,4.37C101.36.63,94.45.35,85.71,0A86.18,86.18,0,0,0,71.8,1.12,85.41,85.41,0,0,0,35.09,16.54a85.91,85.91,0,0,0-10,8.56,87.69,87.69,0,0,0-8.57,10,86.18,86.18,0,0,0-7,11.23A85.13,85.13,0,0,0,1.12,71.81a86.81,86.81,0,0,0,0,27.8A85.13,85.13,0,0,0,9.57,125.1a86,86,0,0,0,36.75,36.76A85.55,85.55,0,0,0,71.8,170.3a86.18,86.18,0,0,0,13.91,1.12"/><path class="cls-4" d="M71.8,1.12A85.41,85.41,0,0,0,35.09,16.54a85.91,85.91,0,0,0-10,8.56,87.69,87.69,0,0,0-8.57,10,86.18,86.18,0,0,0-7,11.23A85.13,85.13,0,0,0,1.12,71.81a86.81,86.81,0,0,0,0,27.8A85.13,85.13,0,0,0,9.57,125.1a86,86,0,0,0,36.75,36.76A85.55,85.55,0,0,0,71.8,170.3a86.18,86.18,0,0,0,13.91,1.12l7-.28,6.87-.84,6.7-1.37,6.49-1.88,6.27-2.36a97.21,97.21,0,0,0,17.26-9.8l5.16-4.1,2.1-1.87-.07.07c-47.66,40.34-96.93,10.62-93.12-39.22,4.47-58.28,74.28-95,108.27-57,6.14,6.87,19.17,26.68,7.64,62.1.26-.7.5-1.4.74-2.11h0c1.13-3.91,2.43-9.2,3.24-13.19a86.18,86.18,0,0,0-3.24-41h0c-1.42-3.75-3.5-8.67-5.2-12.3l-3.28-5.76-3.69-5.47-4.09-5.16-4.48-4.83-4.82-4.47-5.16-4.09-5.47-3.7L125.1,9.57l-6-2.83L112.8,4.37l-6.49-1.88-6.7-1.37L92.74.28l-7-.28A86.18,86.18,0,0,0,71.8,1.12"/><path class="cls-5" d="M71.8,1.12A85.41,85.41,0,0,0,35.09,16.54a85.91,85.91,0,0,0-10,8.56,87.69,87.69,0,0,0-8.57,10,86.18,86.18,0,0,0-7,11.23A85.13,85.13,0,0,0,1.12,71.81a86.81,86.81,0,0,0,0,27.8A85.13,85.13,0,0,0,9.57,125.1a86,86,0,0,0,36.75,36.76A85.55,85.55,0,0,0,71.8,170.3a86.18,86.18,0,0,0,13.91,1.12l7-.28,6.87-.84,6.7-1.37,6.49-1.88,6.27-2.36c3.56-1.67,8.21-4.07,11.63-6L126,161.34C79,185.34,30.91,149.9,51.71,87.47c17.45-52.41,91-77.22,114.22-25.82,7.12,15.74,5.3,30.46,4.43,37.53a86.19,86.19,0,0,0-3.31-40.56h0c-1.42-3.75-3.5-8.67-5.2-12.3l-3.28-5.76-3.69-5.47-4.09-5.16-4.48-4.83-4.82-4.47-5.16-4.09-5.47-3.7L125.1,9.57l-6-2.83L112.8,4.37l-6.49-1.88-6.7-1.37L92.74.28l-7-.28A86.18,86.18,0,0,0,71.8,1.12"/><path class="cls-6" d="M71.8,1.12A85.41,85.41,0,0,0,35.09,16.54a85.91,85.91,0,0,0-10,8.56,87.69,87.69,0,0,0-8.57,10,86.18,86.18,0,0,0-7,11.23A85.13,85.13,0,0,0,1.12,71.81a86.81,86.81,0,0,0,0,27.8A85.13,85.13,0,0,0,9.57,125.1a86,86,0,0,0,36.75,36.76A85.55,85.55,0,0,0,71.8,170.3a86.18,86.18,0,0,0,13.91,1.12l7-.28,6.87-.84,6.7-1.37,6.49-1.88,6.27-2.36,1.1-.48-3,1.22c-58.66,20.94-91-36.52-65.38-88C80,21.05,152,14.17,168.57,66.31A67,67,0,0,1,171.4,87c0-.44,0-.87,0-1.3a85.86,85.86,0,0,0-4.36-27.09h0c-1.42-3.75-3.5-8.67-5.2-12.3l-3.28-5.76-3.69-5.47-4.09-5.16-4.48-4.83-4.82-4.47-5.16-4.09-5.47-3.7L125.1,9.57l-6-2.83L112.8,4.37l-6.49-1.88-6.7-1.37L92.74.28l-7-.28A86.18,86.18,0,0,0,71.8,1.12"/><path class="cls-7" d="M71.8,1.12A85.41,85.41,0,0,0,35.09,16.54a85.91,85.91,0,0,0-10,8.56,87.69,87.69,0,0,0-8.57,10,86.18,86.18,0,0,0-7,11.23A85.13,85.13,0,0,0,1.12,71.81a86.81,86.81,0,0,0,0,27.8A85.13,85.13,0,0,0,9.57,125.1a86,86,0,0,0,36.75,36.76A85.55,85.55,0,0,0,71.8,170.3a86.18,86.18,0,0,0,13.91,1.12l7-.28,6.87-.84,6.7-1.37,3.75-1-.29.09c-59.92,16-88-48.23-58-98.58,30.22-50.78,102-60.3,117.58-2.14.81,3,1.6,9,1.6,9-.16-1.51-.37-3-.61-4.48a86.13,86.13,0,0,0-3.24-13.19h0c-1.42-3.75-3.5-8.67-5.2-12.3l-3.28-5.76-3.69-5.47-4.09-5.16-4.48-4.83-4.82-4.47-5.16-4.09-5.47-3.7L125.1,9.57l-6-2.83L112.8,4.37l-6.49-1.88-6.7-1.37L92.74.28l-7-.28A86.18,86.18,0,0,0,71.8,1.12"/><path class="cls-8" d="M71.8,1.12A85.41,85.41,0,0,0,35.09,16.54a85.91,85.91,0,0,0-10,8.56,87.69,87.69,0,0,0-8.57,10,86.18,86.18,0,0,0-7,11.23A85.13,85.13,0,0,0,1.12,71.81a86.81,86.81,0,0,0,0,27.8A85.13,85.13,0,0,0,9.57,125.1a86,86,0,0,0,36.75,36.76A85.55,85.55,0,0,0,71.8,170.3a86.18,86.18,0,0,0,13.91,1.12l7-.28,6.87-.84.67-.11C44,179,15.28,115.4,51.46,62.13c33-48.53,101.88-54.71,117.77,4.25q-.91-4-2.18-7.76h0c-1.42-3.75-3.5-8.67-5.2-12.3l-3.28-5.76-3.69-5.47-4.09-5.16-4.48-4.83-4.82-4.47-5.16-4.09-5.47-3.7L125.1,9.57l-6-2.83L112.8,4.37l-6.49-1.88-6.7-1.37L92.74.28l-7-.28A86.18,86.18,0,0,0,71.8,1.12"/><path class="cls-9" d="M71.8,1.12A85.41,85.41,0,0,0,35.09,16.54a85.91,85.91,0,0,0-10,8.56,87.69,87.69,0,0,0-8.57,10,86.18,86.18,0,0,0-7,11.23A85.13,85.13,0,0,0,1.12,71.81a86.81,86.81,0,0,0,0,27.8A85.13,85.13,0,0,0,9.57,125.1a86,86,0,0,0,36.75,36.76A85.55,85.55,0,0,0,71.8,170.3a86.18,86.18,0,0,0,13.91,1.12q1.7,0,3.39-.06h0C29.74,173.29,10.53,96.6,58,47c33.83-35.37,89.7-39,108.35,9.45l-2.53-6.19-1.92-4-3.28-5.76-3.69-5.47-4.09-5.16-4.48-4.83-4.82-4.47-5.16-4.09-5.47-3.7L125.1,9.57l-6-2.83L112.8,4.37l-6.49-1.88-6.7-1.37L92.74.28l-7-.28A86.18,86.18,0,0,0,71.8,1.12"/><path class="cls-10" d="M71.8,1.12A85.41,85.41,0,0,0,35.09,16.54a85.91,85.91,0,0,0-10,8.56,87.69,87.69,0,0,0-8.57,10,86.18,86.18,0,0,0-7,11.23A85.13,85.13,0,0,0,1.12,71.81a86.81,86.81,0,0,0,0,27.8A85.13,85.13,0,0,0,9.57,125.1a86,86,0,0,0,36.75,36.76A85.55,85.55,0,0,0,71.8,170.3c2.33.38,4.68.67,7.06.85h0c-61-5.47-70.92-90.3-15.8-135.48C94.17,10.17,140.79,7,161.86,46.35v0c-2-3.45-4.75-7.94-7-11.23l-4.09-5.16-4.48-4.83-4.82-4.47-5.16-4.09-5.47-3.7L125.1,9.57l-6-2.83L112.8,4.37l-6.49-1.88-6.7-1.37L92.74.28l-7-.28A86.18,86.18,0,0,0,71.8,1.12"/><path class="cls-11" d="M71.8,1.12A85.41,85.41,0,0,0,35.09,16.54a85.91,85.91,0,0,0-10,8.56,87.69,87.69,0,0,0-8.57,10,86.18,86.18,0,0,0-7,11.23A85.13,85.13,0,0,0,1.12,71.81a86.81,86.81,0,0,0,0,27.8A85.13,85.13,0,0,0,9.57,125.1a86,86,0,0,0,36.75,36.76,85.06,85.06,0,0,0,12.3,5.19q3,1,6,1.77h0C3.51,151.62,8.18,60,72.13,22.43,96.57,8.09,132.82,5.85,154.67,34.8l-4.12-5.14-4.24-4.56-4.82-4.47-5.16-4.09-5.47-3.7L125.1,9.57l-6-2.83L112.8,4.37l-6.49-1.88-6.7-1.37L92.74.28l-7-.28A86.18,86.18,0,0,0,71.8,1.12"/><path class="cls-12" d="M57.68,137.57c19,46.64,84.13,35,107.22-19.18,20.65-48.45-15.94-92-62.14-74-41,16-57.64,62.39-45.08,93.22"/><path class="cls-13" d="M61.12,137.57c18.68,44.71,81.57,33,103.54-19.19,18.42-43.81-12.95-90.29-61.49-70.53-40.05,16.31-54.3,60.37-42.05,89.72"/><path class="cls-14" d="M62.41,131.19c13.2,46.54,72.18,43.11,98.62-5.74,21.15-39.1-1.17-88.28-47.74-77.41-33,7.7-62,43.75-50.88,83.15"/><path class="cls-15" d="M65.63,131.19c14.21,44.89,69.15,41.56,94.82-5.74,20.65-38-1.16-85.34-46.64-74.29-28.61,7-61.27,38.63-48.18,80"/><path class="cls-16" d="M67,124.4c10.93,49,64.84,46.38,89.4,6.79,24-38.76,5.65-86.75-42.12-76.87C81.68,61.06,60,93.15,67,124.4"/><path class="cls-17" d="M70.09,124.4c12.33,49.36,64.37,39.93,85.34,6.79C180.8,91.1,157.16,48.11,114.64,57,82.47,63.71,62.48,94,70.09,124.4"/><path class="cls-18" d="M71.26,117.25c5.69,41.12,51.52,56.67,82.11,15.16,26.71-36.25,3-81.1-38.4-72.71-20.2,4.1-48.51,22.8-43.71,57.55"/><path class="cls-19" d="M73.3,117.25c7.78,42.36,55.35,50.69,79.54,13.94,23.81-36.17,2.72-74.84-37.6-68.95-24,3.5-47.09,26.95-41.94,55"/><path class="cls-20" d="M75.36,117.25c8.16,35.55,50.93,49.45,75.7,13.94,25-35.81-.66-71.54-35.62-66.93-26.06,3.44-45.54,29.19-40.08,53"/><path class="cls-21" d="M77.44,117.25c9.86,35.77,56.09,45.94,75.83,7.15C174,83.79,135.13,56.8,104.8,69.15c-20.48,8.33-32.5,29.46-27.36,48.1"/><path class="cls-22" d="M79.53,117.25c9.83,32.1,52.8,41.54,71.51,7.15,18.61-34.19-15.16-65.35-46.17-53.64-14.87,5.61-32,24.89-25.34,46.49"/><path class="cls-23" d="M81.38,116.29c5,23.1,47.41,42.07,66.81,8.11C166.8,91.82,134.62,61,104.93,72.29c-1.25.48-30.42,12-23.55,44"/><path class="cls-24" d="M83.19,117.25c8.81,24.48,48.9,34.45,64.58,1.67,12.44-26-15.55-55.49-42.79-45.08-18.13,6.93-27.91,26.41-21.79,43.41"/><path class="cls-25" d="M84.81,117.25c10.76,25.88,49.69,25.88,60.37,0C155.71,91.75,130.57,65.54,105,75.4c-17.57,6.78-26.83,25.95-20.22,41.85"/><path class="cls-26" d="M86.44,117.25c10.68,22.72,44.7,22.72,55.16,0C153.05,92.4,130.17,67.17,105.07,77c-.13.05-13,5.49-18.3,17a29.14,29.14,0,0,0-.33,23.29"/><path class="cls-27" d="M88.07,117.25c11.49,22.7,48,17.6,53.48-7.48C145,94,136.06,86,135.68,85.71c-7.92-6.83-7.92-6.83-13.82-8.26-1.68-.4-3.91-1.34-5.64-1.25a37.79,37.79,0,0,0-11.12,2.13C105,78.38,92.19,84.8,88.18,94c-3.66,8.37-3.69,16.2-.11,23.29"/><path class="cls-28" d="M87,109.77c4.15,22.87,35.74,27.7,49,7.48,3.13-4.77,9.15-17.4-2.44-31.54-5.89-7.19-18.89-10-28.39-6.1C96.25,83.24,84.35,95.33,87,109.77"/><path class="cls-29" d="M88.31,109.77c1.5,7.42,3.44,9,10.64,14.63,3.3,2.6,3.3,2.6,13.33,4.28,3,.5,7.09-.83,9.71-2.28a38.63,38.63,0,0,0,11-9.15c5.39-7.1,6.56-15.59,3.2-23.29-3-6.9-4-7.63-9.34-11.67-2.66-2-7.26-3.13-10.58-3.34s-8.14.4-11.17,1.94c-5.4,2.76-8.51,6.19-11.81,9.82-3,3.32-6.57,11.43-5,19.06"/><path class="cls-30" d="M89.65,109.77s3.07,7.21,3.3,7.48c.6.7,9.67,8.08,10,8.14,9.44,1.71,9.44,1.71,15.2,0a26.47,26.47,0,0,0,12.78-8.18c5.67-7,5.82-18,3.75-23.29,0-.06-3-6.34-7.77-9.89a23,23,0,0,0-10.58-3.84c-3.39-.28-8.19.33-11.19,2-4.62,2.5-7.81,6-11.86,10.5-.06.07-5.68,7.89-3.64,17.09"/><path class="cls-31" d="M91,109.77a19.41,19.41,0,0,0,3.91,7.48c2.07,2.4,5.14,6,8.25,6.6,6.83,1.35,17.15,3.4,25.67-6.6A23.6,23.6,0,0,0,133.12,94a19.48,19.48,0,0,0-6.2-8.07c-.54-.41-10.5-4.37-10.55-4.37a21.54,21.54,0,0,0-11.21,2c-2.54,1.4-6.36,4.93-11.35,10.48,0,.06-4.72,7.39-2.83,15.81"/><path class="cls-32" d="M92.3,109.77c.65,2.87,3.08,7.4,11,12.71,2.49,1.67,6.92,1.33,9.92,1.33,3.33,0,7.68-2,10.33-4a25.19,25.19,0,0,0,8.1-10c.85-2.09,4.61-13-4.73-21.81-3-2.88-10.46-5.15-10.52-5.15-3.38-.5-8.07.66-11.22,2-1.41.58-9.81,9.12-9.84,9.18-2.86,5.56-4.59,8.91-3,15.81"/><path class="cls-33" d="M93.73,109.77A25.74,25.74,0,0,0,103.32,121c2.59,1.66,7.07,1.42,10.14,1.42,3.47,0,7.76-2.71,10.52-4.81,1-.78,6.07-7.78,6.09-7.83,3.06-6.77,1.72-15.07-3.2-19.74-.05,0-6.79-5.27-10.47-5.93-.1,0-11.12,2-11.23,2-3,1.57-6.83,4.75-8.33,7.84-3.92,8.12-5,10.3-3.11,15.81"/><path class="cls-34" d="M95.27,109.77c0,.06,3.87,7.21,8.31,9.92,2.61,1.59,7,1.31,10.11,1.32.1,0,11-3.31,14.76-11.21,5-10.45-1.57-17.65-1.64-17.72s-9.39-6.47-10.4-6.68c0,0-11.19,2.12-11.25,2.15-4.4,2.25-13.32,12.83-9.89,22.22"/><path class="cls-35" d="M96.8,109.77c0,.06,5.19,7.51,6.91,8.5,2.68,1.54,7.12,1.31,10.21,1.31.36,0,10.48-4.77,12.92-9.81,1.92-4,3.58-7.37-.26-15.81-1.54-3.39-6.53-6.37-10.18-7.13-3.36-.7-8.09.78-11.25,2.14-2,.87-3.88,3.33-5.3,5-.07.08-6.2,7.78-3,15.81"/><path class="cls-36" d="M98.32,109.77c1,2.48,3.16,5.75,5.53,7,.12.07,9.92,1.38,10.28,1.38,1.79,0,11-8.3,11.05-8.38a12.25,12.25,0,0,0,1.28-11.18c-.57-1.39-.86-3.55-1.91-4.63-2.09-2.13-5.24-5.06-8.16-5.67-3.36-.7-8,.89-11.25,2.1-1.47.55-2.8,2.37-3.81,3.57-.26.31-6.35,7.69-3,15.81"/><path class="cls-37" d="M99.83,109.77c.78,1.87,2.34,4.44,4.17,5.3,2.84,1.34,7.31,2.32,10.35,1.55,3.26-.83,6.82-4.2,8.9-6.85,1.52-1.93,2.4-5.32,2.59-7.77.19-2.61-1.76-6-3.36-8a12.26,12.26,0,0,0-6.11-4.22c-3.36-.7-8,1-11.25,2.06-.91.28-1.7,1.43-2.31,2.16a20.31,20.31,0,0,0-4,8,15.44,15.44,0,0,0,1,7.77"/><path class="cls-38" d="M101.33,109.77c.53,1.26,1.53,3.09,2.8,3.58,3,1.15,7.38,2.37,10.45,1.58,2.46-.62,5.2-3.11,6.7-5.16a16.82,16.82,0,0,0,2.8-7.77c.2-2.65-2.15-5.88-3.7-8a7.75,7.75,0,0,0-4-2.77c-3.35-.71-7.9,1.25-11.25,2-.32.08-.6.5-.81.76a20.84,20.84,0,0,0-4.07,8,15.51,15.51,0,0,0,1.12,7.77"/><path class="cls-39" d="M102.83,109.77c.27.64.76,1.65,1.43,1.85,3.07.89,7.43,2.41,10.53,1.62,5.63-1.45,7.51-11.15,7.51-11.24-.15-2.7-2.59-5.77-4-8a4.27,4.27,0,0,0-1.94-1.32c-.9-.35-10.37,1.87-11.26,2.64a12.35,12.35,0,0,0-3.46,6.72,16.13,16.13,0,0,0,1.24,7.77"/><path class="cls-40" d="M104.31,109.77c.16.36,10.59,1.78,10.68,1.75a4.2,4.2,0,0,0,2.27-1.75c1.26-2.19,3.37-5.25,3.23-7.77s-1.74-6.85-4.23-7.79c-3.36-1.26-9.11,1.08-11.3,3.92-.79,1-1.93,2.56-2,3.87a19.28,19.28,0,0,0,1.35,7.77"/><path class="cls-41" d="M104.71,104.2c.06.08,10.28,5.7,10.47,5.59,2.25-1.21,3.6-5.24,3.48-7.79-.08-1.59-1.06-4.07-2.53-4.66-3.3-1.31-8.23,1.79-11.27,3.62-.83.5-.72,2.45-.15,3.24"/><path class="cls-42" d="M115.65,104.67c.83-.27,1.2-1.8,1.16-2.67a2,2,0,0,0-.85-1.57c-1.45-.58-3.47,1.1-4.95,1.57,1.39.8,3.12,3.18,4.64,2.67"/></g></g></g><g class="cls-2"><g class="cls-43"><g class="cls-2"><path class="cls-10" d="M85.71,171.42A86.18,86.18,0,0,1,71.8,170.3a85.55,85.55,0,0,1-25.48-8.44A85.89,85.89,0,0,1,9.57,125.1,85.13,85.13,0,0,1,1.12,99.61a86.81,86.81,0,0,1,0-27.8A85.13,85.13,0,0,1,9.57,46.32a86.18,86.18,0,0,1,7-11.23,87.69,87.69,0,0,1,8.57-10,85.91,85.91,0,0,1,10-8.56A85.3,85.3,0,0,1,71.8,1.12a85.72,85.72,0,1,1,13.91,170.3"/><path class="cls-10" d="M171.4,85.71A85.71,85.71,0,0,1,46.32,161.86a86.17,86.17,0,0,1-29.79-25.53,85,85,0,0,1-6.61-10.56h0c36.16,61.43,117.8,17,131.66-40.06C155.7,27.57,119.13,2.46,92.77.29A85.7,85.7,0,0,1,171.4,85.71"/><path class="cls-11" d="M171.4,85.71A85.71,85.71,0,0,1,46.32,161.86,86,86,0,0,1,17.41,137.5h0c45.47,54.57,126-2.37,132.16-60S118.29,5.58,106.66,2.58A85.74,85.74,0,0,1,171.4,85.71"/><path class="cls-9" d="M115.38,9.21c51.91,36.36,18.88,130.1-49.78,141.26-21.87,3.56-49-5.82-60.21-34.78-.36-1-.7-1.92-1-2.89A85,85,0,0,1,1.12,99.61a86.81,86.81,0,0,1,0-27.8A85.13,85.13,0,0,1,9.57,46.32a86.18,86.18,0,0,1,7-11.23,87.69,87.69,0,0,1,8.57-10,85.91,85.91,0,0,1,10-8.56A85.3,85.3,0,0,1,71.8,1.12,86.54,86.54,0,0,1,82.44.06h0c17.16-.55,28.75,6.22,32.94,9.15"/><path class="cls-8" d="M125.16,22.43c38.29,56.72-24.74,135-81.36,124.26-11.92-2.25-33.15-10.58-41.45-40.95q-.72-3-1.23-6.13a86.81,86.81,0,0,1,0-27.8A85.13,85.13,0,0,1,9.57,46.32a86.18,86.18,0,0,1,7-11.23,87.69,87.69,0,0,1,8.57-10,85.91,85.91,0,0,1,10-8.56A85.53,85.53,0,0,1,58.62,4.37,85.55,85.55,0,0,1,71.14,1.23h0c33.32-5.23,49.77,14.9,54,21.2"/><path class="cls-7" d="M125,27.9c28.84,55.4-33.81,133.75-90.58,113.3C15.79,134.49,3.14,117.48.58,95.72a87.21,87.21,0,0,1-.58-10,86,86,0,0,1,1.12-13.9A85.13,85.13,0,0,1,9.57,46.32a86.18,86.18,0,0,1,7-11.23,87.69,87.69,0,0,1,8.57-10,85.91,85.91,0,0,1,10-8.56A85.53,85.53,0,0,1,58.62,4.37c.87-.29,1.76-.57,2.65-.84h0C103.85-8,121.82,21.81,125,27.9"/><path class="cls-6" d="M124.07,33.85c20.8,54.91-40,123.74-91.66,103.72C12,129.67-.08,110,0,85.05A87.37,87.37,0,0,1,1.12,71.81,85.13,85.13,0,0,1,9.57,46.32a86.18,86.18,0,0,1,7-11.23,87.69,87.69,0,0,1,8.57-10,85.91,85.91,0,0,1,10-8.56,84.53,84.53,0,0,1,11.23-7C47.9,8.75,49.5,8,51.14,7.26h0c37.33-15.49,64,2.93,72.93,26.59"/><path class="cls-5" d="M122.75,40.23C137.49,98.78,68.09,160.71,22.4,129.77,12.63,123.16-3.15,107,1,72.77l.15-1A85.13,85.13,0,0,1,9.57,46.32a86.18,86.18,0,0,1,7-11.23,87.69,87.69,0,0,1,8.57-10,85.91,85.91,0,0,1,10-8.56q2.69-2,5.54-3.75h0C85.49-12.84,116.16,14,122.75,40.23"/><path class="cls-4" d="M120.53,47c7.46,58-57.08,108.8-100.09,78.71C15.31,122.14-9.55,102,4.91,57A83.84,83.84,0,0,1,9.57,46.32a86.18,86.18,0,0,1,7-11.23,87.69,87.69,0,0,1,8.57-10c.87-.86,1.75-1.71,2.66-2.54h0C73.87-16.56,115.82,10.43,120.53,47"/><path class="cls-12" d="M117.2,47c7.65,56-58.56,106.28-98.39,74.7C-21.32,89.91,10.87,10.13,66,4.79,95.44,1.94,114.05,23.87,117.2,47"/><path class="cls-13" d="M113.85,47c8.23,59.07-62.41,100.61-96.7,70.47C-20.75,84.16,13.36,8,67.15,5.88,95.29,4.76,110.88,25.73,113.85,47"/><path class="cls-14" d="M111.15,54.17c2.41,56.16-64.83,88.78-95.35,59C-18.37,79.93,14.35,9.65,65.11,7.31c25.88-1.2,44.81,18.07,46,46.86"/><path class="cls-15" d="M108.36,54.17c3,46.45-55.74,89.74-92.77,55.6C-13.78,82.68,12,11.52,63.13,8.88c29-1.5,43.78,22.42,45.23,45.29"/><path class="cls-16" d="M105.7,61.65c-3,51.71-66.09,73.6-92.07,42.52C-13.85,71.29,21.3,8.31,65.86,10.57c29.1,1.48,41,31.35,39.84,51.08"/><path class="cls-17" d="M102.92,61.65C100.06,114.35,38.41,128.74,15,102-12,71.13,21.63,10,64.3,12.45c29.1,1.64,39.51,32.85,38.62,49.2"/><path class="cls-18" d="M100.12,69.42c-6.41,41.92-68,59.15-87.86,24.58-19.69-34.26,18-87.23,56-78.72C89.27,20,103.88,44.79,100.12,69.42"/><path class="cls-19" d="M98.34,69.42C91.94,108.53,36.1,125,15.35,94-8.34,58.48,33.24,8.78,67,17.66,87,22.91,101.91,47.58,98.34,69.42"/><path class="cls-20" d="M96.54,69.42c-5.75,33-53.19,53.25-77.74,24.55C-3.91,67.44,24,16.48,59.66,19.29,81.1,21,100.41,47.21,96.54,69.42"/><path class="cls-21" d="M94.74,69.42C88,106,38.79,118.18,18.44,88.36-1.28,59.47,31.58,13.19,64.7,23.2c16.89,5.11,33.69,26.41,30,46.22"/><path class="cls-22" d="M92.92,69.42c-6.9,35.52-53.78,46-72.7,16.29C2.53,57.89,32.53,16.77,63.6,26.25c18.63,5.68,32.61,26.26,29.32,43.17"/><path class="cls-23" d="M91.09,69.42c-7,35.91-50,41.43-67.2,16.29C5.73,59.14,31.79,21.14,62.61,29.24c18.71,4.91,31.75,23.31,28.48,40.18"/><path class="cls-24" d="M89.57,69.42c-4.35,30.11-45.1,40.77-62.29,16.29-19.4-27.64,6.9-60.17,34.47-53.59,15.46,3.69,30.77,16.94,27.82,37.3"/><path class="cls-25" d="M88.31,69.42c-4.18,28.2-42.24,38.85-58.18,16.29C13.4,62,32.46,30.6,61,34.75c12.8,1.86,30.33,14.16,27.29,34.67"/><path class="cls-26" d="M87.05,69.42c-3.31,21.81-35.9,39.35-54,16.29C17,65.15,34.38,34.17,60.46,37c13,1.39,29.48,13.45,26.59,32.47"/><path class="cls-27" d="M85.78,69.42c-3.14,20.25-32.33,36.77-50.05,16.29-11.29-13.06-5.22-27.45-3.09-31.54,4.53-8.7,17.27-15.7,27.28-15a29.4,29.4,0,0,1,9.1,2c.07,0,9.22,6,9.85,6.77,2.38,2.77,8.68,10.13,6.91,21.48"/><path class="cls-28" d="M81.83,77.45C81,79.12,73,93.74,55.14,93.74c-3.28,0-7.93-.9-10.58-2.84-7.06-5.18-8.74-6.41-11.65-13.45C31,72.84,27.83,60.89,39.53,49.59c13-12.56,26.72-7.88,29.33-6.82.1,0,10.9,6.17,12.86,11.4,3,8.17,5.07,13.56.11,23.28"/><path class="cls-29" d="M80.43,77.45c-2.34,4.52-9.49,15-25.33,15a19.77,19.77,0,0,1-10.58-3.34c-3.92-3-7-5.29-9.34-11.67-5.3-14.61,3.08-23.12,3.17-23.21,8.48-8.38,8.48-8.38,11.07-9.22,4.87-1.58,11.55-3.75,19.23-.63S89.59,59.81,80.43,77.45"/><path class="cls-30" d="M79,77.45A44,44,0,0,1,66.26,89.23c-3,1.69-7.78,2-11.19,2S47.2,89.36,44.5,87.34c-4.6-3.44-7.75-9.83-7.78-9.89C33.41,69,37.8,56.81,40.47,54.17c6.38-6.32,6.86-6.46,14.82-8.77A22.28,22.28,0,0,1,68.45,46c.53.21,9.42,7.44,10,8.14.24.28,3.29,7.42,3.31,7.48,2,6-1.57,13.62-2.73,15.8"/><path class="cls-31" d="M78.14,76.25c-1.15,2.83-8.7,9.8-11.89,11.68-2.94,1.74-7.79,1.87-11.21,2,0,0-9.91-3.9-10.55-4.37a22.28,22.28,0,0,1-6.2-8.08c-2.85-6.56-.67-18.31,4.32-23.28,4.07-4.07,5.45-5.43,15.87-8.12,2.88-.74,7.07.34,9.8,1.52,2.91,1.26,6.18,4.2,8.25,6.6a25.08,25.08,0,0,1,3.91,7.48c1.67,4.86.43,7.91-2.3,14.6"/><path class="cls-32" d="M78.18,72.77c-.59,1.42-1.09,3.52-2.09,4.68-.06.06-7.12,7.32-9.84,9.18s-7.83,1.56-11.22,2c-.1,0-11.24-2.47-15.15-11.16a21.76,21.76,0,0,1,4.91-23.28c4.47-4.52,13.32-6.54,13.41-6.56,2.93-.66,7.17.14,9.92,1.33,2.38,1,7.74,5,11,12.71.56,1.32,1.58,5-.93,11.12"/><path class="cls-33" d="M74.57,77.45c-2,2.8-5.26,6.3-8.32,7.84-.12.06-11.14,2-11.24,2s-15.38-3.94-15.34-17.9a19.55,19.55,0,0,1,1.68-7.77c0-.07,5.47-7.54,6.09-7.83C50.58,52.35,54.49,49,58,49a35.19,35.19,0,0,1,10,1.32c1.68.58,3.4,2.42,4.6,3.74,2.59,2.84,10.48,11.48,2,23.38"/><path class="cls-34" d="M73.07,77.45c-1.64,2.28-4.28,5.21-6.82,6.42C66.19,83.9,55.05,86,55,86c-1.32-.33-10.36-6.63-10.41-6.68-3.07-3.67-3.49-9.86-3.49-9.92,0-10.22,8.49-15.21,8.57-15.25,2.37-1.22,5.38-3.76,8-3.76a41.08,41.08,0,0,1,10.12,1.32c1.11.32,2.19,1.59,3,2.44C74,57.61,81.53,65.68,73.07,77.45"/><path class="cls-35" d="M71.57,77.45c-1.28,1.77-3.3,4.13-5.31,5C63.11,83.8,58.37,85.29,55,84.59c-3.65-.76-7.81-4.25-10.18-7.14-.21-.26-2.26-8-2.27-8-.21-2.59.32-9.28,9.93-15.25,1.41-.88,3.35-2.22,5-2.33,3.08-.21,7.63-.41,10.2,1.3s6.89,8.45,6.92,8.51a14.65,14.65,0,0,1,.75,7.77,22.07,22.07,0,0,1-3.8,8"/><path class="cls-36" d="M70.08,77.45c-.92,1.27-2.34,3-3.8,3.58-3.22,1.21-7.9,2.8-11.26,2.1-2.91-.62-6.29-3.35-8.15-5.68a14.32,14.32,0,0,1-2.83-8c0-.23,2.09-7.64,2.19-7.77,2.11-2.84,6.12-5.62,9.12-7.48a4.17,4.17,0,0,1,1.93-.9c.59,0,10.2,1.31,10.29,1.38a21.26,21.26,0,0,1,5.53,7A15.58,15.58,0,0,1,74,69.42c-.45,2.64-2.32,5.87-3.9,8"/><path class="cls-37" d="M68.6,77.45a5.76,5.76,0,0,1-2.3,2.17c-3.28,1-7.9,2.76-11.26,2-7.36-1.56-9.47-12.15-9.46-12.25.18-2.45,1.07-5.84,2.59-7.77,2.08-2.65,5.63-6,8.89-6.85,3-.77,7.52.21,10.36,1.55,1.83.86,3.25,3.5,4.16,5.3a13.69,13.69,0,0,1,1,7.77c-.49,2.64-2.38,5.87-4,8"/><path class="cls-38" d="M67.13,77.45c-.2.27-.48.69-.81.76-3.34.77-8.07,3.3-11.25,2a9.92,9.92,0,0,1-4-2.77c-1.54-2.15-3.6-5.38-3.7-8-.08-2.48,1.34-5.77,2.8-7.77s4.25-4.54,6.71-5.17c3.07-.77,7.49.44,10.44,1.59,1.27.49,2.2,2.35,2.8,3.58a14.13,14.13,0,0,1,1.12,7.77c-.49,2.66-2.46,5.86-4.07,8"/><path class="cls-39" d="M66.37,76.14c-.89.77-10.36,3-11.26,2.64a4.32,4.32,0,0,1-2-1.33c-1.45-2.27-3.93-5.33-4-8,0-1.23,2.6-10,7.51-11.24,3.09-.79,7.45.73,10.52,1.62.68.2,1.1,1.23,1.44,1.85a14,14,0,0,1,1.23,7.77,12.54,12.54,0,0,1-3.45,6.72"/><path class="cls-40" d="M66.45,73.28c-2.72,2.34-7.94,5.2-11.29,3.93-2.49-.95-4.11-5.13-4.23-7.79s2-5.59,3.22-7.77a4.2,4.2,0,0,1,2.27-1.75c.08,0,10.48,1.47,10.68,1.75,1.42,1.89,1.49,5.41,1.36,7.77a6.41,6.41,0,0,1-2,3.86"/><path class="cls-41" d="M66.55,70.46c-2.72,2.28-8,4.93-11.26,3.62-1.48-.59-2.47-3.07-2.53-4.66-.11-2.55,1.3-6.4,3.45-7.77.18-.12,10.43,5.48,10.49,5.57a2.88,2.88,0,0,1-.15,3.24"/><path class="cls-42" d="M55.46,71a1.92,1.92,0,0,1-.85-1.56c0-.87.32-2.4,1.15-2.68,1.53-.5,3.26,1.88,4.65,2.68-1.49.47-3.51,2.15-4.95,1.56"/></g><path class="cls-44" d="M79.18,49.16H37.34c-3.29,8.34-4.68,3.94-4.69,3.89a3.32,3.32,0,0,1,.18-1.82l.85-2.07H31c-3,.21-5.74,3.06-7.06,7.27A108.94,108.94,0,0,0,20,85.71c0,18.76,4.62,36.11,12.46,50.22,2.08,3.52,5.09,5.9,7.65,6.08h4.63a12.11,12.11,0,0,1-2.42-3.21L41.9,138H37.78c-.47-.09-1.45-.28-2.48-2-7.42-14.11-11.79-31.46-11.79-50.22a114.88,114.88,0,0,1,3.72-29.28c.69-2.06,1.83-2.35,2.29-2.39H79a2.41,2.41,0,0,1,2.43,2.39c-.18,9.13-.27,19-.27,29.28,0,4.78,0,9.47.06,14h5.56c0-4.56,0-9.25,0-14,0-10.29,0-20.15-.07-29.28a7.44,7.44,0,0,0-7.55-7.27"/><path class="cls-44" d="M44.33,36.28c-2.77.15-5.5,2.25-7.3,5.63-1,2.17-2.4,5.05-3.35,7.25-1.59,3.86-1.36,5.47.68,4.79a3.28,3.28,0,0,0,1.89-2l1.09-2.77c3.73-8.58,3.73-8.58,5.44-8.48,15.43,1.83,31,2.39,46.37,4.61a2.41,2.41,0,0,1,2.21,2.41c-.51,8.49-1.2,20.13-4.11,52h3.29a8.6,8.6,0,0,1,2.2.3c5.68-58.07,4.83-58.19-3.27-59.3-11.79-1.05-29.61-2.63-42.36-4.16a24.32,24.32,0,0,0-2.78-.3"/><path class="cls-44" d="M55.24,115.42h.08a6,6,0,0,0,4.29-1.76c8.9-8.54,8.9-8.54,10.08-8.57H90.48A2.5,2.5,0,0,1,93,107.61c-.27,11.53-.74,22.1-1.38,31.19a2.18,2.18,0,0,1-2.17,1.95H48.07a3.32,3.32,0,0,1-2.51-1.95,109.88,109.88,0,0,1-7.33-21.21c-.3-1.68.51-2.33,1.37-2.38h0c5.2.07,10.4.18,15.61.21m35.3-15.68H69.48a7.34,7.34,0,0,0-4.92,1.88c-9.3,8.74-9.3,8.74-9.91,8.72-16.81-.23-16.81-.23-17.44,0-1.93.69-3.82,3-2.8,7.25A104.91,104.91,0,0,0,41.9,138l.43.85c1.37,2.54,4.22,5.6,7.74,5.87H89.26a6.82,6.82,0,0,0,6.67-5.87c1.09-9.09,1.9-19.66,2.37-31.19a7.63,7.63,0,0,0-7.76-7.87"/><path class="cls-44" d="M87.48,132.92h-9.6a2,2,0,0,0-1.28,3.68,2.44,2.44,0,0,0,1.61.61H87.4a2.17,2.17,0,0,0,1.71-3.65,2.31,2.31,0,0,0-1.63-.64"/><path class="cls-44" d="M68.55,74.39h-35c-2.22.15-2.9,3.66-1.46,5a1.6,1.6,0,0,0,1.13.48H68.44A2.8,2.8,0,0,0,70.23,75a2.6,2.6,0,0,0-1.68-.63"/><path class="cls-44" d="M68.41,86.32H33.09c-2.25.15-2.62,3.73-1,5.13a1.71,1.71,0,0,0,1.17.47H68.45a2.81,2.81,0,0,0,1.67-5,2.7,2.7,0,0,0-1.71-.64"/><path class="cls-44" d="M57.71,61.37H45.21c-2.41.14-3.34,3.47-1.86,4.78a1.76,1.76,0,0,0,1.19.45H57.25a2.78,2.78,0,0,0,2-4.64,2.15,2.15,0,0,0-1.49-.59"/></g></g><g class="cls-2"><g class="cls-45"><g class="cls-2"><path class="cls-10" d="M171.41,85.71a86.05,86.05,0,0,1-1.12,13.9c-2.41,11.81-3.36,14.67-8.44,25.49a86.24,86.24,0,0,1-7,11.23c-4.77,6-7.39,9.32-13.39,14.46a85.38,85.38,0,0,1-16.39,11.07C108,170.52,95.65,171,85.71,171.42A85.71,85.71,0,0,0,85.71,0c8.74.35,15.65.63,27.09,4.37a85.91,85.91,0,0,1,42.08,30.72c6.81,9.33,9.29,15.91,12.17,23.53a85.86,85.86,0,0,1,4.36,27.09"/><path class="cls-10" d="M99.61,1.12c4,.82,9.28,2.12,13.19,3.25l6.27,2.37,6,2.83,5.76,3.27,5.47,3.7,5.16,4.09,4.82,4.47,4.48,4.83,4.09,5.16,3.69,5.47,3.28,5.76,2.83,6,2.37,6.27a86.5,86.5,0,0,1,3.24,41h0c-.81,4-2.11,9.28-3.24,13.19l-2.37,6.27-2.83,6a86.24,86.24,0,0,1-7,11.23h0c-2.45,3.09-5.88,7.09-8.57,10l-4.82,4.47-5.16,4.1-5.47,3.69-5.76,3.28-6,2.83a96.21,96.21,0,0,1-19.46,5.61l-6.87.84-7,.28A85.71,85.71,0,0,0,92.77.29l6.7.81.14,0"/><path class="cls-11" d="M112.8,4.37a123.76,123.76,0,0,1,12.3,5.2l5.76,3.27,5.47,3.7,5.16,4.09,4.82,4.47,4.48,4.83,4.09,5.16,3.69,5.47,3.28,5.76,2.83,6,2.37,6.27a86.5,86.5,0,0,1,3.24,41h0c-.81,4-2.11,9.28-3.24,13.19l-2.37,6.27-2.83,6a86.24,86.24,0,0,1-7,11.23h0c-2.45,3.09-5.88,7.09-8.57,10l-4.82,4.47-5.16,4.1-5.47,3.69-5.76,3.28-6,2.83a96.21,96.21,0,0,1-19.46,5.61l-6.87.84-7,.28a85.72,85.72,0,0,0,21-168.84c1.84.54,4.32,1.18,6.14,1.79"/></g></g></g></g></g></g></svg>