<svg xmlns="http://www.w3.org/2000/svg" xmlns:xlink="http://www.w3.org/1999/xlink" viewBox="0 0 129.87 129.87"><defs><style>.cls-1{fill:none;}.cls-2{isolation:isolate;}.cls-3{clip-path:url(#clip-path);}.cls-4{fill:#51869d;}.cls-5{fill:#4f8298;}.cls-6{fill:#4d7f94;}.cls-7{fill:#4b7b90;}.cls-8{fill:#48788c;}.cls-9{fill:#467488;}.cls-10{fill:#447084;}.cls-11{fill:#426d7f;}.cls-12{fill:#538aa1;}.cls-13{fill:#558da5;}.cls-14{fill:#5891a9;}.cls-15{fill:#5a94ad;}.cls-16{fill:#5c98b2;}.cls-17{fill:#5e9cb6;}.cls-18{fill:#609fba;}.cls-19{fill:#62a3be;}.cls-20{fill:#65a6c2;}.cls-21{fill:#67aac7;}.cls-22{fill:#69adcb;}.cls-23{fill:#6bb1cf;}.cls-24{fill:#6db5d3;}.cls-25{fill:#6fb8d7;}.cls-26{fill:#72bcdc;}.cls-27{fill:#74bfe0;}.cls-28{fill:#76c3e4;}.cls-29{fill:#86cae7;}.cls-30{fill:#8dcde9;}.cls-31{fill:#92cfea;}.cls-32{fill:#97d1ea;}.cls-33{fill:#9bd3eb;}.cls-34{fill:#9ed5ec;}.cls-35{fill:#a1d6ed;}.cls-36{fill:#a4d7ed;}.cls-37{fill:#a7d9ee;}.cls-38{fill:#aadaee;}.cls-39{fill:#addbef;}.cls-40{fill:#afdcef;}.cls-41{fill:#b1ddf0;}.cls-42{fill:#b4def0;}.cls-43{clip-path:url(#clip-path-2);}.cls-44{clip-path:url(#clip-path-3);}.cls-45{clip-path:url(#clip-path-4);}.cls-46{clip-path:url(#clip-path-6);}.cls-47{clip-path:url(#clip-path-9);}.cls-48{fill:#fff;}.cls-49{clip-path:url(#clip-path-10);}</style><clipPath id="clip-path"><path class="cls-1" d="M64.94,129.87h0c-1.6-.07-3.74-.09-5.33-.22S56,129,54.4,129a64.72,64.72,0,0,1-27.82-11.68,65.6,65.6,0,0,1-14-14c-.84-1.25-2-2.87-2.8-4.15s-2.25-2.87-2.48-4.36a63.36,63.36,0,0,1-3.94-9.32,65.13,65.13,0,0,1,0-41,63.25,63.25,0,0,1,3.94-9.31A65.2,65.2,0,0,1,19,19a65.85,65.85,0,0,1,7.56-6.49,66.79,66.79,0,0,1,8.51-5.28A64.79,64.79,0,0,1,54.4.87C57.55.48,61.77.15,64.94,0h0A97.67,97.67,0,0,1,75.47.87a72.83,72.83,0,0,1,10,2.46,69.91,69.91,0,0,1,9.32,3.93,76.82,76.82,0,0,1,8.51,5.28A69.74,69.74,0,0,1,110.85,19a70.82,70.82,0,0,1,6.49,7.57,73.09,73.09,0,0,1,5.28,8.51,89.54,89.54,0,0,1,3.94,9.31,59,59,0,0,1,2.46,10c.25,1.56.51,3.64.64,5.21s.15,3.73.21,5.32A66.22,66.22,0,0,1,128,80.54a85.57,85.57,0,0,1-3.21,9.67,71.22,71.22,0,0,1-4.63,8.93,65.31,65.31,0,0,1-12.94,15.1,96.72,96.72,0,0,1-8.06,5.9c-1.25.84-3,1.74-4.36,2.48a68.87,68.87,0,0,1-9.32,3.94,58.78,58.78,0,0,1-10,2.46A100.28,100.28,0,0,1,64.94,129.87Z"/></clipPath><clipPath id="clip-path-2"><polygon class="cls-1" points="64.94 0.02 64.94 129.87 64.94 129.87 64.94 0.02"/></clipPath><clipPath id="clip-path-3"><polygon class="cls-1" points="64.94 129.87 64.94 0.02 64.94 129.87 64.94 129.87"/></clipPath><clipPath id="clip-path-4"><path class="cls-1" d="M64.94,129.87h0v0Z"/></clipPath><clipPath id="clip-path-6"><path class="cls-1" d="M64.94,0V129.87h0Z"/></clipPath><clipPath id="clip-path-9"><path class="cls-1" d="M64.94,129.87c-3.17-.13-7.39-.47-10.54-.85a64.72,64.72,0,0,1-27.82-11.68,65.6,65.6,0,0,1-14-14h0c-1.68-2.49-3.8-5.9-5.28-8.51a63.36,63.36,0,0,1-3.94-9.32,65.13,65.13,0,0,1,0-41,63.25,63.25,0,0,1,3.94-9.31A65.2,65.2,0,0,1,19,19a65.85,65.85,0,0,1,7.56-6.49,66.79,66.79,0,0,1,8.51-5.28A64.79,64.79,0,0,1,54.4.87h0C57.55.48,61.77.15,64.94,0a64.93,64.93,0,0,1,0,129.85Z"/></clipPath><clipPath id="clip-path-10"><path class="cls-1" d="M129.87,64.94A65,65,0,0,0,90.21,5.12,101.45,101.45,0,0,0,80.54,1.9c-1.49-.43-3.55-.73-5.07-1A74.14,74.14,0,0,0,64.94,0h0a64.93,64.93,0,0,1,0,129.85A74.14,74.14,0,0,0,75.47,129c1.52-.31,3.58-.61,5.07-1a101.39,101.39,0,0,0,9.67-3.21,64.87,64.87,0,0,0,39.66-59.83Z"/></clipPath></defs><title>Recurso 22</title><g id="Capa_2" data-name="Capa 2"><g id="Capa_1-2" data-name="Capa 1"><g class="cls-2"><g class="cls-2"><g class="cls-3"><g class="cls-2"><path class="cls-4" d="M64.94,129.87c7.76-.31,22.21-.9,38.35-12.53,15.65-11.28,21.19-26.24,23.27-31.88C130.35,75.22,131,60,128,49.34A65,65,0,0,0,80.54,1.9C75.26.43,70,.22,64.94,0A71.78,71.78,0,0,0,54.4.87,64.79,64.79,0,0,0,35.09,7.26a66.79,66.79,0,0,0-8.51,5.28A65.85,65.85,0,0,0,19,19,65.2,65.2,0,0,0,7.25,35.11a63.25,63.25,0,0,0-3.94,9.31,65.13,65.13,0,0,0,0,41,63.36,63.36,0,0,0,3.94,9.32c1.48,2.61,3.6,6,5.28,8.51a65.6,65.6,0,0,0,14.05,14A64.58,64.58,0,0,0,54.4,129c3.15.38,7.37.72,10.54.85h0"/><path class="cls-4" d="M54.4.87A64.79,64.79,0,0,0,35.09,7.26a66.79,66.79,0,0,0-8.51,5.28A65.85,65.85,0,0,0,19,19,65.2,65.2,0,0,0,7.25,35.11a63.25,63.25,0,0,0-3.94,9.31,65.13,65.13,0,0,0,0,41,63.36,63.36,0,0,0,3.94,9.32h0c1.48,2.61,3.6,6,5.28,8.51a65.6,65.6,0,0,0,14.05,14A64.58,64.58,0,0,0,54.4,129h0c3.15.38,7.37.72,10.54.85h0c3.16-.13,7.38-.47,10.53-.85l5.07-1,4.92-1.42,4.75-1.79a73,73,0,0,0,13.08-7.43l3.91-3.1,1.6-1.42-.07.06c-36.1,30.55-73.43,8-70.54-29.71,3.38-44.15,56.27-72,82-43.15,4.65,5.21,14.53,20.21,5.8,47,.67-1.93,1.41-4.55,2-6.52l1-5.07.64-5.2c.06-1.6.1-3.73.21-5.33l-.21-5.32L129,54.41l-1-5.07-1.42-4.92-1.79-4.75-2.15-4.56-2.48-4.37-2.8-4.14-3.1-3.91L110.85,19l-3.65-3.38-3.91-3.11-4.15-2.8L94.78,7.26,90.21,5.12,85.46,3.33,80.54,1.9l-5.07-1L70.26.23,64.94,0h0c-3.17.13-7.4.4-10.54.85"/><path class="cls-5" d="M54.4.87A64.79,64.79,0,0,0,35.09,7.26a66.79,66.79,0,0,0-8.51,5.28A65.85,65.85,0,0,0,19,19,65.2,65.2,0,0,0,7.25,35.11a63.25,63.25,0,0,0-3.94,9.31,65.13,65.13,0,0,0,0,41,63.36,63.36,0,0,0,3.94,9.32h0c1.48,2.61,3.6,6,5.28,8.51a65.6,65.6,0,0,0,14.05,14A64.58,64.58,0,0,0,54.4,129h0c3.15.38,7.37.72,10.54.85h0c3.16-.13,7.38-.47,10.53-.85l5.07-1,4.92-1.42,4.75-1.79c2.7-1.27,6.23-3.09,8.82-4.56l-3.54,2c-35.66,18.18-72.08-8.66-56.31-55.95C52.4,26.59,108.1,7.79,125.71,46.72c5.4,11.92,4,23.07,3.36,28.42l.61-5.21.19-5-.21-5.32L129,54.41l-1-5.07-1.42-4.92-1.79-4.75-2.15-4.56-2.48-4.37-2.8-4.14-3.1-3.91L110.85,19l-3.65-3.38-3.91-3.11-4.15-2.8L94.78,7.26,90.21,5.12,85.46,3.33,80.54,1.9l-5.07-1L70.26.23,64.94,0h0c-3.17.13-7.4.4-10.54.85"/><path class="cls-6" d="M54.4.87A64.79,64.79,0,0,0,35.09,7.26a66.79,66.79,0,0,0-8.51,5.28A65.85,65.85,0,0,0,19,19,65.2,65.2,0,0,0,7.25,35.11a63.25,63.25,0,0,0-3.94,9.31,65.13,65.13,0,0,0,0,41,63.36,63.36,0,0,0,3.94,9.32h0c1.48,2.61,3.6,6,5.28,8.51a65.6,65.6,0,0,0,14.05,14A64.58,64.58,0,0,0,54.4,129h0c3.15.38,7.37.72,10.54.85h0c3.16-.13,7.38-.47,10.53-.85l5.07-1,4.92-1.42,4.75-1.79.84-.37-2.24.93c-44.44,15.86-69-27.66-49.53-66.64C60.59,16,115.15,10.76,127.72,50.25a50.71,50.71,0,0,1,2.14,15.68c0-1.9-.13-4.42-.2-6.31L129,54.41l-1-5.07-1.42-4.92-1.79-4.75-2.15-4.56-2.48-4.37-2.8-4.14-3.1-3.91L110.85,19l-3.65-3.38-3.91-3.11-4.15-2.8L94.78,7.26,90.21,5.12,85.46,3.33,80.54,1.9l-5.07-1L70.26.23,64.94,0h0c-3.17.13-7.4.4-10.54.85"/><path class="cls-7" d="M54.4.87A64.79,64.79,0,0,0,35.09,7.26a66.79,66.79,0,0,0-8.51,5.28A65.85,65.85,0,0,0,19,19,65.2,65.2,0,0,0,7.25,35.11a63.25,63.25,0,0,0-3.94,9.31,65.13,65.13,0,0,0,0,41,63.36,63.36,0,0,0,3.94,9.32h0c1.48,2.61,3.6,6,5.28,8.51a65.6,65.6,0,0,0,14.05,14A64.58,64.58,0,0,0,54.4,129h0c3.15.38,7.37.72,10.54.85h0c3.16-.13,7.38-.47,10.53-.85l5.07-1,2.85-.77-.22.07c-45.4,12.14-66.69-36.53-44-74.67C62.08,14.14,116.45,6.93,128.27,51c.61,2.3,1.21,6.79,1.21,6.83-.34-2.56-1-5.94-1.5-8.47l-1.42-4.92-1.79-4.75-2.15-4.56-2.48-4.37-2.8-4.14-3.1-3.91L110.85,19l-3.65-3.38-3.91-3.11-4.15-2.8L94.78,7.26,90.21,5.12,85.46,3.33,80.54,1.9l-5.07-1L70.26.23,64.94,0h0c-3.17.13-7.4.4-10.54.85"/><path class="cls-8" d="M54.4.87A64.79,64.79,0,0,0,35.09,7.26a66.79,66.79,0,0,0-8.51,5.28A65.85,65.85,0,0,0,19,19,65.2,65.2,0,0,0,7.25,35.11a63.25,63.25,0,0,0-3.94,9.31,65.13,65.13,0,0,0,0,41,63.36,63.36,0,0,0,3.94,9.32h0c1.48,2.61,3.6,6,5.28,8.51a65.6,65.6,0,0,0,14.05,14A64.58,64.58,0,0,0,54.4,129h0c3.15.38,7.37.72,10.54.85h0c3.16-.13,7.38-.47,10.53-.85l.66-.11-.72.11C30.7,135,10.87,83.38,42.27,42.75,65.67,12.46,116,4.89,128.21,50.3l-1.35-4.95-.3-.93-1.79-4.75-2.15-4.56-2.48-4.37-2.8-4.14-3.1-3.91L110.85,19l-3.65-3.38-3.91-3.11-4.15-2.8L94.78,7.26,90.21,5.12,85.46,3.33,80.54,1.9l-5.07-1L70.26.23,64.94,0h0c-3.17.13-7.4.4-10.54.85"/><path class="cls-9" d="M54.4.87A64.79,64.79,0,0,0,35.09,7.26a66.79,66.79,0,0,0-8.51,5.28A65.85,65.85,0,0,0,19,19,65.2,65.2,0,0,0,7.25,35.11a63.25,63.25,0,0,0-3.94,9.31,65.13,65.13,0,0,0,0,41,63.36,63.36,0,0,0,3.94,9.32h0c1.48,2.61,3.6,6,5.28,8.51a65.6,65.6,0,0,0,14.05,14A64.58,64.58,0,0,0,54.4,129h0c3.15.38,7.37.72,10.54.85h0c1.69-.07,4-.1,5.66-.24l.28,0c-51.5,2.29-61.4-58-27-94,25.63-26.78,68-29.56,82.08,7.16l-1.91-4.68-1.46-3-2.48-4.37-2.8-4.14-3.1-3.91L110.85,19l-3.65-3.38-3.91-3.11-4.15-2.8L94.78,7.26,90.21,5.12,85.46,3.33,80.54,1.9l-5.07-1L70.26.23,64.94,0h0c-3.17.13-7.4.4-10.54.85"/><path class="cls-10" d="M54.4.87A64.79,64.79,0,0,0,35.09,7.26a66.79,66.79,0,0,0-8.51,5.28A65.85,65.85,0,0,0,19,19,65.2,65.2,0,0,0,7.25,35.11a63.25,63.25,0,0,0-3.94,9.31,65.13,65.13,0,0,0,0,41,63.36,63.36,0,0,0,3.94,9.32h0c1.48,2.61,3.6,6,5.28,8.51a65.6,65.6,0,0,0,14.05,14A64.58,64.58,0,0,0,54.4,129h0c3.15.38,7.37.72,10.54.85h0l3.78-.11h.19c-51,1.42-66.48-55.14-26.74-97.62,20.44-21.86,62-31.56,80.46,3v0c-1.48-2.61-3.6-6-5.28-8.51l-3.1-3.91L110.85,19l-3.65-3.38-3.91-3.11-4.15-2.8L94.78,7.26,90.21,5.12,85.46,3.33,80.54,1.9l-5.07-1L70.26.23,64.94,0h0c-3.17.13-7.4.4-10.54.85"/><path class="cls-11" d="M64.94,129.87h0l1.9,0H67c-1.39,0-4.83,0-6.44-.12,1.45.1,2.92.15,4.4.15"/><path class="cls-11" d="M54.4.87A64.79,64.79,0,0,0,35.09,7.26a66.79,66.79,0,0,0-8.51,5.28A65.85,65.85,0,0,0,19,19,65.2,65.2,0,0,0,7.25,35.11a63.25,63.25,0,0,0-3.94,9.31,65.13,65.13,0,0,0,0,41,63.36,63.36,0,0,0,3.94,9.32h0c1.48,2.61,3.6,6,5.28,8.51a65.6,65.6,0,0,0,14.05,14,64.86,64.86,0,0,0,17.83,9.22c1.5.5,3,1,4.58,1.34h0C2.66,114.86,6.21,45.43,54.66,17c18.51-10.86,46-12.56,62.52,9.38l-3.11-3.9L110.85,19l-3.65-3.38-3.91-3.11-4.15-2.8L94.78,7.26,90.21,5.12,85.46,3.33,80.54,1.9l-5.07-1L70.26.23,64.94,0h0c-3.17.13-7.4.4-10.54.85"/><path class="cls-12" d="M43.7,104.23c14.39,35.32,63.74,26.49,81.23-14.53C140.58,53,112.86,20,77.85,33.61,46.77,45.72,34.18,80.88,43.7,104.23"/><path class="cls-13" d="M46.31,104.23c14.15,33.85,61.8,25,78.44-14.54,14-33.19-9.81-68.39-46.58-53.42C47.82,48.62,37,82,46.31,104.23"/><path class="cls-14" d="M47.29,99.39C57.29,134.64,102,132,122,95c16-29.61-.88-66.86-36.17-58.63-25,5.84-47,33.14-38.54,63"/><path class="cls-15" d="M49.73,99.39c10.76,34,52.38,31.48,71.83-4.34,15.65-28.83-.88-64.64-35.33-56.28C64.55,44,39.8,68,49.73,99.39"/><path class="cls-16" d="M50.76,94.25c8.29,37.09,49.13,35.12,67.74,5.14,18.22-29.36,4.28-65.7-31.91-58.22-24.71,5.1-41.11,29.41-35.83,53.08"/><path class="cls-17" d="M53.1,94.25c9.35,37.37,48.77,30.24,64.66,5.14C137,69,119.08,36.46,86.86,43.19c-24.38,5.09-39.53,28-33.76,51.06"/><path class="cls-18" d="M54,88.84c4.31,31.13,39,42.9,62.2,11.48,20.25-27.46,2.31-61.43-29.09-55.07C71.8,48.35,50.35,62.51,54,88.84"/><path class="cls-19" d="M55.54,88.84c5.89,32.06,41.93,38.38,60.26,10.55,18-27.4,2.07-56.68-28.49-52.23C69.15,49.81,51.63,67.58,55.54,88.84"/><path class="cls-20" d="M57.1,88.84c6.18,26.91,38.58,37.44,57.34,10.55,18.93-27.12-.49-54.18-27-50.69C67.71,51.3,53,70.81,57.1,88.84"/><path class="cls-21" d="M58.67,88.84c7.47,27.07,42.5,34.77,57.45,5.41,15.29-30-14.33-51-36.72-41.85C63.88,58.72,54.77,74.72,58.67,88.84"/><path class="cls-22" d="M60.25,88.84c7.45,24.3,40,31.44,54.18,5.41s-11.47-49.5-35-40.63C68.18,57.87,55.24,72.48,60.25,88.84"/><path class="cls-23" d="M61.66,88.11c3.75,17.49,35.92,31.85,50.61,6.14,14.11-24.68-10.27-48-32.77-39.47-.94.36-23,9.06-17.84,33.33"/><path class="cls-24" d="M63,88.84c6.67,18.53,37.05,26.07,48.93,1.25,9.42-19.69-11.78-42-32.42-34.14C65.8,61.21,58.39,76,63,88.84"/><path class="cls-25" d="M64.26,88.84c8.15,19.59,37.64,19.59,45.74,0,8-19.33-11.07-39.18-30.43-31.71C66.26,62.27,59.25,76.79,64.26,88.84"/><path class="cls-26" d="M65.49,88.84c8.09,17.2,33.87,17.2,41.79,0C116,70,98.62,50.9,79.6,58.32c-.09,0-9.83,4.15-13.86,12.88a22.06,22.06,0,0,0-.25,17.64"/><path class="cls-27" d="M66.73,88.84c8.7,17.18,36.34,13.32,40.51-5.67,2.63-12-4.15-18-4.44-18.23-6-5.17-6-5.17-10.47-6.25-1.28-.31-3-1-4.28-.95a28.75,28.75,0,0,0-8.43,1.61c-.09,0-9.78,4.91-12.81,11.85C64,77.53,64,83.47,66.73,88.84"/><path class="cls-28" d="M65.89,83.17C69,100.48,93,104.14,103,88.84c2.37-3.62,6.93-13.18-1.85-23.9-4.46-5.44-14.31-7.56-21.51-4.62C72.92,63.07,63.9,72.23,65.89,83.17"/><path class="cls-29" d="M66.91,83.17C68.05,88.79,69.51,90,75,94.25c2.49,2,2.49,2,10.1,3.24,2.23.37,5.37-.64,7.36-1.74a29.06,29.06,0,0,0,8.35-6.91c4.09-5.38,5-11.81,2.43-17.64-2.28-5.23-3-5.79-7.07-8.85a16.55,16.55,0,0,0-8-2.52,18.22,18.22,0,0,0-8.46,1.47c-4.09,2.09-6.45,4.68-9,7.43a18.37,18.37,0,0,0-3.8,14.44"/><path class="cls-30" d="M67.92,83.17s2.33,5.46,2.51,5.67C70.88,89.37,77.75,95,78,95c7.14,1.29,7.14,1.29,11.51,0a20.11,20.11,0,0,0,9.69-6.18c4.29-5.33,4.4-13.67,2.84-17.64a23.11,23.11,0,0,0-5.89-7.5,17.4,17.4,0,0,0-8-2.9,17.05,17.05,0,0,0-8.48,1.47c-3.51,1.9-5.93,4.57-9,8,0,0-4.31,6-2.76,12.94"/><path class="cls-31" d="M68.93,83.17a14.91,14.91,0,0,0,3,5.67c1.57,1.81,3.9,4.53,6.25,5,2.17.42,5.15,1.67,7.3,1.12,6.27-1.62,8.87-2.28,12.15-6.12a17.87,17.87,0,0,0,3.27-17.64,14.79,14.79,0,0,0-4.7-6.12c-.41-.31-8-3.31-8-3.31a16.4,16.4,0,0,0-8.5,1.49c-1.92,1.06-4.82,3.73-8.6,7.94a17.24,17.24,0,0,0-2.14,12"/><path class="cls-32" d="M69.93,83.17c.49,2.17,2.34,5.6,8.33,9.62,1.89,1.27,5.24,1,7.52,1,2.52,0,5.82-1.53,7.82-3.06a19.11,19.11,0,0,0,6.14-7.57c.64-1.59,3.49-9.84-3.59-16.52-2.31-2.18-7.92-3.9-8-3.9-2.56-.38-6.11.5-8.5,1.49-1.06.44-7.43,6.91-7.46,7-2.16,4.21-3.47,6.75-2.29,12"/><path class="cls-33" d="M71,83.17a19.6,19.6,0,0,0,7.27,8.5c2,1.25,5.35,1.07,7.68,1.07,2.63,0,5.88-2,8-3.64a71.5,71.5,0,0,0,4.62-5.93c2.32-5.13,1.3-11.42-2.43-15,0,0-5.14-4-7.93-4.49-.08,0-8.43,1.48-8.51,1.53-2.31,1.18-5.18,3.6-6.31,5.94-3,6.14-3.77,7.8-2.36,12"/><path class="cls-34" d="M72.18,83.17s2.93,5.46,6.29,7.51c2,1.21,5.35,1,7.67,1,.07,0,8.32-2.51,11.18-8.49,3.77-7.91-1.19-13.37-1.24-13.42s-7.12-4.9-7.89-5.06c0,0-8.47,1.6-8.51,1.63-3.34,1.7-10.1,9.72-7.5,16.83"/><path class="cls-35" d="M73.34,83.17s3.93,5.69,5.24,6.44c2,1.16,5.39,1,7.73,1,.27,0,7.94-3.62,9.79-7.43,1.46-3,2.71-5.58-.2-12-1.17-2.58-4.94-4.83-7.71-5.41-2.55-.53-6.13.59-8.52,1.62-1.52.66-3,2.53-4,3.79-.05,0-4.7,5.88-2.31,12"/><path class="cls-36" d="M74.49,83.17c.77,1.87,2.4,4.35,4.19,5.3.09,0,7.52,1,7.79,1,1.36,0,8.33-6.28,8.37-6.34a9.28,9.28,0,0,0,1-8.47c-.43-1-.65-2.69-1.45-3.5-1.58-1.62-4-3.84-6.18-4.3-2.54-.53-6.09.67-8.52,1.59-1.11.42-2.12,1.8-2.89,2.71-.19.23-4.81,5.82-2.28,12"/><path class="cls-37" d="M75.64,83.17c.58,1.41,1.76,3.36,3.15,4,2.15,1,5.54,1.76,7.85,1.17,2.47-.63,5.16-3.18,6.74-5.18a12.08,12.08,0,0,0,2-5.89c.15-2-1.33-4.52-2.54-6.08A9.31,9.31,0,0,0,88.17,68c-2.55-.53-6,.78-8.53,1.56-.68.21-1.29,1.08-1.74,1.64a15.19,15.19,0,0,0-3,6.08,11.67,11.67,0,0,0,.76,5.89"/><path class="cls-38" d="M76.77,83.17c.41,1,1.16,2.34,2.12,2.71,2.24.87,5.59,1.79,7.92,1.2a10.88,10.88,0,0,0,5.08-3.91A12.82,12.82,0,0,0,94,77.28c.15-2-1.63-4.45-2.8-6.08a5.82,5.82,0,0,0-3.06-2.1c-2.54-.54-6,.94-8.53,1.52-.24.06-.45.38-.61.58a15.51,15.51,0,0,0-3.08,6.08,11.72,11.72,0,0,0,.84,5.89"/><path class="cls-39" d="M77.91,83.17c.2.49.57,1.25,1.08,1.4,2.33.67,5.63,1.82,8,1.22,4.27-1.09,5.69-8.44,5.69-8.51-.11-2-2-4.36-3.07-6.08a3.19,3.19,0,0,0-1.47-1c-.68-.26-7.86,1.42-8.53,2A9.44,9.44,0,0,0,77,77.28a12.2,12.2,0,0,0,.94,5.89"/><path class="cls-40" d="M79,83.17c.12.27,8,1.34,8.09,1.33a3.21,3.21,0,0,0,1.72-1.33c1-1.66,2.56-4,2.45-5.89s-1.32-5.19-3.21-5.9c-2.54-.95-6.9.82-8.56,3A6.46,6.46,0,0,0,78,77.28a14.48,14.48,0,0,0,1,5.89"/><path class="cls-41" d="M79.33,79c0,.06,7.79,4.31,7.93,4.24,1.71-.92,2.73-4,2.64-5.91-.06-1.2-.8-3.08-1.92-3.53-2.5-1-6.23,1.36-8.53,2.75-.64.38-.55,1.86-.12,2.45"/><path class="cls-42" d="M87.62,79.31c.63-.21.91-1.37.88-2a1.47,1.47,0,0,0-.65-1.18c-1.09-.45-2.62.82-3.75,1.18,1.06.61,2.37,2.41,3.52,2"/></g></g></g><g class="cls-2"><g class="cls-43"><g class="cls-2"><polyline class="cls-11" points="64.94 0.02 64.94 129.87 64.94 129.87 64.94 0.02"/></g></g></g><g class="cls-2"><g class="cls-44"><g class="cls-2"><polyline class="cls-11" points="64.94 0.02 64.94 129.87 64.94 129.87 64.94 0.02"/></g></g></g><g class="cls-2"><g class="cls-45"><g class="cls-2"><polyline class="cls-11" points="64.94 0.02 64.94 129.87 64.94 129.87 64.94 0.02"/></g></g></g><g class="cls-2"><g class="cls-44"><g class="cls-2"><polyline class="cls-11" points="64.94 0.02 64.94 129.87 64.94 129.87 64.94 0.02"/></g></g></g><g class="cls-2"><g class="cls-46"><g class="cls-2"><polyline class="cls-11" points="64.94 0.02 64.94 129.87 64.94 129.87 64.94 0.02"/></g></g></g><g class="cls-2"><g class="cls-45"><g class="cls-2"><polyline class="cls-11" points="64.94 0.02 64.94 129.87 64.94 129.87 64.94 0.02"/></g></g></g><g class="cls-2"><g class="cls-46"><g class="cls-2"><polyline class="cls-11" points="64.94 0.02 64.94 129.87 64.94 129.87 64.94 0.02"/></g></g></g><g class="cls-2"><g class="cls-47"><g class="cls-2"><path class="cls-10" d="M64.94,129.87c-3.17-.13-7.39-.47-10.54-.85a64.72,64.72,0,0,1-27.82-11.68,65.6,65.6,0,0,1-14-14c-1.68-2.49-3.8-5.9-5.28-8.51a63.36,63.36,0,0,1-3.94-9.32,65.13,65.13,0,0,1,0-41,63.25,63.25,0,0,1,3.94-9.31A65.2,65.2,0,0,1,19,19a65.85,65.85,0,0,1,7.56-6.49,66.79,66.79,0,0,1,8.51-5.28A64.79,64.79,0,0,1,54.4.87C57.55.48,61.77.15,64.94,0a64.93,64.93,0,0,1,0,129.85h0"/><path class="cls-10" d="M129.86,64.94a64.93,64.93,0,0,1-64.92,64.93h0c-3.17-.13-7.39-.47-10.54-.85a64.72,64.72,0,0,1-27.82-11.68,65.6,65.6,0,0,1-14-14h0c-1.59-2.35-3.61-5.55-5-8l2.06,3.5c23.51,35.62,86.66,17.64,99-40.09,5.62-26.24-8.43-56-38.32-58.46a64.94,64.94,0,0,1,59.57,64.71"/><path class="cls-11" d="M129.86,64.94a64.93,64.93,0,0,1-64.92,64.93h0c-3.17-.13-7.39-.47-10.54-.85a64.72,64.72,0,0,1-27.82-11.68,65.92,65.92,0,0,1-13.4-13.17h0c34.46,41.33,95.45-1.79,100.14-45.48S89.62,4.24,80.81,2a65,65,0,0,1,49.05,63"/><path class="cls-9" d="M87.41,7c39.33,27.55,14.3,98.55-37.71,107-16.57,2.7-37.09-4.41-45.62-26.34-.27-.72-.53-1.45-.77-2.19a65.13,65.13,0,0,1,0-41,63.25,63.25,0,0,1,3.94-9.31A65.2,65.2,0,0,1,19,19a65.85,65.85,0,0,1,7.56-6.49,66.79,66.79,0,0,1,8.51-5.28A64.79,64.79,0,0,1,54.4.87h0C56.81.57,60,.21,62.46.06h.43A42,42,0,0,1,87.41,7"/><path class="cls-8" d="M94.83,17c29,43-18.75,102.24-61.65,94.12-9-1.71-25.11-8-31.4-31-.36-1.52-.67-3.07-.93-4.64a65.13,65.13,0,0,1,2.46-31,63.25,63.25,0,0,1,3.94-9.31A65.2,65.2,0,0,1,19,19a65.85,65.85,0,0,1,7.56-6.49,66.79,66.79,0,0,1,8.51-5.28,64.42,64.42,0,0,1,9.32-3.93A65.21,65.21,0,0,1,53.9,1h0C79.14-3,91.61,12.24,94.83,17"/><path class="cls-7" d="M94.7,21.15c21.85,42-25.62,101.32-68.63,85.82C12,101.88,2.38,89,.44,72.52a65.06,65.06,0,0,1,2.87-28.1,63.25,63.25,0,0,1,3.94-9.31A65.2,65.2,0,0,1,19,19a65.85,65.85,0,0,1,7.56-6.49,66.79,66.79,0,0,1,8.51-5.28,64.42,64.42,0,0,1,9.32-3.93c.67-.22,1.34-.44,2-.64h0C78.68-6,92.3,16.54,94.7,21.15"/><path class="cls-6" d="M94,25.66c15.75,41.57-30.32,93.71-69.43,78.57C9.13,98.25-.06,83.37,0,64.44a66.31,66.31,0,0,1,.85-10,65.08,65.08,0,0,1,2.46-10,63.25,63.25,0,0,1,3.94-9.31A65.2,65.2,0,0,1,19,19a65.85,65.85,0,0,1,7.56-6.49,66.79,66.79,0,0,1,8.51-5.28c1.2-.61,2.41-1.2,3.65-1.74h0C67-6.21,87.22,7.73,94,25.66"/><path class="cls-5" d="M93,30.49c11.17,44.35-41.42,91.25-76,67.82C9.57,93.3-2.38,81,.73,55.15l.12-.74a65.08,65.08,0,0,1,2.46-10,63.25,63.25,0,0,1,3.94-9.31A65.2,65.2,0,0,1,19,19a65.85,65.85,0,0,1,7.56-6.49c1.36-1,2.77-1.94,4.2-2.83h0C64.77-9.71,88,10.63,93,30.49"/><path class="cls-4" d="M91.32,35.63C97,79.6,48.07,118,15.48,95.25c-3.88-2.72-22.71-18-11.76-52a63,63,0,0,1,3.53-8.12A65.2,65.2,0,0,1,19,19q1-1,2-1.92h0C56-12.53,87.75,7.92,91.32,35.63"/><path class="cls-12" d="M88.8,35.63C94.59,78,44.43,116.12,14.26,92.22-16.17,68.13,8.22,7.7,50,3.65c22.31-2.16,36.41,14.45,38.8,32"/><path class="cls-13" d="M86.25,35.63C92.49,80.38,39,111.84,13,89-15.72,63.77,10.12,6.09,50.87,4.47c21.32-.85,33.14,15,35.38,31.16"/><path class="cls-14" d="M84.21,41.05C86,83.59,35.1,108.29,12,85.77-13.93,60.56,10.86,7.33,49.33,5.55c19.6-.9,34,13.69,34.88,35.5"/><path class="cls-15" d="M82.1,41.05c2.23,35.18-42.23,68-70.28,42.12C-10.44,62.65,9.1,8.74,47.82,6.74c22-1.13,33.18,17,34.28,34.31"/><path class="cls-16" d="M80.08,46.72C77.83,85.88,30,102.46,10.33,78.92-10.5,54,16.13,6.32,49.9,8c22,1.12,31,23.75,30.18,38.69"/><path class="cls-17" d="M78,46.72C75.81,86.63,29.11,97.53,11.37,77.28-9.1,53.9,16.38,7.62,48.72,9.45c22,1.24,29.93,24.88,29.26,37.27"/><path class="cls-18" d="M75.85,52.61C71,84.35,24.34,97.4,9.29,71.22-5.63,45.27,22.89,5.15,51.68,11.59c16,3.58,27,22.36,24.17,41"/><path class="cls-19" d="M74.5,52.61C69.66,82.22,27.35,94.73,11.63,71.2c-18-26.88,13.55-64.53,39.16-57.8,15.12,4,26.42,22.66,23.71,39.21"/><path class="cls-20" d="M73.14,52.61C68.42,79.76,31.53,91.4,14.24,71.2s3.91-58.7,31-56.57c16.25,1.28,30.87,21.15,27.94,38"/><path class="cls-21" d="M71.78,52.61C66.67,80.28,29.39,89.54,14,67-1,45.06,23.92,10,49,17.6c12.8,3.87,25.53,20,22.76,35"/><path class="cls-22" d="M70.4,52.61c-5.23,26.9-40.75,34.85-55.08,12.33-13.41-21.07,9.32-52.22,32.86-45C62.3,24.21,72.89,39.8,70.4,52.61"/><path class="cls-23" d="M69,52.61C63.75,79.81,31.13,84,18.1,64.94,4.34,44.82,24.08,16,47.44,22.17c14.17,3.72,24,17.66,21.57,30.44"/><path class="cls-24" d="M67.86,52.61c-3.29,22.8-34.17,30.87-47.19,12.33C6,44,25.89,19.36,46.78,24.35c11.72,2.8,23.31,12.83,21.08,28.26"/><path class="cls-25" d="M66.91,52.61C63.74,74,34.9,82,22.83,64.94,10.15,47,24.59,23.2,46.23,26.34c9.7,1.41,23,10.73,20.68,26.27"/><path class="cls-26" d="M66,52.61c-2.51,16.51-27.19,29.8-40.88,12.33C12.87,49.38,26,25.91,45.8,28,55.66,29.07,68.14,38.2,66,52.61"/><path class="cls-27" d="M65,52.61C62.61,68,40.5,80.46,27.07,64.94,13.29,49,29.89,28.59,45.39,29.72c13.7,1,21.19,12.64,19.6,22.89"/><path class="cls-28" d="M62,58.69C61.36,60,55.32,71,41.78,71c-2.49,0-6-.68-8-2.15C28.41,65,27.13,64,24.93,58.69c-1.44-3.49-3.85-12.55,5-21.1,9.86-9.51,20.24-6,22.22-5.17.08,0,8.26,4.67,9.74,8.63,2.32,6.19,3.84,10.28.09,17.64"/><path class="cls-29" d="M60.94,58.69A20.88,20.88,0,0,1,41.75,70.06a15,15,0,0,1-8-2.53c-3-2.24-5.32-4-7.07-8.84-4-11.07,2.33-17.51,2.39-17.58,6.42-6.34,6.42-6.34,8.39-7,3.7-1.2,8.76-2.85,14.57-.48s15.87,11.67,8.93,25"/><path class="cls-30" d="M59.89,58.69a33.5,33.5,0,0,1-9.69,8.92c-2.24,1.28-5.89,1.48-8.48,1.48a15.35,15.35,0,0,1-8-2.91c-3.48-2.6-5.87-7.45-5.89-7.49-2.51-6.43.82-15.64,2.85-17.64,4.82-4.78,5.18-4.88,11.25-6.65a16.83,16.83,0,0,1,9.94.49c.4.16,7.13,5.63,7.59,6.16.18.21,2.49,5.62,2.5,5.67,1.54,4.56-1.19,10.32-2.06,12"/><path class="cls-31" d="M59.2,57.78c-.87,2.14-6.59,7.43-9,8.85C48,68,44.29,68,41.7,68.12c0,0-7.51-3-8-3.31A16.82,16.82,0,0,1,29,58.69c-2.16-5-.51-13.87,3.27-17.64,3.09-3.08,4.13-4.11,12-6.14,2.18-.56,5.35.25,7.42,1.14a20.1,20.1,0,0,1,6.25,5,18.82,18.82,0,0,1,3,5.67c1.27,3.68.33,6-1.74,11.06"/><path class="cls-32" d="M59.23,55.14a13.54,13.54,0,0,1-1.58,3.55c0,.05-5.39,5.54-7.46,7s-5.93,1.18-8.5,1.49c-.07,0-8.51-1.87-11.47-8.45a16.48,16.48,0,0,1,3.71-17.64c3.39-3.42,10.1-4.95,10.16-5a13.91,13.91,0,0,1,7.52,1c1.81.78,5.86,3.79,8.33,9.63.42,1,1.2,3.82-.71,8.42"/><path class="cls-33" d="M56.5,58.69a20.31,20.31,0,0,1-6.31,5.94c-.09,0-8.44,1.55-8.51,1.53S30,63.18,30.06,52.61a14.67,14.67,0,0,1,1.27-5.89s4.14-5.71,4.61-5.93c2.38-1.11,5.34-3.67,8-3.65a26.51,26.51,0,0,1,7.59,1A10.23,10.23,0,0,1,55,41c2,2.15,7.94,8.7,1.51,17.71"/><path class="cls-34" d="M55.36,58.69a16,16,0,0,1-5.16,4.86c-.05,0-8.49,1.64-8.52,1.63-1-.25-7.85-5-7.89-5.06-2.33-2.78-2.64-7.47-2.64-7.51,0-7.74,6.43-11.53,6.49-11.56,1.8-.92,4.08-2.84,6.09-2.84a31.45,31.45,0,0,1,7.67,1,6.23,6.23,0,0,1,2.25,1.85c2.43,2.61,8.12,8.72,1.71,17.64"/><path class="cls-35" d="M54.22,58.69a11.7,11.7,0,0,1-4,3.78c-2.39,1-6,2.16-8.52,1.63-2.77-.58-5.92-3.23-7.71-5.41-.17-.2-1.72-6-1.72-6.08-.17-2,.24-7,7.52-11.56,1.06-.66,2.54-1.68,3.79-1.76,2.34-.16,5.79-.31,7.73,1s5.22,6.39,5.24,6.44a11.12,11.12,0,0,1,.58,5.89,16.79,16.79,0,0,1-2.89,6.08"/><path class="cls-36" d="M53.1,58.69a7.88,7.88,0,0,1-2.89,2.71c-2.43.92-6,2.12-8.52,1.59-2.21-.47-4.77-2.54-6.18-4.3a10.91,10.91,0,0,1-2.15-6.08c0-.18,1.59-5.79,1.67-5.89,1.59-2.16,4.63-4.26,6.91-5.67a3.2,3.2,0,0,1,1.46-.68c.45,0,7.73,1,7.79,1a16.24,16.24,0,0,1,4.19,5.31,11.81,11.81,0,0,1,.67,5.89,16.69,16.69,0,0,1-2.95,6.08"/><path class="cls-37" d="M52,58.69a4.43,4.43,0,0,1-1.75,1.64c-2.48.77-6,2.1-8.53,1.56-5.58-1.19-7.18-9.21-7.17-9.28a12,12,0,0,1,2-5.89c1.58-2,4.27-4.56,6.74-5.19,2.31-.58,5.7.16,7.85,1.17,1.39.65,2.46,2.65,3.15,4A10.42,10.42,0,0,1,55,52.61a17.15,17.15,0,0,1-3,6.08"/><path class="cls-38" d="M50.86,58.69c-.15.2-.37.52-.61.58-2.53.58-6.12,2.49-8.53,1.52a7.53,7.53,0,0,1-3.06-2.1c-1.17-1.63-2.73-4.08-2.8-6.08A10.8,10.8,0,0,1,38,46.72c1.14-1.55,3.22-3.44,5.08-3.91,2.33-.59,5.68.32,7.92,1.19,1,.38,1.66,1.79,2.12,2.72a10.73,10.73,0,0,1,.84,5.89,16.9,16.9,0,0,1-3.08,6.08"/><path class="cls-39" d="M50.28,57.7c-.67.58-7.84,2.26-8.53,2a3.17,3.17,0,0,1-1.47-1c-1.11-1.72-3-4-3.07-6.08,0-.94,2-7.57,5.69-8.52,2.35-.6,5.65.55,8,1.23.51.15.83.93,1.08,1.4a10.55,10.55,0,0,1,.94,5.89,9.47,9.47,0,0,1-2.62,5.09"/><path class="cls-40" d="M50.35,55.53c-2.06,1.77-6,3.94-8.56,3-1.88-.71-3.11-3.88-3.21-5.89s1.49-4.24,2.45-5.89a3.2,3.2,0,0,1,1.72-1.33c.06,0,7.93,1.12,8.09,1.33,1.08,1.43,1.13,4.1,1,5.89a4.84,4.84,0,0,1-1.52,2.92"/><path class="cls-41" d="M50.42,53.39c-2.06,1.73-6,3.74-8.53,2.74C40.77,55.69,40,53.81,40,52.61c-.08-1.94,1-4.85,2.61-5.89.14-.09,7.91,4.15,8,4.21a2.2,2.2,0,0,1-.12,2.46"/><path class="cls-42" d="M42,53.79a1.47,1.47,0,0,1-.65-1.18c0-.67.25-1.82.88-2,1.16-.39,2.46,1.42,3.52,2-1.12.35-2.66,1.62-3.75,1.18"/></g><path class="cls-48" d="M65.79,62.92c-.09,14-6,21.42-17.52,22h0c-20.64-1-17.8-23.25-16.11-36.51,6.34,0,6.34,0,6.67-.11a1.7,1.7,0,0,0,.77-2.46,2,2,0,0,0-1.46-.38H32.65c0-.11,0-.23.05-.35l.06-.34.06-.33.06-.34.06-.34.06-.35c0-.12,0-.24.07-.37s0-.25.07-.38H37.5c3.36.19,3.26-2.09,2.93-2.46s-.33-.37-6.37-.36c.21-1.17.39-2.18,1-2.47,1.66-.74,3.39,0,5.07-.26.21,0,4.64-2.76-3.18-2.65A17.29,17.29,0,0,1,50.73,27c3.67.27,9,1.34,12.47,7.49-4,0-4,0-4.56.21-1.07.47-1.71,1.47-.89,2.16.39.33.73.33,3.94.32,3.51,0,3.51,0,3.54,2.68-6.82,0-6.82,0-7.19.12a1.46,1.46,0,0,0-.66,2.3c.43.41.43.41,8.2.41v2.8H59.1c-3.57,0-1.94,2.54-1.91,2.56.43.39.43.39,8.36.39.19.84.32,1.45.24,14.48"/><path class="cls-48" d="M78,69.58c-.37,3.68-3.34,22.22-25.81,26.3l.12,1,.12,1c.05.31.09.63.13,1s.09.62.13.93.09.62.14.93.09.62.14.92.09.62.14.92l.15.93c5.48,0,5.48,0,6.11.36a2.28,2.28,0,0,1,.74,3.58c-1.4,1.29-14.75.6-14.87.59a3.35,3.35,0,0,1-2.8-3.13c.12-2.88,4-.67,5.91-1.58-.07-.28-.14-.57-.2-.85s-.13-.58-.19-.87-.13-.59-.19-.89-.12-.6-.19-.9l-.18-.93-.18-1-.18-1c-.05-.33-.11-.66-.17-1C19.27,90.37,19.56,62.67,23,60.79c2-1.08,3.06.56,3.2,4.9C26.89,88.28,46,90.37,46.81,90.45c7.61.73,24.49-4.21,25.08-23.63.11-3.72.18-6,3.13-6.3,3.2.26,3.5,3.66,3,9.06"/></g></g><g class="cls-2"><g class="cls-49"><g class="cls-2"><path class="cls-10" d="M129.87,64.94a64.46,64.46,0,0,1-19,45.91,65.24,65.24,0,0,1-20.64,13.92c-10.92,4.52-18.22,4.81-25.27,5.1A64.93,64.93,0,0,0,64.94,0C72,.3,79.29.6,90.21,5.12A65.16,65.16,0,0,1,110.85,19a64.49,64.49,0,0,1,19,45.91"/><path class="cls-10" d="M75.47.87c3,.62,7,1.6,10,2.46l4.75,1.79,4.57,2.14,4.36,2.48,4.15,2.8,3.91,3.11L110.85,19l3.39,3.66,3.1,3.91,2.8,4.14,2.48,4.37,2.15,4.56,1.79,4.75L128,49.34l1,5.07.64,5.21.21,5.32-.21,5.33a45.85,45.85,0,0,0-.64,5.2l-1,5.07-1.42,4.92-1.79,4.75-2.15,4.57-2.48,4.36-2.8,4.15-3.1,3.91-3.39,3.65-3.65,3.39-3.91,3.1-4.15,2.8-4.36,2.48-4.57,2.15A72.9,72.9,0,0,1,75.47,129l-5.21.63-5.32.22A64.93,64.93,0,0,0,70.29.23h-.13l5.21.63.1,0"/><path class="cls-11" d="M85.46,3.33a96.24,96.24,0,0,1,9.32,3.93l4.36,2.48,4.15,2.8,3.91,3.11L110.85,19l3.39,3.66,3.1,3.91,2.8,4.14,2.48,4.37,2.15,4.56,1.79,4.75L128,49.34l1,5.07.64,5.21.21,5.32-.21,5.33a45.85,45.85,0,0,0-.64,5.2l-1,5.07-1.42,4.92-1.79,4.75-2.15,4.57-2.48,4.36-2.8,4.15-3.1,3.91-3.39,3.65-3.65,3.39-3.91,3.1-4.15,2.8-4.36,2.48-4.57,2.15A72.9,72.9,0,0,1,75.47,129l-5.21.63-5.32.22A64.94,64.94,0,0,0,80.81,2h0l-.26-.06c1.47.42,3.46.93,4.91,1.42"/></g></g></g></g></g></g></svg>