<svg xmlns="http://www.w3.org/2000/svg" xmlns:xlink="http://www.w3.org/1999/xlink" viewBox="0 0 178.78 178.77"><defs><style>.cls-1{fill:none;}.cls-2{isolation:isolate;}.cls-3{clip-path:url(#clip-path);}.cls-4{fill:#134b8c;}.cls-5{fill:#134988;}.cls-6{fill:#124785;}.cls-7{fill:#124581;}.cls-8{fill:#11437d;}.cls-9{fill:#114179;}.cls-10{fill:#103f76;}.cls-11{fill:#103d72;}.cls-12{fill:#144d90;}.cls-13{fill:#144f94;}.cls-14{fill:#155197;}.cls-15{fill:#15539b;}.cls-16{fill:#16559f;}.cls-17{fill:#1657a3;}.cls-18{fill:#1759a6;}.cls-19{fill:#175baa;}.cls-20{fill:#185dae;}.cls-21{fill:#185fb2;}.cls-22{fill:#1961b5;}.cls-23{fill:#1963b9;}.cls-24{fill:#1a65bd;}.cls-25{fill:#1a67c1;}.cls-26{fill:#1b69c4;}.cls-27{fill:#1b6bc8;}.cls-28{fill:#1c6dcc;}.cls-29{fill:#377fd2;}.cls-30{fill:#4386d5;}.cls-31{fill:#4b8bd7;}.cls-32{fill:#5290d8;}.cls-33{fill:#5994da;}.cls-34{fill:#5f98db;}.cls-35{fill:#649bdc;}.cls-36{fill:#699fdd;}.cls-37{fill:#6ea2de;}.cls-38{fill:#72a4df;}.cls-39{fill:#76a7e0;}.cls-40{fill:#7aaae1;}.cls-41{fill:#7eace2;}.cls-42{fill:#82afe3;}.cls-43{clip-path:url(#clip-path-2);}.cls-44{fill:#fff;}.cls-45{clip-path:url(#clip-path-3);}</style><clipPath id="clip-path"><path class="cls-1" d="M89.39,178.77a90,90,0,0,1-14.5-1.17A89,89,0,0,1,36.6,161.52a89.62,89.62,0,0,1-19.35-19.34A89,89,0,0,1,1.17,103.89a90.44,90.44,0,0,1,0-29,89.14,89.14,0,0,1,16.08-38.3A90,90,0,0,1,36.6,17.24,89,89,0,0,1,48.31,10,87.49,87.49,0,0,1,61.14,4.56,88.52,88.52,0,0,1,74.89,1.17,90,90,0,0,1,89.39,0c2.2.09,5.14,0,7.33.3a132.39,132.39,0,0,1,14.15,2.3A88.84,88.84,0,0,1,130.47,10a61.29,61.29,0,0,1,6,3.41,132,132,0,0,1,11.09,8.13,132.35,132.35,0,0,1,9.7,9.69c1.4,1.51,3,3.77,4.27,5.38a90.23,90.23,0,0,1,7.27,11.72c1.77,3.78,3.94,8.91,5.42,12.82a88.65,88.65,0,0,1,3.39,13.76,90,90,0,0,1,1.17,14.5h0c-.18,4.36-.31,10.22-1.17,14.5-.43,2.09-.84,4.92-1.43,7-1.17,4-2.82,9.42-4.43,13.31a76.1,76.1,0,0,1-6.37,12.29c-1.15,1.71-2.57,4.09-3.85,5.71a132.2,132.2,0,0,1-8.94,10.41,134.22,134.22,0,0,1-10.41,8.93c-1.62,1.29-4,2.7-5.71,3.86a76.86,76.86,0,0,1-12.29,6.36c-3.89,1.61-9.27,3.26-13.31,4.43-2.06.59-4.89,1-7,1.43A91.29,91.29,0,0,1,89.39,178.77Z"/></clipPath><clipPath id="clip-path-2"><path class="cls-1" d="M89.39,178.77a90,90,0,0,1-14.5-1.17A89,89,0,0,1,36.6,161.52a89.62,89.62,0,0,1-19.35-19.34A89,89,0,0,1,1.17,103.89a90.44,90.44,0,0,1,0-29,89.14,89.14,0,0,1,16.08-38.3A90,90,0,0,1,36.6,17.24,89,89,0,0,1,48.31,10,87.49,87.49,0,0,1,61.14,4.56,88.52,88.52,0,0,1,74.89,1.17a89.39,89.39,0,1,1,14.5,177.6Z"/></clipPath><clipPath id="clip-path-3"><path class="cls-1" d="M178.78,89.39a90,90,0,0,0-1.17-14.5,88.65,88.65,0,0,0-3.39-13.76c-1.48-3.91-3.65-9-5.42-12.82a90.23,90.23,0,0,0-7.27-11.72c-1.28-1.61-2.87-3.87-4.27-5.38a132.35,132.35,0,0,0-9.7-9.69,132,132,0,0,0-11.09-8.13,61.29,61.29,0,0,0-6-3.41,88.84,88.84,0,0,0-19.6-7.38A132.39,132.39,0,0,0,96.72.3C94.53,0,91.59.09,89.39,0a89.39,89.39,0,0,1,0,178.77c4.36-.18,10.22-.31,14.5-1.17,2.09-.43,4.92-.84,7-1.43,4-1.17,9.42-2.82,13.31-4.43a76.86,76.86,0,0,0,12.29-6.36c1.72-1.16,4.09-2.57,5.71-3.86a134.22,134.22,0,0,0,10.41-8.93,132.2,132.2,0,0,0,8.94-10.41c1.28-1.62,2.7-4,3.85-5.71a76.1,76.1,0,0,0,6.37-12.29c1.61-3.89,3.26-9.27,4.43-13.31.59-2.06,1-4.89,1.43-7C178.47,99.61,178.6,93.75,178.78,89.39Z"/></clipPath></defs><title>Recurso 20</title><g id="Capa_2" data-name="Capa 2"><g id="Capa_1-2" data-name="Capa 1"><g class="cls-2"><g class="cls-2"><g class="cls-3"><g class="cls-2"><path class="cls-4" d="M89.39,178.77c9.71-.4,19.76-.8,34.79-7a89.7,89.7,0,0,0,47.57-47.56c6.23-15,6.63-25.08,7-34.79a90,90,0,0,0-1.17-14.5,88.65,88.65,0,0,0-3.39-13.76c-1.48-3.91-3.65-9-5.42-12.82a90.23,90.23,0,0,0-7.27-11.72c-5-6.26-7.71-9.71-14-15.07A88.36,88.36,0,0,0,130.47,10C112.65.94,99.75.42,89.39,0a90,90,0,0,0-14.5,1.17A88.52,88.52,0,0,0,61.14,4.56,87.49,87.49,0,0,0,48.31,10,89,89,0,0,0,36.6,17.24,90,90,0,0,0,17.25,36.59,89.1,89.1,0,0,0,0,89.39a90.07,90.07,0,0,0,1.17,14.5,89.16,89.16,0,0,0,16.08,38.29A89.62,89.62,0,0,0,36.6,161.52,89,89,0,0,0,74.89,177.6a90,90,0,0,0,14.5,1.17"/><path class="cls-4" d="M74.89,1.17A88.52,88.52,0,0,0,61.14,4.56,87.49,87.49,0,0,0,48.31,10,89,89,0,0,0,36.6,17.24,90,90,0,0,0,17.25,36.59,89.1,89.1,0,0,0,0,89.39a90.07,90.07,0,0,0,1.17,14.5,89.16,89.16,0,0,0,16.08,38.29A89.62,89.62,0,0,0,36.6,161.52,89,89,0,0,0,74.89,177.6a90,90,0,0,0,14.5,1.17l7.33-.3,7.17-.87,7-1.43,6.77-2,6.54-2.47a100.48,100.48,0,0,0,18-10.22l5.38-4.27,2.21-2-.09.09c-49.7,42.06-101.09,11.07-97.11-40.9C57.22,53.7,130,15.39,165.48,55.07c6.4,7.17,20,27.83,8,64.76.92-2.65,1.94-6.26,2.72-9l1.43-7,.87-7.17.3-7.33a90,90,0,0,0-1.17-14.5,88.65,88.65,0,0,0-3.39-13.76h0c-1.48-3.91-3.65-9-5.42-12.82a90.23,90.23,0,0,0-7.27-11.72h0c-2.56-3.22-6.14-7.39-8.94-10.41l-5-4.66-5.38-4.28-5.71-3.85-6-3.41-6.29-3-6.54-2.46-6.77-2-7-1.43L96.72.3,89.39,0a90,90,0,0,0-14.5,1.17"/><path class="cls-5" d="M74.89,1.17A88.52,88.52,0,0,0,61.14,4.56,87.49,87.49,0,0,0,48.31,10,89,89,0,0,0,36.6,17.24,90,90,0,0,0,17.25,36.59,89.1,89.1,0,0,0,0,89.39a90.07,90.07,0,0,0,1.17,14.5,89.16,89.16,0,0,0,16.08,38.29A89.62,89.62,0,0,0,36.6,161.52,89,89,0,0,0,74.89,177.6a90,90,0,0,0,14.5,1.17l7.33-.3,7.17-.87,7-1.43,6.77-2,6.54-2.47c3.71-1.74,8.57-4.25,12.14-6.27l-4.87,2.78c-49.08,25-99.22-11.92-77.52-77C72.14,36.58,148.8,10.7,173.05,64.29c7.43,16.42,5.54,31.77,4.63,39.14l.84-7.18.26-6.86a90,90,0,0,0-1.17-14.5,88.65,88.65,0,0,0-3.39-13.76h0c-1.48-3.91-3.65-9-5.42-12.82a90.23,90.23,0,0,0-7.27-11.72h0c-2.56-3.22-6.14-7.39-8.94-10.41l-5-4.66-5.38-4.28-5.71-3.85-6-3.41-6.29-3-6.54-2.46-6.77-2-7-1.43L96.72.3,89.39,0a90,90,0,0,0-14.5,1.17"/><path class="cls-6" d="M74.89,1.17A88.52,88.52,0,0,0,61.14,4.56,87.49,87.49,0,0,0,48.31,10,89,89,0,0,0,36.6,17.24,90,90,0,0,0,17.25,36.59,89.1,89.1,0,0,0,0,89.39a90.07,90.07,0,0,0,1.17,14.5,89.16,89.16,0,0,0,16.08,38.29A89.62,89.62,0,0,0,36.6,161.52,89,89,0,0,0,74.89,177.6a90,90,0,0,0,14.5,1.17l7.33-.3,7.17-.87,7-1.43,6.77-2,6.54-2.47,1.16-.49-3.08,1.27c-61.18,21.83-94.95-38.09-68.19-91.74C83.41,22,158.5,14.78,175.81,69.16a69.88,69.88,0,0,1,3,21.58c0-.45,0-.9,0-1.35a90,90,0,0,0-1.17-14.5,88.65,88.65,0,0,0-3.39-13.76h0c-1.48-3.91-3.65-9-5.42-12.82a90.23,90.23,0,0,0-7.27-11.72h0c-2.56-3.22-6.14-7.39-8.94-10.41l-5-4.66-5.38-4.28-5.71-3.85-6-3.41-6.29-3-6.54-2.46-6.77-2-7-1.43L96.72.3,89.39,0a90,90,0,0,0-14.5,1.17"/><path class="cls-7" d="M74.89,1.17A88.52,88.52,0,0,0,61.14,4.56,87.49,87.49,0,0,0,48.31,10,89,89,0,0,0,36.6,17.24,90,90,0,0,0,17.25,36.59,89.1,89.1,0,0,0,0,89.39a90.07,90.07,0,0,0,1.17,14.5,89.16,89.16,0,0,0,16.08,38.29A89.62,89.62,0,0,0,36.6,161.52,89,89,0,0,0,74.89,177.6a90,90,0,0,0,14.5,1.17l7.33-.3,7.17-.87,7-1.43,3.92-1.06-.31.09C52,191.91,22.69,124.91,53.94,72.4c31.52-53,106.37-62.89,122.63-2.24.85,3.17,1.67,9.35,1.67,9.41l-.63-4.68a88.65,88.65,0,0,0-3.39-13.76h0c-1.48-3.91-3.65-9-5.42-12.82a90.23,90.23,0,0,0-7.27-11.72h0c-2.56-3.22-6.14-7.39-8.94-10.41l-5-4.66-5.38-4.28-5.71-3.85-6-3.41-6.29-3-6.54-2.46-6.77-2-7-1.43L96.72.3,89.39,0a90,90,0,0,0-14.5,1.17"/><path class="cls-8" d="M74.89,1.17A88.52,88.52,0,0,0,61.14,4.56,87.49,87.49,0,0,0,48.31,10,89,89,0,0,0,36.6,17.24,90,90,0,0,0,17.25,36.59,89.1,89.1,0,0,0,0,89.39a90.07,90.07,0,0,0,1.17,14.5,89.16,89.16,0,0,0,16.08,38.29A89.62,89.62,0,0,0,36.6,161.52,89,89,0,0,0,74.89,177.6a90,90,0,0,0,14.5,1.17l7.33-.3,7.17-.87.7-.12C45.92,186.69,15.94,120.35,53.67,64.8,88.06,14.18,159.92,7.74,176.49,69.23l-1.86-6.82-.41-1.28-2.47-6.54-2.95-6.28a90.23,90.23,0,0,0-7.27-11.72h0c-2.56-3.22-6.14-7.39-8.94-10.41l-5-4.66-5.38-4.28-5.71-3.85-6-3.41-6.29-3-6.54-2.46-6.77-2-7-1.43L96.72.3,89.39,0a90,90,0,0,0-14.5,1.17"/><path class="cls-9" d="M74.89,1.17A88.52,88.52,0,0,0,61.14,4.56,87.49,87.49,0,0,0,48.31,10,89,89,0,0,0,36.6,17.24,90,90,0,0,0,17.25,36.59,89.1,89.1,0,0,0,0,89.39a90.07,90.07,0,0,0,1.17,14.5,89.16,89.16,0,0,0,16.08,38.29A89.62,89.62,0,0,0,36.6,161.52,89,89,0,0,0,74.89,177.6a90,90,0,0,0,14.5,1.17l3.54-.07-.68,0C31.08,180.23,11.46,100.24,60.45,49c35.27-36.88,93.54-40.7,113,9.86l-2.64-6.46-2-4.12a90.23,90.23,0,0,0-7.27-11.72h0c-2.56-3.22-6.14-7.39-8.94-10.41l-5-4.66-5.38-4.28-5.71-3.85-6-3.41-6.29-3-6.54-2.46-6.77-2-7-1.43L96.72.3,89.39,0a90,90,0,0,0-14.5,1.17"/><path class="cls-10" d="M74.89,1.17A88.52,88.52,0,0,0,61.14,4.56,87.49,87.49,0,0,0,48.31,10,89,89,0,0,0,36.6,17.24,90,90,0,0,0,17.25,36.59,89.1,89.1,0,0,0,0,89.39a90.07,90.07,0,0,0,1.17,14.5,89.16,89.16,0,0,0,16.08,38.29A89.62,89.62,0,0,0,36.6,161.52,89,89,0,0,0,74.89,177.6q3.63.59,7.36.89h0C18.6,172.78,8.28,84.31,65.77,37.2c32.45-26.59,81.07-29.89,103,11.13a90.26,90.26,0,0,0-7.28-11.74h0c-2.56-3.22-6.14-7.39-8.94-10.41l-5-4.66-5.38-4.28-5.71-3.85-6-3.41-6.29-3-6.54-2.46-6.77-2-7-1.43L96.72.3,89.39,0a90,90,0,0,0-14.5,1.17"/><path class="cls-11" d="M74.89,1.17A88.52,88.52,0,0,0,61.14,4.56,87.49,87.49,0,0,0,48.31,10,89,89,0,0,0,36.6,17.24,90,90,0,0,0,17.25,36.59,89.1,89.1,0,0,0,0,89.39a90.07,90.07,0,0,0,1.17,14.5,89.16,89.16,0,0,0,16.08,38.29A89.62,89.62,0,0,0,36.6,161.52a89,89,0,0,0,24.54,12.69q3.09,1,6.3,1.84h0C3.66,158.11,8.54,62.52,75.24,23.39,100.72,8.44,138.53,6.1,161.31,36.3L157,30.93l-4.43-4.75-5-4.66-5.38-4.28-5.71-3.85-6-3.41-6.29-3-6.54-2.46-6.77-2-7-1.43L96.72.3,89.39,0a90,90,0,0,0-14.5,1.17"/><path class="cls-12" d="M60.16,143.47C80,192.09,147.9,179.93,172,123.47c21.55-50.53-16.62-96-64.81-77.22-42.8,16.67-60.12,65.07-47,97.22"/><path class="cls-13" d="M63.75,143.47c19.48,46.6,85.07,34.44,108-20,19.22-45.7-13.5-94.17-64.13-73.55-41.78,17-56.64,63-43.85,93.56"/><path class="cls-14" d="M65.1,136.81c13.76,48.52,75.27,44.94,102.84-6C190,90.05,166.73,38.77,118.16,50.1c-34.46,8-64.72,45.62-53.06,86.71"/><path class="cls-15" d="M68.46,136.81c14.81,46.79,72.11,43.33,98.88-6,21.55-39.68-1.2-89-48.64-77.48-29.85,7.26-63.91,40.29-50.24,83.46"/><path class="cls-16" d="M69.88,129.74c11.4,51,67.63,48.34,93.24,7.07,25.09-40.42,5.9-90.46-43.93-80.16-34,7-56.59,40.5-49.31,73.09"/><path class="cls-17" d="M73.1,129.74c12.87,51.44,67.14,41.62,89,7.07,26.47-41.8,1.82-86.64-42.54-77.37C86,66.45,65.16,98,73.1,129.74"/><path class="cls-18" d="M74.32,122.28c5.94,42.86,53.74,59.06,85.63,15.81,27.88-37.81,3.18-84.58-40-75.82C98.83,66.54,69.3,86,74.32,122.28"/><path class="cls-19" d="M76.45,122.28c8.11,44.14,57.73,52.83,83,14.53,24.85-37.72,2.86-78-39.21-71.9-25,3.65-49.12,28.11-43.74,57.37"/><path class="cls-20" d="M78.6,122.28c8.51,37.05,53.12,51.54,78.94,14.53,26.06-37.34-.67-74.6-37.14-69.79C93.21,70.6,72.9,97.46,78.6,122.28"/><path class="cls-21" d="M80.76,122.28c10.29,37.28,58.5,47.88,79.09,7.46,21.05-41.33-19.73-70.17-50.55-57.63-21.36,8.7-33.9,30.74-28.54,50.17"/><path class="cls-22" d="M82.94,122.28c10.26,33.45,55.07,43.29,74.58,7.46C177,94.07,141.73,61.58,109.38,73.79c-15.52,5.86-33.34,26-26.44,48.49"/><path class="cls-23" d="M84.88,121.28c5.16,24.07,49.44,43.85,69.67,8.46,19.43-34-14.14-66.11-45.11-54.34-1.3.49-31.73,12.47-24.56,45.88"/><path class="cls-24" d="M86.76,122.28c9.19,25.52,51,35.9,67.36,1.73,13-27.11-16.22-57.86-44.63-47-18.91,7.23-29.11,27.54-22.73,45.27"/><path class="cls-25" d="M88.45,122.28c11.22,27,51.83,27,63,0,11-26.6-15.24-53.93-41.88-43.65-18.33,7.08-28,27.07-21.09,43.65"/><path class="cls-26" d="M90.15,122.28c11.14,23.68,46.62,23.68,57.53,0,11.95-25.92-11.91-52.23-38.1-42C109.45,80.32,96.05,86,90.5,98a30.3,30.3,0,0,0-.35,24.28"/><path class="cls-27" d="M91.86,122.28c12,23.66,50,18.34,55.76-7.8,3.62-16.47-5.71-24.75-6.11-25.09-8.26-7.13-8.26-7.13-14.41-8.61-1.76-.43-4.08-1.41-5.89-1.31a39.35,39.35,0,0,0-11.6,2.22C109.48,81.75,96.14,88.44,92,98c-3.82,8.72-3.86,16.89-.11,24.28"/><path class="cls-28" d="M90.7,114.48c4.33,23.83,37.27,28.86,51.09,7.8,3.26-5,9.54-18.14-2.54-32.89C133.1,81.89,119.54,79,109.63,83,100.38,86.81,88,99.42,90.7,114.48"/><path class="cls-29" d="M92.1,114.48c1.57,7.74,3.59,9.33,11.1,15.26,3.43,2.7,3.43,2.7,13.9,4.45,3.08.52,7.4-.88,10.14-2.39a40.31,40.31,0,0,0,11.5-9.52c5.63-7.4,6.85-16.25,3.34-24.28-3.14-7.2-4.15-8-9.74-12.18-2.77-2.08-7.57-3.26-11-3.48s-8.5.41-11.66,2c-5.62,2.88-8.87,6.45-12.31,10.23-3.15,3.47-6.85,11.92-5.24,19.88"/><path class="cls-30" d="M93.5,114.48s3.2,7.51,3.45,7.8c.62.73,10.08,8.42,10.43,8.49,9.83,1.78,9.83,1.78,15.85,0a27.59,27.59,0,0,0,13.33-8.52c5.91-7.33,6.07-18.81,3.92-24.28,0-.06-3.17-6.62-8.11-10.32a23.94,23.94,0,0,0-11-4c-3.54-.3-8.55.34-11.67,2-4.82,2.61-8.15,6.29-12.37,11-.06.07-5.93,8.22-3.8,17.82"/><path class="cls-31" d="M94.88,114.48a20.43,20.43,0,0,0,4.08,7.8c2.16,2.5,5.37,6.24,8.61,6.88,3,.6,7.09,2.31,10.05,1.55,8.63-2.22,12.21-3.14,16.72-8.43A24.59,24.59,0,0,0,138.84,98a20.41,20.41,0,0,0-6.46-8.42c-.57-.42-11-4.56-11-4.56-3.54-.36-8.58.33-11.69,2C107,88.53,103,92.21,97.83,98c0,.06-4.91,7.7-3,16.48"/><path class="cls-32" d="M96.27,114.48c.67,3,3.21,7.72,11.46,13.25,2.6,1.75,7.21,1.39,10.35,1.39,3.47,0,8-2.11,10.77-4.21a26.2,26.2,0,0,0,8.45-10.43c.88-2.18,4.81-13.54-4.94-22.74-3.18-3-10.91-5.37-11-5.38-3.53-.52-8.41.7-11.71,2.06C108.22,89,99.46,97.93,99.42,98c-3,5.79-4.78,9.29-3.15,16.48"/><path class="cls-33" d="M97.75,114.48a26.9,26.9,0,0,0,10,11.7c2.7,1.73,7.37,1.48,10.57,1.48,3.62,0,8.09-2.83,11-5,1.07-.81,6.33-8.11,6.35-8.16,3.2-7.06,1.8-15.72-3.33-20.59,0,0-7.08-5.49-10.92-6.18-.1,0-11.6,2.05-11.72,2.11-3.18,1.63-7.12,5-8.68,8.18-4.09,8.46-5.19,10.74-3.25,16.48"/><path class="cls-34" d="M99.36,114.48c0,.07,4,7.52,8.67,10.34,2.72,1.66,7.35,1.37,10.54,1.37.1,0,11.46-3.44,15.4-11.68,5.19-10.89-1.64-18.41-1.71-18.48s-9.8-6.74-10.85-7c0,0-11.67,2.21-11.73,2.24-4.6,2.35-13.9,13.38-10.32,23.17"/><path class="cls-35" d="M101,114.48c0,.06,5.42,7.84,7.22,8.87,2.79,1.6,7.42,1.36,10.64,1.36.38,0,10.93-5,13.48-10.23,2-4.12,3.73-7.68-.27-16.48-1.61-3.54-6.81-6.65-10.62-7.45-3.5-.73-8.44.82-11.73,2.24-2.09.9-4.06,3.47-5.54,5.21-.06.07-6.46,8.1-3.18,16.48"/><path class="cls-36" d="M102.54,114.48c1.06,2.58,3.3,6,5.77,7.3.13.07,10.35,1.43,10.72,1.43,1.87,0,11.47-8.64,11.53-8.73.39-.57,3.77-5.7,1.33-11.66-.59-1.45-.9-3.7-2-4.82-2.18-2.23-5.47-5.29-8.51-5.92-3.5-.73-8.38.93-11.74,2.19-1.52.57-2.91,2.48-4,3.73-.28.32-6.63,8-3.15,16.48"/><path class="cls-37" d="M104.12,114.48c.81,2,2.43,4.63,4.34,5.53,3,1.39,7.63,2.41,10.8,1.61,3.4-.87,7.11-4.38,9.28-7.14,1.59-2,2.51-5.55,2.7-8.11.21-2.71-1.83-6.22-3.5-8.37a12.71,12.71,0,0,0-6.37-4.4c-3.5-.73-8.32,1.08-11.74,2.14-.94.29-1.77,1.49-2.4,2.26a21.06,21.06,0,0,0-4.16,8.37,16.21,16.21,0,0,0,1.05,8.11"/><path class="cls-38" d="M105.69,114.48c.55,1.31,1.59,3.22,2.91,3.74,3.08,1.2,7.69,2.46,10.9,1.64,2.56-.65,5.42-3.25,7-5.38a17.59,17.59,0,0,0,2.92-8.11c.2-2.76-2.25-6.12-3.86-8.37a8,8,0,0,0-4.21-2.89c-3.5-.75-8.25,1.29-11.73,2.09-.34.08-.63.53-.85.8a21.43,21.43,0,0,0-4.24,8.37,16,16,0,0,0,1.17,8.11"/><path class="cls-39" d="M107.24,114.48c.29.67.8,1.72,1.5,1.93,3.2.92,7.75,2.51,11,1.68,5.88-1.5,7.83-11.62,7.83-11.72-.15-2.81-2.7-6-4.22-8.37a4.49,4.49,0,0,0-2-1.39c-.94-.36-10.82,2-11.74,2.76a13,13,0,0,0-3.61,7,16.88,16.88,0,0,0,1.29,8.11"/><path class="cls-40" d="M108.79,114.48c.16.38,11,1.85,11.14,1.83a4.4,4.4,0,0,0,2.37-1.83c1.31-2.28,3.51-5.48,3.36-8.11s-1.81-7.14-4.41-8.12c-3.5-1.31-9.5,1.13-11.78,4.1-.83,1.08-2,2.66-2.09,4a20,20,0,0,0,1.41,8.11"/><path class="cls-41" d="M109.21,108.68c.06.08,10.71,5.93,10.91,5.82,2.36-1.26,3.76-5.46,3.64-8.13-.08-1.65-1.1-4.24-2.65-4.85-3.44-1.37-8.57,1.86-11.75,3.77-.87.53-.75,2.57-.15,3.39"/><path class="cls-42" d="M120.62,109.17c.87-.29,1.25-1.89,1.2-2.8a2,2,0,0,0-.88-1.63c-1.51-.61-3.62,1.14-5.17,1.63,1.45.84,3.26,3.33,4.85,2.8"/></g></g></g><g class="cls-2"><g class="cls-43"><g class="cls-2"><path class="cls-10" d="M89.39,178.77a90,90,0,0,1-14.5-1.17A89,89,0,0,1,36.6,161.52a89.62,89.62,0,0,1-19.35-19.34A89,89,0,0,1,1.17,103.89a90.44,90.44,0,0,1,0-29,89.14,89.14,0,0,1,16.08-38.3A90,90,0,0,1,36.6,17.24,89,89,0,0,1,48.31,10,87.49,87.49,0,0,1,61.14,4.56,88.52,88.52,0,0,1,74.89,1.17a89.39,89.39,0,1,1,14.5,177.6"/><path class="cls-10" d="M178.76,89.39A89.33,89.33,0,0,1,36.6,161.52a89.59,89.59,0,0,1-26.26-30.37h0c37.72,64.07,122.87,17.77,137.32-41.76C162.39,28.75,124.25,2.56,96.76.3a89.39,89.39,0,0,1,82,89.09"/><path class="cls-11" d="M178.76,89.39A89.33,89.33,0,0,1,36.6,161.52a89.72,89.72,0,0,1-18.45-18.13h0c47.44,56.9,131.4-2.46,137.85-62.61s-32.63-75-44.76-78.09a89.42,89.42,0,0,1,67.52,86.7"/><path class="cls-9" d="M120.33,9.6C174.47,47.52,140,145.27,68.41,156.91c-22.8,3.71-51.06-6.07-62.79-36.27-.37-1-.73-2-1.06-3a88.52,88.52,0,0,1-3.39-13.75,90.44,90.44,0,0,1,0-29,89.14,89.14,0,0,1,16.08-38.3A90,90,0,0,1,36.6,17.24,89,89,0,0,1,48.31,10,87.49,87.49,0,0,1,61.14,4.56,88.52,88.52,0,0,1,74.89,1.17,90,90,0,0,1,86,.06h0c17.89-.57,30,6.49,34.35,9.54"/><path class="cls-8" d="M130.53,23.39C170.47,82.55,104.73,164.15,45.68,153c-12.43-2.35-34.57-11-43.23-42.7q-.75-3.15-1.28-6.38a90.44,90.44,0,0,1,0-29,89.14,89.14,0,0,1,16.08-38.3A90,90,0,0,1,36.6,17.24,89,89,0,0,1,48.31,10,88.81,88.81,0,0,1,74.2,1.29h0c34.74-5.46,51.9,15.54,56.33,22.1"/><path class="cls-7" d="M130.36,29.1C160.44,86.87,95.1,168.58,35.88,147.24,16.46,140.24,3.27,122.52.6,99.82a90.65,90.65,0,0,1,.57-24.93,89.14,89.14,0,0,1,16.08-38.3A90,90,0,0,1,36.6,17.24,89,89,0,0,1,48.31,10,87.49,87.49,0,0,1,61.14,4.56c.91-.31,1.84-.6,2.76-.88h0c44.41-12,63.15,19.07,66.46,25.42"/><path class="cls-6" d="M129.4,35.3c21.68,57.23-41.74,129-95.57,108.17C12.57,135.24-.08,114.76,0,88.7A91,91,0,0,1,1.17,74.89a89.14,89.14,0,0,1,16.08-38.3A90,90,0,0,1,36.6,17.24,89,89,0,0,1,48.31,10q2.47-1.29,5-2.41h0c38.94-16.15,66.73,3,76.07,27.73"/><path class="cls-5" d="M128,42c15.37,61-57,125.62-104.66,93.37C13.17,128.43-3.28,111.54,1,75.9c.05-.34.11-.68.16-1a89.14,89.14,0,0,1,16.08-38.3A90,90,0,0,1,36.6,17.24q2.81-2.05,5.78-3.9h0C89.16-13.39,121.14,14.62,128,42"/><path class="cls-4" d="M125.7,49c7.79,60.52-59.53,113.45-104.39,82.08C16,127.37-10,106.33,5.12,59.49a89.58,89.58,0,0,1,12.13-22.9,90.46,90.46,0,0,1,8.93-10.41c.9-.9,1.83-1.79,2.77-2.65h0C77-17.27,120.79,10.87,125.7,49"/><path class="cls-12" d="M122.24,49c8,58.38-61.08,110.81-102.61,77.91C-22.26,93.77,11.31,10.57,68.83,5c30.71-3,50.11,19.9,53.41,44"/><path class="cls-13" d="M118.73,49c8.59,61.6-65.09,104.91-100.84,73.49C-21.65,87.77,13.93,8.36,70,6.13,99.38,5,115.64,26.84,118.73,49"/><path class="cls-14" d="M115.93,56.49c2.51,58.56-67.62,92.57-99.45,61.57C-19.18,83.35,15,10.07,67.91,7.62c27-1.25,46.73,18.85,48,48.87"/><path class="cls-15" d="M113,56.49c3.07,48.43-58.13,93.58-96.75,58C-14.38,86.23,12.53,12,65.84,9.26,96.09,7.69,111.5,32.65,113,56.49"/><path class="cls-16" d="M110.24,64.29c-3.1,53.92-68.92,76.75-96,44.34-28.68-34.28,8-100,54.47-97.6C99,12.57,111.42,43.72,110.24,64.29"/><path class="cls-17" d="M107.35,64.29c-3,54.95-67.28,70-91.69,42.08C-12.52,74.19,22.55,10.47,67.07,13c30.34,1.71,41.2,34.26,40.28,51.31"/><path class="cls-18" d="M104.42,72.4C97.74,116.11,33.51,134.07,12.78,98c-20.54-35.73,18.73-91,58.36-82.1,22,4.92,37.21,30.78,33.28,56.47"/><path class="cls-19" d="M102.56,72.4C95.89,113.17,37.65,130.39,16,98-8.71,61,34.66,9.16,69.92,18.42c20.81,5.47,36.36,31.2,32.64,54"/><path class="cls-20" d="M100.69,72.4C94.18,109.78,43.41,125.81,19.6,98S25,17.19,62.22,20.12c22.37,1.75,42.5,29.12,38.47,52.28"/><path class="cls-21" d="M98.81,72.4c-7,38.11-58.35,50.85-79.58,19.76C-1.35,62,32.92,13.75,67.48,24.2,85.1,29.53,102.62,51.74,98.8,72.4"/><path class="cls-22" d="M96.91,72.4c-7.75,39.87-57.65,45.53-75.82,17-18.45-29,12.83-71.9,45.24-62,19.43,5.93,34,27.39,30.58,45"/><path class="cls-23" d="M95,72.4c-7.25,37.45-52.15,43.2-70.08,17C6,61.68,33.15,22.05,65.3,30.49,84.81,35.61,98.41,54.81,95,72.4"/><path class="cls-24" d="M93.42,72.4c-4.54,31.4-47,42.52-65,17C8.21,60.56,35.64,26.63,64.4,33.5c16.13,3.85,32.09,17.66,29,38.9"/><path class="cls-25" d="M92.11,72.4c-4.36,29.41-44.06,40.52-60.69,17C14,64.7,33.85,31.91,63.64,36.24,77,38.18,95.28,51,92.11,72.4"/><path class="cls-26" d="M90.79,72.4c-3.45,22.75-37.44,41-56.28,17C17.71,68,35.85,35.63,63.05,38.54,76.62,40,93.8,52.56,90.79,72.4"/><path class="cls-27" d="M89.47,72.4c-3.28,21.12-33.72,38.35-52.2,17-11.78-13.62-5.45-28.63-3.22-32.9,4.71-9.07,18-16.37,28.44-15.6a30.56,30.56,0,0,1,9.48,2C72,43,81.6,49.23,82.26,50c2.47,2.89,9,10.57,7.21,22.41"/><path class="cls-28" d="M85.35,80.78c-.89,1.74-9.2,17-27.84,17-3.43,0-8.27-.94-11-3-7.37-5.4-9.13-6.68-12.16-14C32.33,76,29,63.5,41.23,51.72c13.58-13.1,27.86-8.22,30.59-7.11.1,0,11.36,6.42,13.4,11.88,3.19,8.52,5.3,14.15.13,24.29"/><path class="cls-29" d="M83.89,80.78c-2.44,4.7-9.9,15.65-26.42,15.65a20.71,20.71,0,0,1-11-3.48c-4.09-3.08-7.32-5.52-9.74-12.17C31.17,65.54,39.9,56.66,40,56.57c8.84-8.73,8.84-8.73,11.55-9.61C56.63,45.31,63.6,43,71.6,46.29S93.44,62.37,83.89,80.78"/><path class="cls-30" d="M82.44,80.78A46.08,46.08,0,0,1,69.11,93.06c-3.09,1.77-8.12,2-11.68,2s-8.2-1.9-11-4c-4.79-3.58-8.08-10.25-8.11-10.31-3.45-8.86,1.13-21.53,3.91-24.29,6.65-6.58,7.15-6.73,15.49-9.15A23.17,23.17,0,0,1,71.39,48c.55.23,9.82,7.76,10.44,8.49.25.29,3.43,7.74,3.45,7.8,2.12,6.29-1.64,14.21-2.84,16.49"/><path class="cls-31" d="M81.5,79.53c-1.2,2.94-9.08,10.22-12.4,12.18C66,93.52,61,93.65,57.41,93.76c0,0-10.34-4.06-11-4.56a23.14,23.14,0,0,1-6.46-8.42c-3-6.85-.7-19.1,4.5-24.29C48.69,52.25,50.12,50.83,61,48c3-.77,7.36.34,10.21,1.58,3,1.31,6.44,4.38,8.6,6.88a26,26,0,0,1,4.08,7.8c1.74,5.07.45,8.26-2.39,15.24"/><path class="cls-32" d="M81.54,75.89c-.61,1.49-1.14,3.67-2.19,4.89,0,.06-7.42,7.63-10.26,9.58s-8.16,1.62-11.7,2c-.1,0-11.72-2.57-15.79-11.63-2.38-5.29-3-16.12,5.11-24.29,4.66-4.71,13.9-6.82,14-6.84,3.06-.68,7.47.15,10.35,1.39,2.48,1.07,8.07,5.21,11.46,13.25.58,1.38,1.65,5.26-1,11.6"/><path class="cls-33" d="M77.77,80.78c-2.07,2.91-5.48,6.57-8.68,8.18-.12.06-11.62,2.13-11.71,2.1S41.33,87,41.38,72.4a20.51,20.51,0,0,1,1.74-8.11c0-.07,5.71-7.86,6.35-8.16,3.28-1.53,7.36-5.06,11-5A36.37,36.37,0,0,1,70.9,52.49c1.75.6,3.55,2.53,4.8,3.9,2.7,3,10.93,12,2.07,24.39"/><path class="cls-34" d="M76.2,80.78c-1.7,2.38-4.46,5.43-7.1,6.69-.07,0-11.69,2.25-11.73,2.24-1.37-.34-10.81-6.91-10.85-7-3.21-3.82-3.65-10.28-3.65-10.34,0-10.66,8.86-15.86,9-15.91,2.47-1.27,5.61-3.91,8.38-3.91A42.65,42.65,0,0,1,70.75,54c1.16.33,2.29,1.66,3.11,2.54,3.34,3.59,11.17,12,2.34,24.29"/><path class="cls-35" d="M74.64,80.78c-1.33,1.85-3.44,4.3-5.53,5.2-3.29,1.42-8.23,3-11.74,2.24-3.8-.79-8.14-4.44-10.61-7.44-.23-.28-2.36-8.32-2.37-8.38-.22-2.71.34-9.68,10.36-15.91,1.46-.91,3.49-2.31,5.22-2.43,3.21-.22,8-.42,10.64,1.36s7.18,8.81,7.21,8.87a15.31,15.31,0,0,1,.79,8.11,23.09,23.09,0,0,1-4,8.38"/><path class="cls-36" d="M73.09,80.78c-1,1.32-2.44,3.15-4,3.73-3.35,1.26-8.23,2.92-11.74,2.19-3-.64-6.56-3.5-8.5-5.92a15,15,0,0,1-3-8.38c0-.24,2.18-8,2.29-8.11,2.2-3,6.38-5.85,9.51-7.8a4.34,4.34,0,0,1,2-.93c.62,0,10.64,1.36,10.73,1.43a22.35,22.35,0,0,1,5.77,7.3,16.24,16.24,0,0,1,.91,8.11c-.46,2.75-2.41,6.12-4.06,8.38"/><path class="cls-37" d="M71.55,80.78A6.07,6.07,0,0,1,69.14,83c-3.41,1.06-8.23,2.88-11.73,2.14-7.69-1.64-9.88-12.67-9.88-12.78.2-2.56,1.12-6.09,2.71-8.11,2.17-2.76,5.87-6.27,9.28-7.14,3.17-.8,7.83.22,10.8,1.61,1.9.9,3.38,3.65,4.34,5.53a14.35,14.35,0,0,1,1,8.11c-.52,2.76-2.49,6.12-4.15,8.38"/><path class="cls-38" d="M70,80.78c-.2.28-.5.71-.84.79-3.49.8-8.42,3.44-11.73,2.1a10.56,10.56,0,0,1-4.22-2.89c-1.61-2.25-3.75-5.61-3.85-8.38-.1-2.58,1.39-6,2.92-8.11s4.42-4.73,7-5.38c3.2-.81,7.81.45,10.89,1.65,1.33.51,2.29,2.46,2.92,3.73a14.78,14.78,0,0,1,1.17,8.11c-.52,2.77-2.57,6.12-4.25,8.38"/><path class="cls-39" d="M69.22,79.41c-.92.8-10.8,3.12-11.75,2.75a4.58,4.58,0,0,1-2-1.38c-1.51-2.37-4.09-5.57-4.21-8.38-.06-1.29,2.71-10.41,7.83-11.72,3.23-.83,7.78.76,11,1.69.7.2,1.14,1.28,1.49,1.92a14.51,14.51,0,0,1,1.29,8.11,13,13,0,0,1-3.6,7"/><path class="cls-40" d="M69.3,76.43c-2.83,2.44-8.28,5.42-11.77,4.09-2.6-1-4.29-5.35-4.42-8.12s2-5.83,3.37-8.11a4.45,4.45,0,0,1,2.37-1.83c.08,0,10.92,1.54,11.14,1.83,1.48,2,1.55,5.65,1.41,8.11a6.64,6.64,0,0,1-2.1,4"/><path class="cls-41" d="M69.41,73.48c-2.84,2.38-8.31,5.15-11.75,3.78-1.54-.61-2.57-3.2-2.64-4.86-.11-2.66,1.36-6.67,3.6-8.11.19-.12,10.88,5.72,10.95,5.81.6.82.62,2.73-.16,3.38"/><path class="cls-42" d="M57.84,74A2,2,0,0,1,57,72.4c0-.91.34-2.51,1.21-2.79,1.59-.53,3.39,2,4.85,2.79-1.55.49-3.66,2.24-5.17,1.63"/></g><path class="cls-44" d="M27.74,126.77c-7.4-22.52-8.14-43.89-2.32-67.27H99.7c.94,23.37.82,44.75-.38,67.27H27.74M15.45,112.61c-5-23.87-2.73-45,7-66.67H85.22l-.12,4.25c-60.46,0-60.46,0-61.71,1.16C20.29,54.22,11,80.8,17.9,112.4c-.31.21-.31.21-2.45.21M47.54,37.44c-22.64,0-22.64,0-23.21.31-1.18.63-3.94,2.11-10.11,17.58-11.45,28.74-3.83,61.72,0,65.81,1.06,1.16,1.57,1.16,4.88,1.14,1.43,0,1.43,0,2.87,3.86,2,5.34,3.54,8.88,6.62,9.37.4.07,73.24.29,75.25-.09,3.93-.74,5.4-1,6.54-32.32,1.93-52.91,1-52.91-15.59-52.91-.35-10.71-.38-11.58-3.56-12.44-1.16-.31-1.16-.31-43.66-.31"/><path class="cls-44" d="M70.79,78.46C68,78.9,56.71,96.83,53.3,102.32c-.59,1-1.33,1.93-2.23,1.84s-1.34-.15-7.41-9.46c-.92-1.42-2-3-3-2.55a2.85,2.85,0,0,0-.65.49c-1.7,1.76-9.65,19.06-10.89,28.73H94.92c.3-11.38.3-11.38-.17-12.21-.17-.31-21.57-30.7-24-30.7"/><path class="cls-44" d="M38.73,65.18c-7.57.49-10.07,12.4-5.16,16.46S45.72,79.22,44.7,71.5c-.56-4.25-3.43-6.39-6-6.32"/></g></g><g class="cls-2"><g class="cls-45"><g class="cls-2"><path class="cls-10" d="M178.78,89.39c-.4,9.71-.8,19.76-7,34.79a89.7,89.7,0,0,1-47.57,47.56c-15,6.23-25.08,6.63-34.79,7A89.39,89.39,0,0,0,89.39,0c10.36.42,23.26.94,41.08,10a88.36,88.36,0,0,1,17.09,11.54c6.26,5.36,9,8.81,14,15.07a90.23,90.23,0,0,1,7.27,11.72c1.77,3.78,3.94,8.91,5.42,12.82a88.65,88.65,0,0,1,3.39,13.76,90,90,0,0,1,1.17,14.5"/><path class="cls-10" d="M103.89,1.17c4.16.85,9.67,2.21,13.75,3.39L124.18,7l6.29,3,6,3.41,5.71,3.85,5.38,4.28,5,4.66,4.67,5,4.27,5.38a90.23,90.23,0,0,1,7.27,11.72h0c1.77,3.78,3.94,8.91,5.42,12.82a88.65,88.65,0,0,1,3.39,13.76,90,90,0,0,1,1.17,14.5h0c-.52,12.9-1,16.07-4.56,28.25l-2.47,6.54-2.95,6.28-3.42,6-3.85,5.71-4.27,5.38-4.67,5-5,4.66-5.38,4.27-5.71,3.86-6,3.41-6.29,3a99.47,99.47,0,0,1-20.29,5.86l-7.17.87-7.33.3A89.39,89.39,0,0,0,96.76.3l7,.85.15,0"/><path class="cls-11" d="M117.64,4.56A131,131,0,0,1,130.47,10l6,3.41,5.71,3.85,5.38,4.28,5,4.66,4.67,5,4.27,5.38a90.23,90.23,0,0,1,7.27,11.72h0c1.77,3.78,3.94,8.91,5.42,12.82a88.65,88.65,0,0,1,3.39,13.76,90,90,0,0,1,1.17,14.5h0c-.52,12.9-1,16.07-4.56,28.25l-2.47,6.54-2.95,6.28-3.42,6-3.85,5.71-4.27,5.38-4.67,5-5,4.66-5.38,4.27-5.71,3.86-6,3.41-6.29,3a99.47,99.47,0,0,1-20.29,5.86l-7.17.87-7.33.3A89.4,89.4,0,0,0,111.24,2.69h0l-.36-.09c2,.59,4.76,1.29,6.76,2"/></g></g></g></g></g></g></svg>