<svg xmlns="http://www.w3.org/2000/svg" xmlns:xlink="http://www.w3.org/1999/xlink" viewBox="0 0 179.11 179.09"><defs><style>.cls-1{fill:none;}.cls-2{isolation:isolate;}.cls-3{clip-path:url(#clip-path);}.cls-4{fill:#00a54d;}.cls-5{fill:#00a14b;}.cls-6{fill:#009c49;}.cls-7{fill:#009847;}.cls-8{fill:#009345;}.cls-9{fill:#008f43;}.cls-10{fill:#008a41;}.cls-11{fill:#00863f;}.cls-12{fill:#00a94f;}.cls-13{fill:#00ae51;}.cls-14{fill:#00b253;}.cls-15{fill:#00b755;}.cls-16{fill:#00bb57;}.cls-17{fill:#00bf59;}.cls-18{fill:#00c45b;}.cls-19{fill:#00c85d;}.cls-20{fill:#00cd60;}.cls-21{fill:#00d162;}.cls-22{fill:#00d664;}.cls-23{fill:#00da66;}.cls-24{fill:#00de68;}.cls-25{fill:#00e36a;}.cls-26{fill:#00e76c;}.cls-27{fill:#00ec6e;}.cls-28{fill:#00f070;}.cls-29{fill:#1ff281;}.cls-30{fill:#2bf388;}.cls-31{fill:#35f38e;}.cls-32{fill:#3df492;}.cls-33{fill:#44f496;}.cls-34{fill:#4bf49a;}.cls-35{fill:#51f59d;}.cls-36{fill:#57f5a1;}.cls-37{fill:#5cf5a3;}.cls-38{fill:#61f6a6;}.cls-39{fill:#65f6a9;}.cls-40{fill:#6af6ab;}.cls-41{fill:#6ef6ae;}.cls-42{fill:#72f7b0;}.cls-43{clip-path:url(#clip-path-2);}.cls-44{fill:#fff;}.cls-45{clip-path:url(#clip-path-3);}</style><clipPath id="clip-path"><path class="cls-1" d="M89.55,179.09A90.13,90.13,0,0,1,75,177.92a88.61,88.61,0,0,1-13.78-3.39A91.16,91.16,0,0,1,48.4,169.1a90.12,90.12,0,0,1-31.12-26.67A89.35,89.35,0,0,1,1.17,104.07a90.75,90.75,0,0,1,0-29,87.79,87.79,0,0,1,3.4-13.78A88.87,88.87,0,0,1,10,48.39a87.64,87.64,0,0,1,7.28-11.73A90,90,0,0,1,48.4,10,91.16,91.16,0,0,1,61.25,4.56,88.61,88.61,0,0,1,75,1.17,90.13,90.13,0,0,1,89.55,0a138.34,138.34,0,0,1,14.53,1.17,101.74,101.74,0,0,1,13.77,3.39A96.06,96.06,0,0,1,130.7,10a104.37,104.37,0,0,1,11.74,7.29,96.46,96.46,0,0,1,10.43,8.94,98.78,98.78,0,0,1,8.95,10.44,99.68,99.68,0,0,1,7.28,11.73,131.92,131.92,0,0,1,5.44,12.85A88.89,88.89,0,0,1,177.93,75c.53,4.34,1,10.15,1.17,14.52-.09,2.2,0,5.16-.3,7.35a135.76,135.76,0,0,1-2.3,14.17,65.73,65.73,0,0,1-2,6.78c-.75,2-1.66,4.62-2.48,6.56s-3,4.21-3,6.29a88.39,88.39,0,0,1-7.28,11.74c-1.28,1.61-2.93,3.82-4.28,5.39s-4.67,3-4.67,5a89.85,89.85,0,0,1-10.43,8.95,134.13,134.13,0,0,1-11.74,7.29,133.28,133.28,0,0,1-12.85,5.43,88.77,88.77,0,0,1-13.77,3.39C99.74,178.45,93.92,179,89.55,179.09Z"/></clipPath><clipPath id="clip-path-2"><path class="cls-1" d="M89.55,179.09A90.13,90.13,0,0,1,75,177.92a88.61,88.61,0,0,1-13.78-3.39A91.16,91.16,0,0,1,48.4,169.1a90.12,90.12,0,0,1-31.12-26.67A89.35,89.35,0,0,1,1.17,104.07a90.75,90.75,0,0,1,0-29,87.79,87.79,0,0,1,3.4-13.78A88.87,88.87,0,0,1,10,48.39a87.64,87.64,0,0,1,7.28-11.73A90,90,0,0,1,48.4,10,91.16,91.16,0,0,1,61.25,4.56,88.61,88.61,0,0,1,75,1.17,89.55,89.55,0,1,1,89.55,179.09Z"/></clipPath><clipPath id="clip-path-3"><path class="cls-1" d="M179.1,89.54A133.38,133.38,0,0,0,177.93,75a88.89,88.89,0,0,0-3.39-13.78,131.92,131.92,0,0,0-5.44-12.85,99.68,99.68,0,0,0-7.28-11.73,98.78,98.78,0,0,0-8.95-10.44,96.46,96.46,0,0,0-10.43-8.94A104.37,104.37,0,0,0,130.7,10a96.06,96.06,0,0,0-12.85-5.43,101.74,101.74,0,0,0-13.77-3.39A138.34,138.34,0,0,0,89.55,0a89.55,89.55,0,0,1,0,179.09c4.37-.18,10.19-.64,14.53-1.17a88.77,88.77,0,0,0,13.77-3.39,133.28,133.28,0,0,0,12.85-5.43,134.13,134.13,0,0,0,11.74-7.29,89.85,89.85,0,0,0,10.43-8.95c2.8-3,6.39-7.2,8.95-10.43a88.39,88.39,0,0,0,7.28-11.74c1.78-3.78,4-8.93,5.44-12.85a65.73,65.73,0,0,0,2-6.78A89.66,89.66,0,0,0,179.1,89.54Z"/></clipPath></defs><title>Recurso 24</title><g id="Capa_2" data-name="Capa 2"><g id="Capa_1-2" data-name="Capa 1"><g class="cls-2"><g class="cls-2"><g class="cls-3"><g class="cls-2"><path class="cls-4" d="M89.55,179.09c4.37-.18,10.19-.64,14.53-1.17a88.77,88.77,0,0,0,13.77-3.39c11.59-4.38,14.35-5.8,24.59-12.72a89.85,89.85,0,0,0,10.43-8.95c2.8-3,6.39-7.2,8.95-10.43a88.39,88.39,0,0,0,7.28-11.74c3.42-7.27,7-14.78,8.83-26.62,2-12.63,1.07-20.24,0-29a88.89,88.89,0,0,0-3.39-13.78c-3-8-5.6-14.84-12.72-24.58a89.78,89.78,0,0,0-44-32.1C105.9.66,98.69.37,89.55,0A90.13,90.13,0,0,0,75,1.17,88.61,88.61,0,0,0,61.25,4.56,91.16,91.16,0,0,0,48.4,10,89.82,89.82,0,0,0,17.28,36.66,87.64,87.64,0,0,0,10,48.39,88.87,88.87,0,0,0,4.57,61.24,87.79,87.79,0,0,0,1.17,75a90.75,90.75,0,0,0,0,29.05,89.42,89.42,0,0,0,16.11,38.36A90,90,0,0,0,48.4,169.1a91.16,91.16,0,0,0,12.85,5.43A88.61,88.61,0,0,0,75,177.92a90.13,90.13,0,0,0,14.52,1.17"/><path class="cls-4" d="M75,1.17A88.61,88.61,0,0,0,61.25,4.56,91.16,91.16,0,0,0,48.4,10,89.82,89.82,0,0,0,17.28,36.66,87.64,87.64,0,0,0,10,48.39,88.87,88.87,0,0,0,4.57,61.24,87.79,87.79,0,0,0,1.17,75a90.75,90.75,0,0,0,0,29.05,89.42,89.42,0,0,0,16.11,38.36A90,90,0,0,0,48.4,169.1a91.16,91.16,0,0,0,12.85,5.43A88.61,88.61,0,0,0,75,177.92a90.13,90.13,0,0,0,14.52,1.17l7.34-.3,7.19-.87a88.77,88.77,0,0,0,13.77-3.39h0c11.59-4.38,14.35-5.8,24.59-12.72a92.49,92.49,0,0,0,7.6-6.23h0c-49.83,42.23-101.37,11.22-97.38-40.9,4.66-60.89,77.61-99.26,113.12-59.51,6.42,7.18,20,27.87,8,64.87.93-2.66,1.95-6.27,2.73-9l1.43-7,.87-7.18.3-7.35-.3-7.34L177.93,75a88.89,88.89,0,0,0-3.39-13.78h0c-1.48-3.92-3.66-9.06-5.44-12.85l-3.42-6-3.86-5.71-4.28-5.39-4.67-5.05-5-4.67-5.39-4.27-5.72-3.87-6-3.42L124.41,7l-6.56-2.48-6.78-2-7-1.43L96.89.3,89.55,0A90.13,90.13,0,0,0,75,1.17"/><path class="cls-5" d="M75,1.17A88.61,88.61,0,0,0,61.25,4.56,91.16,91.16,0,0,0,48.4,10,89.82,89.82,0,0,0,17.28,36.66,87.64,87.64,0,0,0,10,48.39,88.87,88.87,0,0,0,4.57,61.24,87.79,87.79,0,0,0,1.17,75a90.75,90.75,0,0,0,0,29.05,89.42,89.42,0,0,0,16.11,38.36A90,90,0,0,0,48.4,169.1a91.16,91.16,0,0,0,12.85,5.43A88.61,88.61,0,0,0,75,177.92a90.13,90.13,0,0,0,14.52,1.17l7.34-.3,7.19-.87a88.77,88.77,0,0,0,13.77-3.39h0a98.94,98.94,0,0,0,18.71-8.76l-4.87,2.78C82.51,193.63,32.29,156.61,54,91.38c18.24-54.74,95-80.66,119.34-27,7.44,16.45,5.54,31.82,4.63,39.21l.84-7.19.26-6.88-.3-7.34L177.93,75a88.89,88.89,0,0,0-3.39-13.78h0c-1.48-3.92-3.66-9.06-5.44-12.85l-3.42-6-3.86-5.71-4.28-5.39-4.67-5.05-5-4.67-5.39-4.27-5.72-3.87-6-3.42L124.41,7l-6.56-2.48-6.78-2-7-1.43L96.89.3,89.55,0A90.13,90.13,0,0,0,75,1.17"/><path class="cls-6" d="M75,1.17A88.61,88.61,0,0,0,61.25,4.56,91.16,91.16,0,0,0,48.4,10,89.82,89.82,0,0,0,17.28,36.66,87.64,87.64,0,0,0,10,48.39,88.87,88.87,0,0,0,4.57,61.24,87.79,87.79,0,0,0,1.17,75a90.75,90.75,0,0,0,0,29.05,89.42,89.42,0,0,0,16.11,38.36A90,90,0,0,0,48.4,169.1a91.16,91.16,0,0,0,12.85,5.43A88.61,88.61,0,0,0,75,177.92a90.13,90.13,0,0,0,14.52,1.17l7.34-.3,7.19-.87a88.77,88.77,0,0,0,13.77-3.39h0c2.32-.88,5.43-2,7.71-3l-3.08,1.27c-61.3,21.88-95.13-38.15-68.31-91.91C83.56,22,158.79,14.81,176.13,69.28a69.84,69.84,0,0,1,3,21.62c0-.45,0-.91,0-1.36h0c-.18-4.37-.64-10.18-1.17-14.52a88.89,88.89,0,0,0-3.39-13.78h0c-1.48-3.92-3.66-9.06-5.44-12.85l-3.42-6-3.86-5.71-4.28-5.39-4.67-5.05-5-4.67-5.39-4.27-5.72-3.87-6-3.42L124.41,7l-6.56-2.48-6.78-2-7-1.43L96.89.3,89.55,0A90.13,90.13,0,0,0,75,1.17"/><path class="cls-7" d="M75,1.17A88.61,88.61,0,0,0,61.25,4.56,91.16,91.16,0,0,0,48.4,10,89.82,89.82,0,0,0,17.28,36.66,87.64,87.64,0,0,0,10,48.39,88.87,88.87,0,0,0,4.57,61.24,87.79,87.79,0,0,0,1.17,75a90.75,90.75,0,0,0,0,29.05,89.42,89.42,0,0,0,16.11,38.36A90,90,0,0,0,48.4,169.1a91.16,91.16,0,0,0,12.85,5.43A88.61,88.61,0,0,0,75,177.92a90.13,90.13,0,0,0,14.52,1.17l7.34-.3,7.19-.87a90.12,90.12,0,0,0,10.92-2.5h0c-62.86,17-92.37-50.13-61-102.89,31.57-53,106.56-63,122.85-2.24.85,3.17,1.67,9.36,1.68,9.41L177.93,75a88.89,88.89,0,0,0-3.39-13.78h0c-1.48-3.92-3.66-9.06-5.44-12.85l-3.42-6-3.86-5.71-4.28-5.39-4.67-5.05-5-4.67-5.39-4.27-5.72-3.87-6-3.42L124.41,7l-6.56-2.48-6.78-2-7-1.43L96.89.3,89.55,0A90.13,90.13,0,0,0,75,1.17"/><path class="cls-8" d="M75,1.17A88.61,88.61,0,0,0,61.25,4.56,91.16,91.16,0,0,0,48.4,10,89.82,89.82,0,0,0,17.28,36.66,87.64,87.64,0,0,0,10,48.39,88.87,88.87,0,0,0,4.57,61.24,87.79,87.79,0,0,0,1.17,75a90.75,90.75,0,0,0,0,29.05,89.42,89.42,0,0,0,16.11,38.36A90,90,0,0,0,48.4,169.1a91.16,91.16,0,0,0,12.85,5.43A88.61,88.61,0,0,0,75,177.92a90.13,90.13,0,0,0,14.52,1.17l7.34-.3,7.19-.87.7-.12C46,187,16,120.57,53.77,64.91c34.45-50.7,106.45-57.15,123,4.44L175,62.52l-.41-1.28-2.48-6.55-3-6.3-3.42-6-3.86-5.71-4.28-5.39-4.67-5.05-5-4.67-5.39-4.27-5.72-3.87-6-3.42L124.41,7l-6.56-2.48-6.78-2-7-1.43L96.89.3,89.55,0A90.13,90.13,0,0,0,75,1.17"/><path class="cls-9" d="M75,1.17A88.61,88.61,0,0,0,61.25,4.56,91.16,91.16,0,0,0,48.4,10,89.82,89.82,0,0,0,17.28,36.66,87.64,87.64,0,0,0,10,48.39,88.87,88.87,0,0,0,4.57,61.24,87.79,87.79,0,0,0,1.17,75a90.75,90.75,0,0,0,0,29.05,89.42,89.42,0,0,0,16.11,38.36A90,90,0,0,0,48.4,169.1a91.16,91.16,0,0,0,12.85,5.43A88.61,88.61,0,0,0,75,177.92a90.13,90.13,0,0,0,14.52,1.17c1.19,0,2.37,0,3.54-.07h0c-62,2-82.09-78.1-32.53-129.9C95.9,12.18,154.27,8.35,173.75,59l-2.63-6.46-2-4.14-3.42-6-3.86-5.71-4.28-5.39-4.67-5.05-5-4.67-5.39-4.27-5.72-3.87-6-3.42L124.41,7l-6.56-2.48-6.78-2-7-1.43L96.89.3,89.55,0A90.13,90.13,0,0,0,75,1.17"/><path class="cls-10" d="M75,1.17A88.61,88.61,0,0,0,61.25,4.56,91.16,91.16,0,0,0,48.4,10,89.82,89.82,0,0,0,17.28,36.66,87.64,87.64,0,0,0,10,48.39,88.87,88.87,0,0,0,4.57,61.24,87.79,87.79,0,0,0,1.17,75a90.75,90.75,0,0,0,0,29.05,89.42,89.42,0,0,0,16.11,38.36A90,90,0,0,0,48.4,169.1a91.16,91.16,0,0,0,12.85,5.43A88.61,88.61,0,0,0,75,177.92q3.63.59,7.37.89h0C18.63,173.09,8.29,84.46,65.89,37.27,98.4,10.63,147.11,7.32,169.12,48.42l0,0c-2-3.6-5-8.3-7.28-11.73l-4.28-5.39-4.67-5.05-5-4.67-5.39-4.27-5.72-3.87-6-3.42L124.41,7l-6.56-2.48-6.78-2-7-1.43L96.89.3,89.55,0A90.13,90.13,0,0,0,75,1.17"/><path class="cls-11" d="M75,1.17A88.61,88.61,0,0,0,61.25,4.56,91.16,91.16,0,0,0,48.4,10,89.82,89.82,0,0,0,17.28,36.66,87.64,87.64,0,0,0,10,48.39,88.87,88.87,0,0,0,4.57,61.24,87.79,87.79,0,0,0,1.17,75a90.75,90.75,0,0,0,0,29.05,89.42,89.42,0,0,0,16.11,38.36A90,90,0,0,0,48.4,169.1a91.16,91.16,0,0,0,12.85,5.43c2.07.69,4.18,1.3,6.31,1.84h0c-63.89-18-59-113.74,7.82-152.94,25.53-15,63.4-17.32,86.23,12.93L157.31,31l-4.44-4.77-5-4.67-5.39-4.27-5.72-3.87-6-3.42L124.41,7l-6.56-2.48-6.78-2-7-1.43L96.89.3,89.55,0A90.13,90.13,0,0,0,75,1.17"/><path class="cls-12" d="M60.26,143.73c19.85,48.71,87.91,36.53,112-20,21.58-50.6-16.65-96.15-64.93-77.35-42.87,16.7-60.22,65.19-47.1,97.4"/><path class="cls-13" d="M63.87,143.73c19.51,46.69,85.22,34.51,108.17-20.06C191.29,77.9,158.51,29.35,107.8,50,66,67,51.06,113.06,63.87,143.73"/><path class="cls-14" d="M65.21,137.06c13.79,48.61,75.42,45,103-6,22.1-40.85-1.22-92.22-49.88-80.87-34.51,8.05-64.83,45.7-53.16,86.87"/><path class="cls-15" d="M68.58,137.06c14.84,46.88,72.24,43.41,99.06-6,21.58-39.75-1.21-89.15-48.73-77.61C89,60.71,54.89,93.8,68.58,137.06"/><path class="cls-16" d="M70,130c11.42,51.15,67.75,48.43,93.4,7.09,25.13-40.5,5.91-90.63-44-80.31C85.34,63.79,62.72,97.32,70,130"/><path class="cls-17" d="M73.23,130c12.89,51.54,67.26,41.7,89.17,7.09,26.51-41.88,1.81-86.8-42.62-77.52-33.62,7-54.5,38.61-46.55,70.43"/><path class="cls-18" d="M74.46,122.5c5.94,42.94,53.83,59.18,85.78,15.84,27.92-37.88,3.17-84.73-40.12-76C99,66.65,69.43,86.19,74.46,122.5"/><path class="cls-19" d="M76.59,122.5c8.13,44.23,57.83,52.93,83.1,14.56,24.88-37.79,2.85-78.19-39.28-72-25,3.66-49.21,28.16-43.82,57.48"/><path class="cls-20" d="M78.74,122.5c8.53,37.12,53.22,51.64,79.09,14.56,26.1-37.41-.68-74.74-37.22-69.92C93.38,70.72,73,97.63,78.74,122.5"/><path class="cls-21" d="M80.91,122.5c10.31,37.34,58.61,48,79.23,7.47,21.08-41.4-19.77-70.3-50.64-57.73C88.1,81,75.54,103,80.91,122.5"/><path class="cls-22" d="M83.09,122.5C93.37,156,138.26,165.87,157.81,130c19.46-35.73-15.83-68.28-48.24-56C94,79.79,76.18,99.93,83.09,122.5"/><path class="cls-23" d="M85,121.49c5.18,24.12,49.54,43.94,69.8,8.48,19.45-34-14.17-66.23-45.2-54.44-1.3.49-31.78,12.49-24.6,46"/><path class="cls-24" d="M86.92,122.5c9.2,25.56,51.09,36,67.48,1.73,13-27.16-16.25-58-44.71-47.09-19,7.25-29.16,27.59-22.77,45.36"/><path class="cls-25" d="M88.62,122.5c11.24,27,51.91,27,63.07,0,11-26.65-15.27-54-41.95-43.73-18.36,7.09-28,27.11-21.12,43.73"/><path class="cls-26" d="M90.32,122.5c11.15,23.72,46.7,23.72,57.63,0,12-26-11.94-52.33-38.17-42.1-.14.06-13.56,5.73-19.12,17.76a30.39,30.39,0,0,0-.34,24.34"/><path class="cls-27" d="M92,122.5c4.62,9.12,14.8,13.52,14.91,13.56a31,31,0,0,0,9.57,2.07l9.59-1.19c.18,0,17.91-4.54,21.8-22.26,3.62-16.5-5.73-24.79-6.13-25.14-8.27-7.14-8.27-7.14-14.44-8.62-1.76-.43-4.08-1.41-5.89-1.32a39.82,39.82,0,0,0-11.62,2.23c-.13.06-13.49,6.77-17.68,16.33-3.82,8.74-3.86,16.93-.11,24.34"/><path class="cls-28" d="M90.87,114.68C95.2,138.56,128.2,143.6,142,122.5c3.27-5,9.57-18.18-2.54-33-6.16-7.51-19.74-10.43-29.67-6.37-9.27,3.79-21.7,16.43-19,31.51"/><path class="cls-29" d="M92.27,114.68c1.57,7.75,3.59,9.35,11.12,15.29,3.44,2.71,3.44,2.71,13.92,4.46,3.09.52,7.41-.88,10.16-2.39A40.47,40.47,0,0,0,139,122.5c5.64-7.42,6.86-16.29,3.35-24.34-3.15-7.21-4.16-8-9.76-12.19-2.78-2.09-7.58-3.27-11.05-3.48s-8.51.4-11.68,2C104.21,87.4,101,91,97.52,94.77c-3.16,3.46-6.87,11.93-5.25,19.91"/><path class="cls-30" d="M93.67,114.68s3.21,7.53,3.45,7.82c.62.73,10.1,8.43,10.46,8.5,9.85,1.78,9.85,1.78,15.88,0a27.74,27.74,0,0,0,13.35-8.53c5.92-7.35,6.08-18.85,3.92-24.34,0-.06-3.17-6.62-8.12-10.33a24,24,0,0,0-11.05-4c-3.55-.29-8.56.35-11.69,2-4.84,2.61-8.17,6.3-12.39,11-.06.07-6,8.23-3.81,17.85"/><path class="cls-31" d="M95.06,114.68a20.31,20.31,0,0,0,4.08,7.82c2.17,2.5,5.37,6.25,8.62,6.89,3,.59,7.1,2.31,10.06,1.55,8.66-2.23,12.24-3.15,16.76-8.44a24.66,24.66,0,0,0,4.51-24.34,20.44,20.44,0,0,0-6.47-8.43c-.57-.42-11-4.56-11-4.57-3.55-.36-8.59.33-11.71,2-2.66,1.47-6.65,5.15-11.87,11-.05.06-4.92,7.72-3,16.52"/><path class="cls-32" d="M96.44,114.68c.68,3,3.22,7.73,11.48,13.28,2.61,1.74,7.23,1.38,10.37,1.38,3.48,0,8-2.11,10.79-4.21a26.41,26.41,0,0,0,8.47-10.45c.88-2.19,4.82-13.57-5-22.78-3.19-3-10.93-5.38-11-5.39-3.54-.52-8.43.7-11.73,2.06-1.46.61-10.24,9.53-10.28,9.59-3,5.81-4.79,9.32-3.16,16.52"/><path class="cls-33" d="M97.93,114.68a27,27,0,0,0,10,11.72c2.71,1.74,7.39,1.49,10.59,1.49,3.63,0,8.11-2.84,11-5,1.07-.81,6.34-8.12,6.36-8.17,3.2-7.07,1.8-15.75-3.34-20.63-.05,0-7.1-5.5-10.94-6.19-.11,0-11.62,2-11.74,2.11-3.19,1.64-7.13,5-8.7,8.19-4.1,8.48-5.2,10.76-3.25,16.52"/><path class="cls-34" d="M99.54,114.68c0,.06,4,7.53,8.68,10.36,2.73,1.67,7.37,1.37,10.57,1.38.1,0,11.48-3.46,15.42-11.71,5.21-10.91-1.64-18.44-1.71-18.51s-9.82-6.76-10.87-7c0,0-11.69,2.21-11.75,2.24-4.6,2.36-13.93,13.41-10.34,23.22"/><path class="cls-35" d="M101.14,114.68c0,.06,5.42,7.85,7.22,8.88,2.8,1.61,7.44,1.37,10.66,1.37.38,0,11-5,13.51-10.25,2-4.13,3.74-7.7-.27-16.52-1.62-3.54-6.82-6.66-10.64-7.45-3.51-.73-8.46.82-11.75,2.24-2.1.9-4.06,3.48-5.55,5.21-.06.08-6.47,8.13-3.18,16.52"/><path class="cls-36" d="M102.73,114.68c1.06,2.59,3.3,6,5.78,7.32.12.06,10.36,1.43,10.74,1.43,1.87,0,11.49-8.66,11.55-8.75.39-.57,3.77-5.71,1.33-11.68-.59-1.45-.9-3.71-2-4.84-2.17-2.22-5.47-5.29-8.52-5.92-3.51-.74-8.4.92-11.76,2.19-1.53.58-2.92,2.48-4,3.73-.28.33-6.64,8-3.15,16.52"/><path class="cls-37" d="M104.31,114.68c.81,1.95,2.44,4.64,4.35,5.54,3,1.4,7.64,2.42,10.82,1.61,3.41-.87,7.12-4.38,9.29-7.15,1.59-2,2.52-5.56,2.71-8.12.21-2.72-1.84-6.24-3.51-8.4a12.69,12.69,0,0,0-6.38-4.4c-3.51-.74-8.33,1.08-11.76,2.14-.94.3-1.78,1.5-2.41,2.26a21.18,21.18,0,0,0-4.16,8.4,16.26,16.26,0,0,0,1,8.12"/><path class="cls-38" d="M105.88,114.68c.55,1.31,1.59,3.22,2.92,3.74,3.09,1.2,7.71,2.47,10.91,1.65,2.57-.65,5.44-3.25,7-5.39a17.66,17.66,0,0,0,2.92-8.12c.21-2.77-2.25-6.14-3.86-8.4a8.11,8.11,0,0,0-4.22-2.89c-3.5-.75-8.26,1.3-11.75,2.1-.34.08-.63.52-.85.79a21.44,21.44,0,0,0-4.25,8.4,16.1,16.1,0,0,0,1.17,8.12"/><path class="cls-39" d="M107.44,114.68c.29.67.79,1.72,1.5,1.93,3.2.93,7.76,2.52,11,1.69,5.88-1.51,7.85-11.65,7.84-11.74-.15-2.82-2.7-6-4.22-8.4a4.55,4.55,0,0,0-2-1.38c-.94-.37-10.83,2-11.76,2.76a13,13,0,0,0-3.62,7,17,17,0,0,0,1.3,8.12"/><path class="cls-40" d="M109,114.68c.16.38,11.06,1.85,11.16,1.83a4.4,4.4,0,0,0,2.37-1.83c1.32-2.29,3.52-5.49,3.37-8.12-.15-2.78-1.82-7.16-4.42-8.14-3.51-1.32-9.52,1.13-11.8,4.1-.83,1.08-2,2.68-2.1,4a20,20,0,0,0,1.42,8.12"/><path class="cls-41" d="M109.41,108.86c.06.09,10.73,6,10.93,5.84,2.36-1.26,3.77-5.47,3.64-8.14-.08-1.66-1.1-4.25-2.65-4.87-3.44-1.37-8.59,1.87-11.77,3.79-.87.52-.75,2.56-.15,3.38"/><path class="cls-42" d="M120.84,109.36c.87-.29,1.25-1.89,1.2-2.8a2,2,0,0,0-.89-1.64c-1.51-.61-3.62,1.15-5.17,1.64,1.46.84,3.26,3.33,4.86,2.8"/></g></g></g><g class="cls-2"><g class="cls-43"><g class="cls-2"><path class="cls-10" d="M89.55,179.09A90.13,90.13,0,0,1,75,177.92a88.61,88.61,0,0,1-13.78-3.39A91.16,91.16,0,0,1,48.4,169.1a90.12,90.12,0,0,1-31.12-26.67A89.35,89.35,0,0,1,1.17,104.07a90.75,90.75,0,0,1,0-29,87.79,87.79,0,0,1,3.4-13.78A88.87,88.87,0,0,1,10,48.39a87.64,87.64,0,0,1,7.28-11.73A90,90,0,0,1,48.4,10,91.16,91.16,0,0,1,61.25,4.56,88.61,88.61,0,0,1,75,1.17,89.55,89.55,0,1,1,89.55,179.09"/><path class="cls-10" d="M179.09,89.54A89.63,89.63,0,0,1,75,177.92a88.61,88.61,0,0,1-13.78-3.39A91.16,91.16,0,0,1,48.4,169.1a90.12,90.12,0,0,1-31.12-26.67,90.45,90.45,0,0,1-6.92-11h0c37.78,64.18,123.09,17.79,137.57-41.85,14.75-60.74-23.45-87-51-89.24a89.54,89.54,0,0,1,82.16,89.24"/><path class="cls-11" d="M179.09,89.54A89.63,89.63,0,0,1,75,177.92a88.61,88.61,0,0,1-13.78-3.39A91.16,91.16,0,0,1,48.4,169.1a89.94,89.94,0,0,1-30.21-25.46h0c47.51,57,131.62-2.46,138.09-62.72S123.59,5.83,111.44,2.69a89.59,89.59,0,0,1,67.65,86.85"/><path class="cls-9" d="M120.55,9.62c54.24,38,19.72,135.91-52,147.58-22.84,3.71-51.15-6.08-62.91-36.34-.37-1-.73-2-1.06-3a87.67,87.67,0,0,1-3.4-13.77,90.75,90.75,0,0,1,0-29,87.79,87.79,0,0,1,3.4-13.78A88.87,88.87,0,0,1,10,48.39a87.64,87.64,0,0,1,7.28-11.73A90,90,0,0,1,48.4,10,91.16,91.16,0,0,1,61.25,4.56,88.61,88.61,0,0,1,75,1.17,92.11,92.11,0,0,1,86.13.06h0c17.93-.57,30,6.5,34.42,9.56"/><path class="cls-8" d="M130.77,23.43c40,59.27-25.84,141-85,129.82-12.46-2.36-34.64-11.05-43.31-42.79-.51-2.1-.94-4.24-1.29-6.39a90.75,90.75,0,0,1,0-29,87.79,87.79,0,0,1,3.4-13.78A88.87,88.87,0,0,1,10,48.39a87.64,87.64,0,0,1,7.28-11.73A90,90,0,0,1,48.4,10a88.68,88.68,0,0,1,25.93-8.7h0c34.81-5.47,52,15.56,56.44,22.14"/><path class="cls-7" d="M130.59,29.15C160.73,87,95.28,168.89,36,147.5,16.49,140.49,3.28,122.73.6,100A92.55,92.55,0,0,1,0,89.54,90.23,90.23,0,0,1,1.17,75a87.79,87.79,0,0,1,3.4-13.78A88.87,88.87,0,0,1,10,48.39a87.64,87.64,0,0,1,7.28-11.73A90,90,0,0,1,48.4,10,91.16,91.16,0,0,1,61.25,4.56c.91-.3,1.84-.59,2.77-.87h0c44.49-12,63.26,19.1,66.57,25.46"/><path class="cls-6" d="M129.64,35.36c21.72,57.36-41.81,129.26-95.76,108.37C12.58,135.47-.08,115,0,88.85A91.29,91.29,0,0,1,1.17,75a87.79,87.79,0,0,1,3.4-13.78A88.87,88.87,0,0,1,10,48.39a87.64,87.64,0,0,1,7.28-11.73A90,90,0,0,1,48.4,10c1.65-.85,3.32-1.65,5-2.41h0c39-16.17,66.84,3.06,76.21,27.78"/><path class="cls-5" d="M128.26,42c15.4,61.17-57.12,125.86-104.86,93.54C13.19,128.66-3.29,111.73,1,76c.05-.34.11-.68.16-1a87.79,87.79,0,0,1,3.4-13.78A88.87,88.87,0,0,1,10,48.39a87.64,87.64,0,0,1,7.28-11.73A89.65,89.65,0,0,1,36.66,17.28q2.82-2.07,5.79-3.91h0C89.32-13.41,121.36,14.64,128.26,42"/><path class="cls-4" d="M125.93,49.12c7.8,60.64-59.64,113.66-104.58,82.22C16,127.6-10,106.52,5.13,59.59A88.54,88.54,0,0,1,10,48.39a87.64,87.64,0,0,1,7.28-11.73,90,90,0,0,1,9-10.44c.9-.9,1.83-1.78,2.77-2.65h0c48.17-40.87,92-12.68,96.93,25.55"/><path class="cls-12" d="M122.46,49.12c8,58.5-61.19,111-102.8,78.05C-22.29,93.93,11.35,10.59,69,5c30.76-3,50.2,19.93,53.5,44.11"/><path class="cls-13" d="M119,49.12c8.6,61.71-65.2,105.11-101,73.61C-21.68,87.92,14,8.38,70.16,6.14,99.56,5,115.85,26.88,119,49.12"/><path class="cls-14" d="M116.14,56.59c2.51,58.67-67.74,92.74-99.63,61.68C-19.2,83.5,15,10.09,68,7.63c27-1.25,46.82,18.89,48.11,49"/><path class="cls-15" d="M113.22,56.59C116.3,105.11,55,150.35,16.3,114.68-14.4,86.38,12.56,12,66,9.27c30.32-1.56,45.76,23.43,47.27,47.32"/><path class="cls-16" d="M110.44,64.4c-3.11,54-69,76.89-96.2,44.42-28.71-34.34,8-100.13,54.57-97.77,30.4,1.54,42.81,32.75,41.63,53.35"/><path class="cls-17" d="M107.54,64.4c-3,55.05-67.4,70.09-91.85,42.16C-12.54,74.31,22.6,10.49,67.19,13c30.39,1.72,41.28,34.33,40.35,51.4"/><path class="cls-18" d="M104.61,72.53c-6.7,43.78-71,61.78-91.8,25.67C-7.76,62.41,31.57,7.08,71.27,16c22,4.93,37.27,30.83,33.34,56.57"/><path class="cls-19" d="M102.75,72.53c-6.68,40.84-65,58.09-86.71,25.63-24.76-37.06,18.68-89,54-79.7,20.85,5.48,36.44,31.25,32.71,54.07"/><path class="cls-20" d="M100.87,72.53C94.35,110,43.49,126,19.64,98.17s5.39-80.95,42.69-78c22.41,1.76,42.58,29.17,38.54,52.38"/><path class="cls-21" d="M99,72.53c-7,38.17-58.45,50.93-79.71,19.79C-1.34,62.13,33,13.78,67.6,24.25,85.25,29.58,102.8,51.83,99,72.53"/><path class="cls-22" d="M97.09,72.53c-7.21,37.1-56.19,48.07-76,17C2.64,60.48,34,17.53,66.45,27.42c19.47,5.94,34.07,27.44,30.64,45.11"/><path class="cls-23" d="M95.18,72.53C87.91,110,42.92,115.8,25,89.54c-19-27.75,8.24-67.45,40.45-59C85,35.68,98.59,54.9,95.18,72.53"/><path class="cls-24" d="M93.59,72.53C89,104,46.46,115.11,28.5,89.54c-20.27-28.88,7.21-62.86,36-56,16.15,3.85,32.14,17.69,29.07,39"/><path class="cls-25" d="M92.27,72.53c-4.36,29.45-44.14,40.58-60.79,17C14,64.81,33.91,32,63.76,36.31,77.13,38.25,95.45,51.1,92.27,72.53"/><path class="cls-26" d="M91,72.53c-3.46,22.78-37.5,41.1-56.38,17C17.75,68.07,35.92,35.71,63.16,38.61,76.75,40.06,94,52.65,91,72.53"/><path class="cls-27" d="M89.63,72.53c-3.29,21.15-33.78,38.41-52.29,17-11.8-13.65-5.46-28.67-3.23-32.95C38.83,47.5,52.15,40.2,62.6,41c18.89,1.38,29.23,17.43,27,31.56"/><path class="cls-28" d="M85.5,80.92c-.89,1.74-9.21,17-27.89,17-3.43,0-8.28-.94-11-3-7.38-5.41-9.14-6.69-12.18-14-2-4.82-5.31-17.31,6.93-29.11C54.91,38.7,69.22,43.58,72,44.69c.1,0,11.38,6.43,13.43,11.9,3.19,8.53,5.3,14.17.12,24.33"/><path class="cls-29" d="M84,80.92C81.59,85.63,74.12,96.6,57.57,96.6a20.75,20.75,0,0,1-11-3.49c-4.1-3.09-7.34-5.53-9.76-12.19C31.22,65.65,40,56.76,40.07,56.67c8.85-8.74,8.85-8.74,11.56-9.62,5.1-1.66,12.08-3.93,20.1-.67S93.61,62.48,84,80.92"/><path class="cls-30" d="M82.59,80.92a46.37,46.37,0,0,1-13.35,12.3c-3.1,1.77-8.14,2-11.7,2s-8.22-1.9-11-4c-4.8-3.59-8.1-10.27-8.12-10.33C34.91,72,39.5,59.35,42.29,56.59c6.65-6.59,7.15-6.74,15.52-9.17a23.28,23.28,0,0,1,13.71.67c.55.22,9.84,7.77,10.46,8.5.25.29,3.43,7.75,3.46,7.81,2.12,6.3-1.65,14.23-2.85,16.52"/><path class="cls-31" d="M81.64,79.66c-1.2,3-9.09,10.24-12.42,12.21-3.07,1.81-8.14,1.94-11.71,2,0,0-10.36-4.07-11-4.57A23.12,23.12,0,0,1,40,80.92c-3-6.86-.7-19.14,4.51-24.33,4.25-4.24,5.69-5.67,16.59-8.47,3-.78,7.38.34,10.23,1.57,3,1.32,6.45,4.39,8.62,6.9A26,26,0,0,1,84,64.4c1.75,5.08.45,8.27-2.4,15.26"/><path class="cls-32" d="M81.69,76c-.62,1.49-1.14,3.68-2.19,4.9-.06.06-7.44,7.64-10.28,9.59S61,92.14,57.49,92.57c-.1,0-11.74-2.58-15.82-11.65-2.38-5.3-3-16.15,5.13-24.33,4.67-4.72,13.92-6.83,14-6.85,3.06-.69,7.49.15,10.37,1.39,2.48,1.07,8.08,5.22,11.48,13.27.58,1.38,1.65,5.27-1,11.62"/><path class="cls-33" d="M77.92,80.92c-2.09,2.92-5.5,6.58-8.7,8.19-.12.06-11.64,2.13-11.74,2.11s-16.08-4.11-16-18.69A20.57,20.57,0,0,1,43.2,64.4c0-.06,5.72-7.87,6.36-8.17,3.29-1.53,7.37-5.07,11-5A36.56,36.56,0,0,1,71,52.58c1.75.61,3.55,2.53,4.8,3.9,2.71,3,11,12,2.09,24.44"/><path class="cls-34" d="M76.34,80.92c-1.71,2.38-4.47,5.44-7.12,6.7-.06,0-11.7,2.25-11.75,2.24-1.37-.34-10.82-6.92-10.87-7C43.39,79.05,43,72.59,43,72.53c0-10.68,8.88-15.9,9-15.94,2.48-1.27,5.62-3.92,8.4-3.92A42.74,42.74,0,0,1,70.88,54c1.16.33,2.29,1.67,3.11,2.55,3.35,3.6,11.19,12,2.35,24.33"/><path class="cls-35" d="M74.78,80.92c-1.34,1.85-3.45,4.31-5.55,5.21-3.29,1.42-8.24,3-11.75,2.24-3.82-.79-8.17-4.44-10.64-7.45-.22-.28-2.36-8.33-2.37-8.39-.22-2.72.34-9.7,10.37-15.94,1.47-.92,3.51-2.32,5.24-2.44,3.21-.21,8-.42,10.66,1.37s7.2,8.82,7.22,8.88a15.38,15.38,0,0,1,.8,8.13,23.33,23.33,0,0,1-4,8.39"/><path class="cls-36" d="M73.22,80.92c-1,1.32-2.44,3.16-4,3.73-3.36,1.27-8.25,2.93-11.76,2.19-3.05-.64-6.57-3.49-8.52-5.92a15.05,15.05,0,0,1-3-8.39c0-.24,2.19-8,2.29-8.13,2.21-3,6.39-5.86,9.54-7.81a4.42,4.42,0,0,1,2-.94c.62,0,10.66,1.37,10.74,1.44a22.15,22.15,0,0,1,5.78,7.31,16.2,16.2,0,0,1,.92,8.13c-.46,2.75-2.42,6.13-4.07,8.39"/><path class="cls-37" d="M71.68,80.92a6.07,6.07,0,0,1-2.41,2.26c-3.43,1.06-8.25,2.89-11.76,2.14-7.7-1.63-9.9-12.69-9.89-12.79.19-2.57,1.12-6.11,2.71-8.13,2.17-2.76,5.88-6.28,9.29-7.15,3.18-.8,7.85.22,10.82,1.62,1.91.9,3.39,3.65,4.35,5.53a14.33,14.33,0,0,1,1,8.13c-.52,2.76-2.5,6.12-4.16,8.39"/><path class="cls-38" d="M70.14,80.92c-.21.28-.51.71-.85.79-3.49.8-8.43,3.45-11.75,2.1a10.49,10.49,0,0,1-4.22-2.89c-1.61-2.26-3.76-5.62-3.86-8.39-.1-2.59,1.39-6,2.92-8.13s4.44-4.74,7-5.39c3.21-.81,7.82.45,10.91,1.65,1.33.52,2.3,2.46,2.92,3.74a14.67,14.67,0,0,1,1.17,8.13c-.51,2.77-2.57,6.12-4.25,8.39"/><path class="cls-39" d="M69.34,79.55c-.92.8-10.82,3.12-11.76,2.75a4.55,4.55,0,0,1-2-1.38c-1.52-2.38-4.1-5.58-4.22-8.39,0-1.3,2.72-10.43,7.84-11.75,3.24-.83,7.8.77,11,1.69.71.21,1.15,1.29,1.5,1.93A14.66,14.66,0,0,1,73,72.53a13.07,13.07,0,0,1-3.62,7"/><path class="cls-40" d="M69.43,76.56c-2.84,2.44-8.3,5.43-11.8,4.1-2.6-1-4.29-5.36-4.42-8.13s2-5.84,3.37-8.13A4.45,4.45,0,0,1,59,62.57c.09,0,11,1.54,11.16,1.83,1.49,2,1.56,5.66,1.42,8.13a6.69,6.69,0,0,1-2.1,4"/><path class="cls-41" d="M69.54,73.61C66.7,76,61.21,78.76,57.77,77.39c-1.55-.61-2.58-3.2-2.65-4.86-.11-2.67,1.36-6.69,3.61-8.13.19-.12,10.9,5.73,11,5.82.6.82.63,2.73-.15,3.39"/><path class="cls-42" d="M58,74.16a2,2,0,0,1-.89-1.63c-.05-.92.33-2.52,1.2-2.8,1.6-.53,3.4,2,4.86,2.8-1.55.49-3.66,2.24-5.17,1.63"/></g><path class="cls-44" d="M127.49,82.47C126.68,109.24,107,122.55,98.54,127c-17,9-32.16,9.27-49.33.87-2.41-1.18-2.41-1.18-16.29,4.79-.13-.54-.29-1.26-.41-1.8-1.24-5.57-.44-11.27-1.08-16.88a8.42,8.42,0,0,0-1.09-3.14,52.85,52.85,0,0,1,1-58.94c10.15-14.86,37.72-37.82,69.36-18.4,17.36,10.67,27.37,29,26.77,48.94m9,3.3c3-37-31-67.51-61-66.51C48.16,20.69,25.5,45,19.66,62c-4.27,12.42-5,19.91-3.29,32,1.09,7.52,5.47,13.87,7.47,21.07,1.7,6.11,1.35,12.57,3.16,18.67a65.11,65.11,0,0,0,4.84,12.49c15-9.59,15-9.59,15.7-9.65,1-.08,1-.08,5.82,2a52.91,52.91,0,0,0,21.43,3.89c31.51-.44,59.2-25.91,61.73-56.77"/><path class="cls-44" d="M106.38,99.52C102.88,117.36,68.2,113.36,50.29,88c-23-32.57,2.94-42.45,3.25-42.48,4.06.24,4.36,1.82,6.7,14.09.57,3-1,5-2.73,6.76s-7.08,7,6.19,19.81c14.08,13.62,18.06,8.46,22.67,2.47,1.15-1.48,2.23-2.88,4.3-2.33,1.8.48,13.76,6.68,14.36,7.3a6,6,0,0,1,1.35,5.91"/></g></g><g class="cls-2"><g class="cls-45"><g class="cls-2"><path class="cls-10" d="M179.1,89.54a89.91,89.91,0,0,1-2.6,21.52c-2,8.07-4,12.42-7.4,19.63a88.39,88.39,0,0,1-7.28,11.74c-2.56,3.23-6.15,7.41-8.95,10.43a89.85,89.85,0,0,1-10.43,8.95c-10.24,6.92-13,8.34-24.59,12.72a88.77,88.77,0,0,1-13.77,3.39c-4.34.53-10.16,1-14.53,1.17A89.55,89.55,0,0,0,89.55,0c9.14.37,16.35.66,28.3,4.56a89.78,89.78,0,0,1,44,32.1c7.12,9.74,9.71,16.62,12.72,24.58A88.89,88.89,0,0,1,177.93,75a133.38,133.38,0,0,1,1.17,14.52"/><path class="cls-10" d="M104.08,1.17c4.17.85,9.68,2.21,13.77,3.39L124.41,7l6.29,3,6,3.42,5.72,3.87,5.39,4.27,5,4.67,4.67,5.05,4.28,5.39,3.86,5.71,3.42,6,3,6.3,2.48,6.55A88.89,88.89,0,0,1,177.93,75h0c.53,4.34,1,10.15,1.17,14.52l-.3,7.35a67,67,0,0,0-.87,7.18l-1.43,7-2,6.78-2.48,6.56-3,6.29a88.39,88.39,0,0,1-7.28,11.74h0c-2.56,3.23-6.15,7.41-8.95,10.43a89.85,89.85,0,0,1-10.43,8.95h0c-3.44,2.32-8.14,5.24-11.74,7.29l-6.29,3-6.56,2.48a88.77,88.77,0,0,1-13.77,3.39h0c-4.34.53-10.16,1-14.53,1.17A89.55,89.55,0,0,0,96.93.3l7,.85.15,0"/><path class="cls-11" d="M117.85,4.56A132.89,132.89,0,0,1,130.7,10l6,3.42,5.72,3.87,5.39,4.27,5,4.67,4.67,5.05,4.28,5.39,3.86,5.71,3.42,6,3,6.3,2.48,6.55A88.89,88.89,0,0,1,177.93,75h0c.53,4.34,1,10.15,1.17,14.52l-.3,7.35a67,67,0,0,0-.87,7.18l-1.43,7-2,6.78-2.48,6.56-3,6.29a88.39,88.39,0,0,1-7.28,11.74h0c-2.56,3.23-6.15,7.41-8.95,10.43a89.85,89.85,0,0,1-10.43,8.95h0c-3.44,2.32-8.14,5.24-11.74,7.29l-6.29,3-6.56,2.48a88.77,88.77,0,0,1-13.77,3.39h0c-4.34.53-10.16,1-14.53,1.17A89.56,89.56,0,0,0,111.44,2.69c1.92.57,4.51,1.24,6.41,1.87"/></g></g></g></g></g></g></svg>