<svg xmlns="http://www.w3.org/2000/svg" xmlns:xlink="http://www.w3.org/1999/xlink" viewBox="0 0 142.38 142.37"><defs><style>.cls-1{fill:none;}.cls-2{isolation:isolate;}.cls-3{clip-path:url(#clip-path);}.cls-4{fill:#ce0000;}.cls-5{fill:#cb0000;}.cls-6{fill:#c90000;}.cls-7{fill:#c70000;}.cls-8{fill:#c40000;}.cls-9{fill:#c20000;}.cls-10{fill:#c00000;}.cls-11{fill:#bd0000;}.cls-12{fill:#d00000;}.cls-13{fill:#d30000;}.cls-14{fill:#d50000;}.cls-15{fill:#d70000;}.cls-16{fill:#da0000;}.cls-17{fill:#dc0000;}.cls-18{fill:#de0000;}.cls-19{fill:#e10000;}.cls-20{fill:#e30000;}.cls-21{fill:#e50000;}.cls-22{fill:#e80000;}.cls-23{fill:#ea0000;}.cls-24{fill:#ed0000;}.cls-25{fill:#ef0000;}.cls-26{fill:#f10000;}.cls-27{fill:#f40000;}.cls-28{fill:#f60000;}.cls-29{fill:#f71f1f;}.cls-30{fill:#f82b2b;}.cls-31{fill:#f83535;}.cls-32{fill:#f83d3d;}.cls-33{fill:#f84444;}.cls-34{fill:#f94b4b;}.cls-35{fill:#f95151;}.cls-36{fill:#f95757;}.cls-37{fill:#f95c5c;}.cls-38{fill:#f96161;}.cls-39{fill:#fa6565;}.cls-40{fill:#fa6a6a;}.cls-41{fill:#fa6e6e;}.cls-42{fill:#fa7272;}.cls-43{fill:#fa7777;}.cls-44{fill:#fa7a7a;}.cls-45{fill:#fa7e7e;}.cls-46{clip-path:url(#clip-path-2);}.cls-47{fill:#fff;}.cls-48{clip-path:url(#clip-path-3);}</style><clipPath id="clip-path"><path class="cls-1" d="M71.19,142.37a72.1,72.1,0,0,1-11.55-.93,71.16,71.16,0,0,1-21.17-7,71.11,71.11,0,0,1-17.62-12.91A70.74,70.74,0,0,1,8,103.9a70.61,70.61,0,0,1-7-21.16,72.19,72.19,0,0,1,0-23.1A70.8,70.8,0,0,1,8,38.47,71.21,71.21,0,0,1,38.47,8a70.8,70.8,0,0,1,21.17-7A72.1,72.1,0,0,1,71.19,0,81,81,0,0,1,82.74.93c1.67.34,3.92.67,5.56,1.14A111.51,111.51,0,0,1,98.9,5.59a71.48,71.48,0,0,1,37.89,37.89c1.28,3.1,2.59,7.38,3.52,10.6.47,1.64.8,3.89,1.14,5.56a81,81,0,0,1,.93,11.55,72.1,72.1,0,0,1-.93,11.55,70.34,70.34,0,0,1-2.7,11,106.5,106.5,0,0,1-4.31,10.21,80.6,80.6,0,0,1-5.79,9.33,79.19,79.19,0,0,1-7.12,8.29,75.92,75.92,0,0,1-8.29,7.12,86.26,86.26,0,0,1-9.33,5.79,77,77,0,0,1-10.22,4.31,80.66,80.66,0,0,1-11,2.7A92.86,92.86,0,0,1,71.19,142.37Z"/></clipPath><clipPath id="clip-path-2"><path class="cls-1" d="M71.19,142.37a72.1,72.1,0,0,1-11.55-.93,71.16,71.16,0,0,1-21.17-7,71.11,71.11,0,0,1-17.62-12.91A70.74,70.74,0,0,1,8,103.9a70.61,70.61,0,0,1-7-21.16,72.19,72.19,0,0,1,0-23.1A70.8,70.8,0,0,1,8,38.47,71.21,71.21,0,0,1,38.47,8a70.8,70.8,0,0,1,21.17-7A72.1,72.1,0,0,1,71.19,0a71.19,71.19,0,0,1,0,142.37Z"/></clipPath><clipPath id="clip-path-3"><path class="cls-1" d="M142.38,71.19a71.88,71.88,0,0,0-.93-11.55c-.34-1.67-.67-3.92-1.14-5.56-.93-3.22-2.24-7.5-3.52-10.6A71.48,71.48,0,0,0,98.9,5.59,111.51,111.51,0,0,0,88.3,2.07c-1.64-.47-3.89-.8-5.56-1.14A81,81,0,0,0,71.19,0a71.19,71.19,0,0,1,0,142.37,108.74,108.74,0,0,0,11.55-.93,71.36,71.36,0,0,0,11-2.7,77,77,0,0,0,10.22-4.31,86.26,86.26,0,0,0,9.33-5.79,75.92,75.92,0,0,0,8.29-7.12,79.19,79.19,0,0,0,7.12-8.29,80.6,80.6,0,0,0,5.79-9.33,106.5,106.5,0,0,0,4.31-10.21,70.34,70.34,0,0,0,2.7-11A72.1,72.1,0,0,0,142.38,71.19Z"/></clipPath></defs><title>Recurso 23</title><g id="Capa_2" data-name="Capa 2"><g id="Capa_1-2" data-name="Capa 1"><g class="cls-2"><g class="cls-2"><g class="cls-3"><g class="cls-2"><path class="cls-4" d="M71.19,142.37c8.51-.34,24.35-1,42.05-13.73a71.5,71.5,0,0,0,15.41-15.41c5.65-7.75,7.71-13.21,10.1-19.54a70.34,70.34,0,0,0,2.7-11,72.1,72.1,0,0,0,.93-11.55c-.31-7.74-.64-15.74-5.59-27.71A71.48,71.48,0,0,0,98.9,5.59C86.93.64,78.93.31,71.19,0A72.1,72.1,0,0,0,59.64.93,70.8,70.8,0,0,0,38.47,8,71.21,71.21,0,0,0,8,38.47a70.8,70.8,0,0,0-7,21.17,72.19,72.19,0,0,0,0,23.1A70.61,70.61,0,0,0,8,103.9a71.68,71.68,0,0,0,21.19,24.74,72.61,72.61,0,0,0,9.33,5.79,71.16,71.16,0,0,0,21.17,7,72.1,72.1,0,0,0,11.55.93"/><path class="cls-4" d="M59.64.93A70.8,70.8,0,0,0,38.47,8,71.21,71.21,0,0,0,8,38.47a70.8,70.8,0,0,0-7,21.17,72.19,72.19,0,0,0,0,23.1A70.61,70.61,0,0,0,8,103.9a71.68,71.68,0,0,0,21.19,24.74,72.61,72.61,0,0,0,9.33,5.79,71.16,71.16,0,0,0,21.17,7,72.1,72.1,0,0,0,11.55.93l5.84-.23,5.71-.7,5.56-1.14,5.39-1.56,5.21-2a80.42,80.42,0,0,0,14.34-8.14l.52-.39c-42.31,29.22-79.9-1.46-72.48-43.53C49.89,35.89,108.49,10.64,133.5,45c12.52,17.21,8.19,37,6.76,43.5l1.16-5.56,0-.19a72.1,72.1,0,0,0,.93-11.55h0c-.14-3.47-.51-8.1-.93-11.55l-1.14-5.56-1.56-5.39-2-5.21-2.35-5-2.72-4.78-3.07-4.55-3.41-4.28-3.71-4-4-3.71-4.28-3.41-4.55-3.06L103.91,8l-5-2.36-5.21-2L88.3,2.07,82.74.93,77,.24,71.19,0A72.1,72.1,0,0,0,59.64.93"/><path class="cls-5" d="M59.64.93A70.8,70.8,0,0,0,38.47,8,71.21,71.21,0,0,0,8,38.47a70.8,70.8,0,0,0-7,21.17,72.19,72.19,0,0,0,0,23.1A70.61,70.61,0,0,0,8,103.9a71.68,71.68,0,0,0,21.19,24.74,72.61,72.61,0,0,0,9.33,5.79,71.16,71.16,0,0,0,21.17,7,72.1,72.1,0,0,0,11.55.93l5.84-.23,5.71-.7,5.56-1.14,5.39-1.56,5.21-2c1.77-.83,4.15-1.9,5.87-2.81l-1.44.75c-47.16,21.84-77.7-20.46-61.25-63.53C60.23,23.66,121.31,11,138.2,51.2c2.36,5.64,4.94,13.77,3.87,26.65q.31-3.3.31-6.66h0c-.14-3.47-.51-8.1-.93-11.55l-1.14-5.56-1.56-5.39-2-5.21-2.35-5-2.72-4.78-3.07-4.55-3.41-4.28-3.71-4-4-3.71-4.28-3.41-4.55-3.06L103.91,8l-5-2.36-5.21-2L88.3,2.07,82.74.93,77,.24,71.19,0A72.1,72.1,0,0,0,59.64.93"/><path class="cls-6" d="M59.64.93A70.8,70.8,0,0,0,38.47,8,71.21,71.21,0,0,0,8,38.47a70.8,70.8,0,0,0-7,21.17,72.19,72.19,0,0,0,0,23.1A70.61,70.61,0,0,0,8,103.9a71.68,71.68,0,0,0,21.19,24.74,72.61,72.61,0,0,0,9.33,5.79,71.16,71.16,0,0,0,21.17,7,72.1,72.1,0,0,0,11.55.93l5.84-.23,5.71-.7,5.56-1.14,5.39-1.56,3.14-1.13-2.86,1c-47.72,14.59-72.22-32.53-52.18-74.3,22.47-46.82,83.62-54,97.67-11.54A58.87,58.87,0,0,1,142.35,69l-.41-5.79-.49-3.59-1.14-5.56-1.56-5.39-2-5.21-2.35-5-2.72-4.78-3.07-4.55-3.41-4.28-3.71-4-4-3.71-4.28-3.41-4.55-3.06L103.91,8l-5-2.36-5.21-2L88.3,2.07,82.74.93,77,.24,71.19,0A72.1,72.1,0,0,0,59.64.93"/><path class="cls-7" d="M59.64.93A70.8,70.8,0,0,0,38.47,8,71.21,71.21,0,0,0,8,38.47a70.8,70.8,0,0,0-7,21.17,72.19,72.19,0,0,0,0,23.1A70.61,70.61,0,0,0,8,103.9a71.68,71.68,0,0,0,21.19,24.74,72.61,72.61,0,0,0,9.33,5.79,71.16,71.16,0,0,0,21.17,7,72.1,72.1,0,0,0,11.55.93l5.84-.23,5.71-.7,5.56-1.14.82-.21-2.09.5C39.65,150.43,14.8,98.83,44.83,53,73.54,9.1,132,12,141.08,57.66c.19,1,.39,2.25.56,3.22-.06-.42-.12-.83-.19-1.24h0c-.68-3.31-1.76-7.7-2.7-11l-2-5.21-2.35-5-2.72-4.78-3.07-4.55-3.41-4.28-3.71-4-4-3.71-4.28-3.41-4.55-3.06L103.91,8l-5-2.36-5.21-2L88.3,2.07,82.74.93,77,.24,71.19,0A72.1,72.1,0,0,0,59.64.93"/><path class="cls-8" d="M59.64.93A70.8,70.8,0,0,0,38.47,8,71.21,71.21,0,0,0,8,38.47a70.8,70.8,0,0,0-7,21.17,72.19,72.19,0,0,0,0,23.1A70.61,70.61,0,0,0,8,103.9a71.68,71.68,0,0,0,21.19,24.74,72.61,72.61,0,0,0,9.33,5.79,71.16,71.16,0,0,0,21.17,7,72.1,72.1,0,0,0,11.55.93l5.84-.23,4.25-.48-1.29.17C31.43,147.32,10.85,87.59,46.63,45c29.2-34.75,80.73-37.1,93.43,8.11-.87-2.92-2.2-6.77-3.27-9.62l-2.35-5-2.72-4.78-3.07-4.55-3.41-4.28-3.71-4-4-3.71-4.28-3.41-4.55-3.06L103.91,8l-5-2.36-5.21-2L88.3,2.07,82.74.93,77,.24,71.19,0A72.1,72.1,0,0,0,59.64.93"/><path class="cls-9" d="M59.64.93A70.8,70.8,0,0,0,38.47,8,71.21,71.21,0,0,0,8,38.47a70.8,70.8,0,0,0-7,21.17,72.19,72.19,0,0,0,0,23.1A70.61,70.61,0,0,0,8,103.9a71.68,71.68,0,0,0,21.19,24.74,72.61,72.61,0,0,0,9.33,5.79,71.16,71.16,0,0,0,21.17,7,72.1,72.1,0,0,0,11.55.93h0c-48-1-62.37-62.75-24.06-103.32,31.33-33.17,76.11-30,90.43,6.33l-2.21-5.09-.91-1.82-2.72-4.78-3.07-4.55-3.41-4.28-3.71-4-4-3.71-4.28-3.41-4.55-3.06L103.91,8l-5-2.36-5.21-2L88.3,2.07,82.74.93,77,.24,71.19,0A72.1,72.1,0,0,0,59.64.93"/><path class="cls-10" d="M59.64.93A70.8,70.8,0,0,0,38.47,8,71.21,71.21,0,0,0,8,38.47a70.8,70.8,0,0,0-7,21.17,72.19,72.19,0,0,0,0,23.1A70.61,70.61,0,0,0,8,103.9a71.68,71.68,0,0,0,21.19,24.74,72.61,72.61,0,0,0,9.33,5.79,71.16,71.16,0,0,0,21.17,7c1.49.24,3,.44,4.5.59h0C17.42,136.82,2.84,69.39,52.57,28.82c25.7-21,64.52-22.47,81.36,8.7l-2.79-4.74-2.49-3.64-3.41-4.28-3.71-4-4-3.71-4.28-3.41-4.55-3.06L103.91,8l-5-2.36-5.21-2L88.3,2.07,82.74.93,77,.24,71.19,0A72.1,72.1,0,0,0,59.64.93"/><path class="cls-11" d="M59.64.93A70.8,70.8,0,0,0,38.47,8,71.21,71.21,0,0,0,8,38.47a70.8,70.8,0,0,0-7,21.17,72.19,72.19,0,0,0,0,23.1A70.61,70.61,0,0,0,8,103.9a71.68,71.68,0,0,0,21.19,24.74,72.61,72.61,0,0,0,9.33,5.79,70.32,70.32,0,0,0,10.22,4.31c1.4.47,2.81.89,4.25,1.27h0C2.39,125.55,6.32,49.55,59.22,18.63,79.72,6.65,110,4.56,128,28.28L124.53,24l-3-3.19-4-3.71-4.28-3.41-4.55-3.06L103.91,8l-5-2.36-5.21-2L88.3,2.07,82.74.93,77,.24,71.19,0A72.1,72.1,0,0,0,59.64.93"/><path class="cls-12" d="M46.39,114.26c13.61,33.8,56.67,33.24,82.28-1.06l3.07-4.55.53-.88,2.46-4.45c22-47.94-11.8-82.55-49.58-68.07-35,13.42-49.32,52.78-38.76,79"/><path class="cls-13" d="M49,114.26c15.68,38.1,69.06,28.42,87.87-15.94C152.55,61.43,126.35,21.78,85.5,38,51.14,51.66,38.71,89.15,49,114.26"/><path class="cls-14" d="M50,109c11.2,39.78,61.46,36.93,84-4.77,19.83-36.64-3.47-74.92-40.21-66.06C62.53,45.67,41.65,79.43,50,109"/><path class="cls-15" d="M52.59,109c11.06,37.8,59.53,34.94,81-4.77,17.48-32.27-.95-72.68-39.4-63.57C67,47.08,43.16,76.73,52.59,109"/><path class="cls-16" d="M53.68,103.32c7.76,39,51.17,42.7,76.16,6.52,22.07-32,5-76.55-35.22-66.77-24.81,6-46.91,30.21-40.94,60.25"/><path class="cls-17" d="M56.06,103.32C65.82,146,111.38,138.58,129.8,109,151.54,74,131.69,37.8,95,45.47,65.21,51.68,50.83,80.4,56.06,103.32"/><path class="cls-18" d="M58.48,103.32C68,141.38,109.88,139.13,129,109c21-33.18,1.48-68.76-33.76-61.4C71.56,52.5,51.33,74.71,58.48,103.32"/><path class="cls-19" d="M59.26,97.39C64,131.37,102,144.26,127.34,110c22.19-30.06,2.55-67.25-31.83-60.3-16.79,3.39-40.29,18.9-36.25,47.71"/><path class="cls-20" d="M60.85,97.39c6.45,35.25,46,42.17,66.13,11.57,19.77-30.07,2.24-62.2-31.26-57.3C75.81,54.57,56.59,74.07,60.85,97.39"/><path class="cls-21" d="M62.46,97.39c6.73,29.79,42.4,41.37,63.14,11.57S125,49.37,95.87,53.24C74.22,56.12,58,77.57,62.46,97.39"/><path class="cls-22" d="M64.08,97.39c8.14,30.21,46.81,38.73,63.46,5.93,17.2-33.85-15.22-56.4-40.5-46.14-17.08,6.93-27.17,24.6-23,40.21"/><path class="cls-23" d="M65.71,97.39c8.3,27.32,44.46,35.29,60.17,6C141.51,74.18,113.49,48.6,87.1,58.51c-12.5,4.7-26.88,20.82-21.39,38.88"/><path class="cls-24" d="M67.35,97.39c7.77,24.55,41.65,32,56.38,5.93,15.35-27.22-11.8-53-36.59-43.61C75.73,64.05,61.54,79,67.35,97.39"/><path class="cls-25" d="M67.5,91.5c3.92,18.77,17.65,23.72,23.37,25,16.61,3.65,27.63-8.25,30.47-13.15,16-27.53-12.83-50.54-34.15-42.4C71.64,66.85,65.68,82.77,67.5,91.5"/><path class="cls-26" d="M69.93,97.39c8.31,21,42.19,24.58,51.74,0,9.12-23.5-14.46-42.94-34.45-35.26-13.08,5-23.15,20.4-17.29,35.26"/><path class="cls-27" d="M71.2,97.39c8.92,20,38.82,20,47.75,0,9.13-20.44-11-42.07-31.69-34-.11,0-10.79,4.29-15.7,14.7a25.22,25.22,0,0,0-.36,19.34"/><path class="cls-28" d="M72.48,97.39c4.59,9.25,16.26,13.36,19.91,13.36,11,0,19.76-4.87,24-13.36.76-1.51,7.1-15.07-2.76-26.2-7-7.88-17.09-10.43-26.36-6.66l-9.69,6.66a23.74,23.74,0,0,0-4.93,6.86,22.7,22.7,0,0,0-.18,19.34"/><path class="cls-29" d="M71.61,91.17a20.74,20.74,0,0,0,5.29,10.62c7,5.88,7,5.88,15.85,7.17,6.75,1,17.2-4.64,21.5-11.57.85-1.39,8.08-13.88-2.34-26.2-5.63-6.65-16.21-9.09-24.61-5.66a31.12,31.12,0,0,0-8.2,5.66,39.35,39.35,0,0,0-5.34,6.86s-3.27,6.51-2.15,13.12"/><path class="cls-30" d="M72.66,91.17c3.49,18.39,28.49,22.34,39.34,6.22,4-5.94,6.93-15.3-1.8-26.2-4-5-14.38-8.14-22.88-4.66-4.79,2-17.16,11.44-14.66,24.64"/><path class="cls-31" d="M73.71,91.17s2,5.69,3.32,7.29c.86,1,7.83,6.52,8.38,6.61,8.87,1.52,8.87,1.52,16.09-.74,2.14-.67,8.4-6.89,8.44-6.94,2.65-3.41,6.21-11.31,2.81-19.34a19.34,19.34,0,0,0-7.34-9.23,18.5,18.5,0,0,0-8.79-2.9,19.64,19.64,0,0,0-9.29,1.61c-4.28,2.24-7.1,5.35-9.83,8.35-1.2,1.33-5.36,7.8-3.79,15.29"/><path class="cls-32" d="M74.75,91.17s2.06,5.26,2.88,6.22l7.93,6.4c2.41.44,5.69,2,8,1.36,7.33-2.07,8-2.39,8.32-2.59a23.09,23.09,0,0,0,6.37-5.17c4.47-5.49,5.16-14.32,3.24-19.34,0,0-2.9-5.43-6.12-7.83a19.27,19.27,0,0,0-8.78-3.3,18.39,18.39,0,0,0-9.3,1.62c-2.28,1.25-4.08,2.47-9.85,8.86,0,0-4.36,6.48-2.74,13.77"/><path class="cls-33" d="M75.79,91.17c1.49,6.68,9.83,11.45,9.9,11.47l8.16,1.2c5.34-1.34,9.2-2.3,12.78-6.45a19.2,19.2,0,0,0,3.68-19.34,15.26,15.26,0,0,0-4.88-6.37c-1.54-1.13-8.72-3.75-8.77-3.76a18,18,0,0,0-9.31,1.64c-3,1.62-8.55,7.79-9.18,8.49a18.09,18.09,0,0,0-2.38,13.12"/><path class="cls-34" d="M76.82,91.17c.36,1.56,1.94,5.69,9,10.39,2.08,1.39,5.76,1.11,8.26,1.11,2.78,0,6.39-1.76,8.6-3.44a22.36,22.36,0,0,0,6.49-8.06c.18-.42,4.16-10.39-3.75-17.87-2.77-2.61-8.68-4.36-8.73-4.37-2.81-.43-6.7.55-9.33,1.64-1,.4-8,7.42-8,7.48-2.54,5-3.82,7.47-2.54,13.12"/><path class="cls-35" d="M78,91.17a22,22,0,0,0,8,9.31c2.12,1.36,5.81,1.1,8.33,1.1,2.89,0,6.44-2.3,8.75-4,.37-.29,4.9-6.32,4.92-6.36,2.86-6.27.82-13-2.55-16.26,0,0-5.75-4.43-8.69-5-.09,0-9.25,1.64-9.34,1.69-2.49,1.28-5.59,3.88-6.81,6.42C77.2,85,76.41,86.64,78,91.17"/><path class="cls-36" d="M79.16,91.17s3.21,6,6.88,8.22c2.17,1.32,5.86,1.09,8.4,1.09.08,0,9.12-2.75,12.24-9.31,4.12-8.65-1.29-14.6-1.35-14.65s-7.86-5.4-8.64-5.57c0,0-9.29,1.77-9.34,1.79-3.65,1.87-11,10.64-8.19,18.43"/><path class="cls-37" d="M80.35,91.17s4.28,6.24,5.79,7.11c2.22,1.28,5.91,1.09,8.47,1.09.31,0,8.7-3.86,10.8-8.2,1.54-3.15,3-6.14-.2-13.12-1.29-2.83-5.44-5.31-8.48-6-2.81-.6-6.76.62-9.39,1.75-1.68.73-3.26,2.8-4.46,4.2,0,.06-5.14,6.43-2.53,13.12"/><path class="cls-38" d="M81.54,91.17c.86,2.11,2.7,4.89,4.71,6,.08,0,8.29,1.12,8.53,1.12,1.51,0,9-6.37,9.35-7.08a15.42,15.42,0,0,0,1.8-6.45c-.09-2.12-1.5-4.72-2.31-6.67-1-2.35-4.46-4.32-6.94-4.84-2.79-.58-6.68.73-9.35,1.75-1.26.48-2.41,2.05-3.28,3.09-.06.06-5.28,6.37-2.51,13.12"/><path class="cls-39" d="M82.72,91.17c.68,1.63,2,3.86,3.64,4.63,2.35,1.13,6.07,1.92,8.59,1.28,2.82-.72,5.88-3.63,7.68-5.91a13.16,13.16,0,0,0,2.13-6.45c.16-2.16-1.42-5-2.75-6.67a10.78,10.78,0,0,0-5.34-3.7c-2.8-.58-6.64.84-9.35,1.71-.83.27-1.56,1.32-2.12,2a16.64,16.64,0,0,0-3.29,6.67,12.73,12.73,0,0,0,.81,6.45"/><path class="cls-40" d="M83.9,91.17c.48,1.16,1.41,2.82,2.57,3.29,2.43,1,6.11,2,8.66,1.31,2.19-.56,4.62-2.79,6-4.6a13.85,13.85,0,0,0,2.29-6.45c.16-2.19-1.72-4.9-3-6.67a7.27,7.27,0,0,0-3.74-2.57c-2.78-.59-6.58,1-9.34,1.68-.38.09-.7.58-1,.89A17,17,0,0,0,83,84.72a12.77,12.77,0,0,0,.91,6.45"/><path class="cls-41" d="M85.06,91.17c.29.68.81,1.72,1.51,1.94,2.52.81,6.16,2,8.73,1.34,5.12-1.32,6.7-9.65,6.7-9.73-.12-2.23-2-4.82-3.28-6.67a5,5,0,0,0-2.1-1.44,61.14,61.14,0,0,0-9.35,1.86,11.9,11.9,0,0,0-3.21,6.25,13.15,13.15,0,0,0,1,6.45"/><path class="cls-42" d="M86.22,91.17c.09.2.24.53.45.58,2.61.55,6.2,2,8.79,1.36A4.73,4.73,0,0,0,98,91.17c1.09-1.78,2.74-4.37,2.62-6.45,0-.06-3.15-6.73-4-7-.53-.16-8.76,2.45-9.37,3a7,7,0,0,0-2.08,4,14.86,14.86,0,0,0,1.09,6.45"/><path class="cls-43" d="M86.87,88.52c1,1.34,7.18,3.64,8.74,3.25,1.38-.36,3.56-7,3.56-7-.09-1.68-1.1-4.31-2.67-4.91-2.76-1.06-7.17,1.13-9.36,3.11-1.25,1.13-1.26,4.24-.27,5.6"/><path class="cls-44" d="M95.89,88.93c1.31-.43,1.9-2.84,1.84-4.21a3.06,3.06,0,0,0-1.35-2.48c-2.3-.93-5.53,1.74-7.91,2.48,2.24,1.25,5,5,7.42,4.21"/><path class="cls-9" d="M71.19,142.37h0"/><path class="cls-45" d="M96.22,84.85a.16.16,0,0,0,.06-.13.1.1,0,0,0,0-.08c-.07,0-.17,0-.24.08s.15.15.22.13"/></g></g></g><g class="cls-2"><g class="cls-46"><g class="cls-2"><path class="cls-9" d="M71.19,142.37a72.1,72.1,0,0,1-11.55-.93,71.16,71.16,0,0,1-21.17-7,71.11,71.11,0,0,1-17.62-12.91A70.74,70.74,0,0,1,8,103.9a70.61,70.61,0,0,1-7-21.16,72.19,72.19,0,0,1,0-23.1A70.8,70.8,0,0,1,8,38.47,71.21,71.21,0,0,1,38.47,8a70.8,70.8,0,0,1,21.17-7A72.1,72.1,0,0,1,71.19,0a71.19,71.19,0,0,1,0,142.37"/><path class="cls-9" d="M71.13,0h0"/><path class="cls-9" d="M142.37,71.19a71.18,71.18,0,0,1-71.18,71.18,72.1,72.1,0,0,1-11.55-.93,71.16,71.16,0,0,1-21.17-7,71.11,71.11,0,0,1-17.62-12.91A70.74,70.74,0,0,1,8,103.9a67.13,67.13,0,0,1-2.9-6.33h0c21.66,47.72,86.54,32.9,108.47-24.78,11-28.85-2-72.12-42.33-72.79a71.18,71.18,0,0,1,71.18,71.19"/><path class="cls-10" d="M142.37,71.19a71.18,71.18,0,0,1-71.18,71.18,72.1,72.1,0,0,1-11.55-.93,71.16,71.16,0,0,1-21.17-7,71.11,71.11,0,0,1-17.62-12.91,71.23,71.23,0,0,1-7.12-8.29,72.8,72.8,0,0,1-4.9-7.67h0c30.25,49.95,97.94,12.59,109.27-34.37C128.34,28.72,105.91,3.41,78.45.37a71.18,71.18,0,0,1,63.92,70.82"/><path class="cls-11" d="M142.37,71.19a71.18,71.18,0,0,1-71.18,71.18,72.1,72.1,0,0,1-11.55-.93,71.16,71.16,0,0,1-21.17-7,71.11,71.11,0,0,1-17.62-12.91,71.39,71.39,0,0,1-6-6.78h0c37.86,44.68,104.62-2.81,109.66-50.41,4.8-45.32-23-58.45-35.18-62a71.2,71.2,0,0,1,53,68.85"/><path class="cls-8" d="M101.44,14.51c33.73,38.8-6.06,111.92-59.13,108.66C27.37,122.25,9.06,113,2.47,89.86c-.63-2.33-1.14-4.71-1.54-7.12a72.19,72.19,0,0,1,0-23.1A70.8,70.8,0,0,1,8,38.47,71.21,71.21,0,0,1,38.47,8a70.8,70.8,0,0,1,21.17-7L61.19.7h0c22.93-3,35.79,8.67,40.25,13.81"/><path class="cls-7" d="M104.7,23.17c23.94,45.89-28.28,111.59-75.51,95C20.45,115.1,5.13,106.32.82,82.05A72.25,72.25,0,0,1,.93,59.64,70.8,70.8,0,0,1,8,38.47,71.21,71.21,0,0,1,38.47,8,70.37,70.37,0,0,1,48.69,3.63c1.48-.5,3-.94,4.52-1.34h0c34.35-8.21,48.92,16,51.49,20.88"/><path class="cls-6" d="M104.16,28.11C123.49,79.58,64.37,132.73,25,114.26,2.17,103.53.57,81.19.05,73.85c0-.89,0-1.77,0-2.66A72.1,72.1,0,0,1,.93,59.64,70.8,70.8,0,0,1,8,38.47,71.21,71.21,0,0,1,38.47,8a69.33,69.33,0,0,1,7-3.17h0c34.82-12.4,53.6,9.84,58.67,23.33"/><path class="cls-5" d="M103.17,33.41c12.53,49.37-44.66,101.05-83.83,75.76C5.67,100.34-1.28,84.23.27,65c.15-1.79.38-3.56.66-5.32A70.8,70.8,0,0,1,8,38.47,71.68,71.68,0,0,1,29.14,13.73a73.23,73.23,0,0,1,8.37-5.28h0c32.37-16.84,59.28-.16,65.66,25"/><path class="cls-4" d="M100.44,33.41c12.09,48.5-45.11,98.73-82.7,72.64C10.71,101.16-4.9,86.36,2,54.33c.46-1.91,1-3.8,1.62-5.64A70.37,70.37,0,0,1,8,38.47,71.5,71.5,0,0,1,28.57,14.16h0C65.4-11.32,94.45,9.37,100.44,33.41"/><path class="cls-12" d="M98.83,39.05c6.92,51.16-52,87.89-82.55,63.8-15.1-11.92-23-37.43-6.6-67.52a70.78,70.78,0,0,1,4.05-6.19l.8-1.06h0c33-40,79.11-27.44,84.3,11"/><path class="cls-13" d="M96.24,39.05C102.66,85.7,48,126.48,15,99.66-17.55,73.19,8.67,9.11,54,4.42,78.25,1.91,93.62,19.94,96.24,39.05"/><path class="cls-14" d="M94.11,45c.94,51.33-56.31,73.93-80.26,51.39-29.74-28-1.92-89.29,41.34-91.11C80,4.23,93.75,25,94.11,45"/><path class="cls-15" d="M91.68,45c2.24,46.28-53.39,72.72-78.85,48-27.19-26.38.25-84.65,40.79-86.6C74.88,5.4,90.53,21.26,91.68,45"/><path class="cls-16" d="M89.57,51.2C87,93.61,33,113.85,12,89.53-12.8,60.94,16.66,5.84,55.73,7.65,82.21,8.87,90.54,35,89.57,51.2"/><path class="cls-17" d="M87.43,51.2C85,93.82,32.75,111.62,11.21,85.89-9.47,61.19,14.64,7,54.49,9c24,1.25,33.87,25.91,32.94,42.18"/><path class="cls-18" d="M85.26,51.2c-2.34,43.55-53.19,55.56-72.51,33.52C-9.66,59.15,18,8.51,53.28,10.5c22.23,1.25,32.85,24.44,32,40.7"/><path class="cls-19" d="M83.1,57.66c-5.31,34.62-56.36,48.9-72.84,20.39S25,5.67,56.61,12.77C74.1,16.69,86.23,37.25,83.1,57.66"/><path class="cls-20" d="M81.71,57.66C76.4,90.19,30,103.91,12.7,78.05-7,48.58,27.62,7.26,55.7,14.63c16.58,4.35,29,24.86,26,43"/><path class="cls-21" d="M80.31,57.66C74.69,90.11,31.23,99.31,15.36,78.05-4.3,51.7,21.63,13.65,49.65,15.84c17.83,1.4,33.87,23.29,30.66,41.82"/><path class="cls-22" d="M78.9,57.66C73.44,87.51,31.85,98.22,15.33,74-1.3,49.68,26.07,10.53,53.87,18.93,68,23.18,82,41,78.9,57.66"/><path class="cls-23" d="M77.48,57.66C71.71,87.58,32.2,96.31,16.22,71.19,1.75,48.47,27.54,13.49,53,21.28c15.57,4.77,27.24,22.11,24.48,36.38"/><path class="cls-24" d="M76.06,57.66c-5.82,30-42.87,34.67-57,13.53-15-22.37,7.35-54.34,33.17-47.52,15.43,4.08,26.58,20,23.86,34"/><path class="cls-25" d="M74.9,52.22c-.41,10.27-4.16,23.67-19.71,29.24S27.63,79.38,21.92,71.19c-16-23,6.71-50.94,29.59-45.29C61.4,28.34,75.42,39.12,74.9,52.22"/><path class="cls-26" d="M73.75,57.66c-3.54,24.11-36,33-49.63,13.53a27.31,27.31,0,0,1,26.75-43C59.2,29.47,76.54,38.7,73.75,57.66"/><path class="cls-27" d="M72.77,57.66C70.49,72.82,55.27,79,55.12,79c-8.21,2.39-9.22,2.55-17.95.16-2.63-.71-10.11-7.11-10.78-8-6.06-8-6.43-20.24-3-26.2,8.27-14.22,19.24-16.07,27-15.11,10.92,1.35,24.76,11.75,22.35,27.78"/><path class="cls-28" d="M71.78,57.66C69.36,73.41,45.49,90,28.91,71.35,14,54.55,30.52,29.9,50,31.62c8.59.76,24.34,9.43,21.79,26"/><path class="cls-29" d="M68.62,64.33c-.29.58-7.35,14.2-22.8,14.2-8,0-16.24-6-19.56-14.2-7.58-18.82,14.67-36.24,31-29.55.09,0,9.3,4.93,11.33,10.21s4.21,11,0,19.34"/><path class="cls-30" d="M67.53,64.33c-1.13,2.19-7.46,13.13-21.74,13.13-2.74,0-6.59-.89-8.79-2.52-5-3.69-6.49-4.81-8.93-10.61-5.06-12,3.4-20.74,4.38-21.69,3.23-3.15,5.77-5.63,8.93-6.47,3.86-1,9.7-2.6,15.75-.14,8.32,3.39,17.37,14.72,10.4,28.3"/><path class="cls-31" d="M66.44,64.33c0,.06-3,5.58-11.39,10.51-2.44,1.43-6.46,1.62-9.29,1.62A16.63,16.63,0,0,1,37,73.56a19.66,19.66,0,0,1-7.34-9.23C23.09,46.7,42.2,31.29,57,37.3c5.29,2.15,9.23,6.83,11.7,13.9,1.84,5.24-2.19,13-2.23,13.13"/><path class="cls-32" d="M65.35,64.33c0,.06-4.75,6.35-10.31,9.51-2.47,1.39-6.47,1.62-9.3,1.62s-6.53-1.61-8.78-3.3c-3.27-2.44-6.1-7.78-6.12-7.83-2.47-6.15.27-16.4,3.23-19.34,5.12-5.07,5.12-5.07,14.7-7.77,2.36-.66,5.78.44,8,1.37.24.1,7.66,6.08,7.93,6.4.77.9,2.87,6.17,2.88,6.21,1.63,4.91-1,10.82-2.28,13.13"/><path class="cls-33" d="M64.91,62.75c-1.73,4.23-9.8,10-9.88,10.07-2.42,1.48-6.48,1.5-9.31,1.64,0,0-7.37-2.73-8.76-3.77a17.37,17.37,0,0,1-4.89-6.36c-2.45-5.6-.66-15,3.68-19.34,2.89-2.89,4.35-4.34,12.78-6.46l8.16,1.2A21.2,21.2,0,0,1,63.25,45a21.54,21.54,0,0,1,3.34,6.21c1.43,4,.19,7-1.68,11.55"/><path class="cls-34" d="M64.94,60c-.53,1.3-1,3.21-1.92,4.29,0,0-6.07,6.14-8,7.48-2.33,1.62-6.51,1.26-9.33,1.64-.07,0-9.29-2.27-12.38-9.12A18,18,0,0,1,37.46,45c3.28-3.32,10.78-5.27,10.85-5.28a15.37,15.37,0,0,1,8.26,1.1c2.93,1.26,6.94,5.67,8.58,9.43a12.52,12.52,0,0,1-.21,9.8"/><path class="cls-35" d="M61.84,64.33c-1.63,2.29-4.3,5.16-6.81,6.42-.1,0-9.26,1.71-9.34,1.69S33,69.18,33.05,57.66c0-2,.23-4.85,1.4-6.46C38.93,45,38.93,45,43.92,42.71c1.25-.58,2.82-1.82,4.2-1.91,2.52-.17,5.84.75,8.33,1.09,1.46.21,2.82,2,3.81,3.1,2.13,2.35,8.62,9.49,1.58,19.34"/><path class="cls-36" d="M60.66,64.33c-1.35,1.89-3.53,4.31-5.63,5.31l-9.34,1.79c-1-.26-8.61-5.52-8.64-5.57-2.53-3-2.88-8.15-2.88-8.2,0-8.47,7.07-12.63,7.14-12.67,2-1,4.44-3.09,6.63-3.09A34,34,0,0,1,56.34,43a6.71,6.71,0,0,1,2.45,2c2.66,2.86,8.9,9.56,1.87,19.34"/><path class="cls-37" d="M59.5,64.33c-1.08,1.49-2.78,3.47-4.46,4.2-2.62,1.13-6.55,2.36-9.35,1.78-3-.63-6.51-3.55-8.48-6-.23-.28-1.9-6.65-1.91-6.7-.18-2.16.24-7.72,8.2-12.67,1.2-.75,2.86-1.88,4.27-2,2.55-.18,6.33-.33,8.47,1.08S62,51.16,62,51.2a12.12,12.12,0,0,1,.62,6.46,18.35,18.35,0,0,1-3.15,6.67"/><path class="cls-38" d="M58.33,64.33a8.89,8.89,0,0,1-3.28,3.09c-2.67,1-6.56,2.33-9.35,1.75-2.48-.52-5.35-2.86-6.94-4.84a12,12,0,0,1-2.31-6.67,12.33,12.33,0,0,1,1.8-6.46c.29-.39,7.43-6.18,7.49-6.21a4,4,0,0,1,1.86-.86c.27,0,8.49,1.08,8.53,1.12a17.79,17.79,0,0,1,4.71,6,12.81,12.81,0,0,1,.72,6.46,18.13,18.13,0,0,1-3.23,6.67"/><path class="cls-39" d="M57.18,64.33a5.46,5.46,0,0,1-2.12,2c-2.71.87-6.56,2.3-9.34,1.71a10.83,10.83,0,0,1-5.35-3.7c-1.33-1.7-2.91-4.51-2.75-6.67a13.2,13.2,0,0,1,2.13-6.46c1.81-2.27,4.86-5.19,7.68-5.9,2.52-.64,6.24.14,8.59,1.27,1.59.77,2.83,3.06,3.64,4.63a11.34,11.34,0,0,1,.81,6.46,18.75,18.75,0,0,1-3.29,6.67"/><path class="cls-40" d="M56,64.33c-.23.32-.57.8-1,.89-2.76.69-6.69,2.72-9.34,1.68A9.17,9.17,0,0,1,42,64.33c-1.29-1.77-2.93-4.47-3-6.67a11.78,11.78,0,0,1,2.29-6.46c1.35-1.81,3.78-4,6-4.59,2.55-.65,6.23.31,8.66,1.3,1.16.48,2,2.17,2.57,3.29a11.67,11.67,0,0,1,.91,6.46A18.75,18.75,0,0,1,56,64.33"/><path class="cls-41" d="M55.11,63.91a69.34,69.34,0,0,1-9.35,1.86,5,5,0,0,1-2.1-1.44c-1.23-1.85-3.19-4.44-3.28-6.67-.05-1.2,2.3-8.6,6.7-9.73,2.57-.66,6.21.53,8.73,1.34.7.22,1.18,1.27,1.51,1.93a11.89,11.89,0,0,1,1,6.46,11.94,11.94,0,0,1-3.21,6.25"/><path class="cls-42" d="M55.17,61.67c-.6.52-8.84,3.14-9.37,3-.93-.28-4-6.93-4-7-.1-2.09,1.53-4.67,2.62-6.46a4.83,4.83,0,0,1,2.51-1.94c2.59-.66,6.18.82,8.79,1.37.21,0,.33.39.45.57,1.08,1.64,1.27,4.51,1.09,6.46a6.89,6.89,0,0,1-2.08,4"/><path class="cls-43" d="M55.25,59.46c-2.26,1.91-6.62,4.18-9.37,3.11-1.56-.62-2.61-3.24-2.67-4.91,0-.06,2.2-6.7,3.56-7a7.24,7.24,0,0,1,3.73.59c1.6.6,4,1.29,5,2.66s1,4.51-.26,5.6"/><path class="cls-44" d="M46,60.14a3.08,3.08,0,0,1-1.35-2.48c-.06-1.38.53-3.78,1.84-4.21,2.43-.8,5.18,3,7.41,4.21-2.37.74-5.6,3.4-7.9,2.48"/><path class="cls-45" d="M46.15,57.74s0-.05,0-.08a.16.16,0,0,1,.06-.13c.07,0,.15.09.22.13s-.17.1-.23.08"/></g><path class="cls-47" d="M78.73,73.87c-.75,2.28-2.91,3.77-4,4.48-8.9,6.13-24.2,16.42-26.63,16.57-6.49-.22-6.57-6.76-6.77-22.57V70.27c0-.7,0-1.39,0-2.08s0-1.38.05-2.06,0-1.36.07-2,.06-1.36.1-2,.07-1.34.12-2,.09-1.33.14-2,.11-1.32.17-2c1-8.11,7.3-6.52,7.36-6.5.21.08,26.14,15.79,28.59,19.51a5.3,5.3,0,0,1,.73,4.77M108,78c3.9-29.93-21.62-56.78-52.51-55.24C10.76,29.45-3.29,85.23,33.08,111.85c33.21,24.32,71-3.37,75-33.83"/></g></g><g class="cls-2"><g class="cls-48"><g class="cls-2"><path class="cls-9" d="M142.38,71.19a72.1,72.1,0,0,1-.93,11.55,70.34,70.34,0,0,1-2.7,11c-2.39,6.33-4.45,11.79-10.1,19.54a71.5,71.5,0,0,1-15.41,15.41c-17.7,12.75-33.54,13.39-42,13.73A71.19,71.19,0,0,0,71.19,0C78.93.31,86.93.64,98.9,5.59a71.12,71.12,0,0,1,43.48,65.6"/><path class="cls-9" d="M82.74.93c3.31.68,7.7,1.76,11,2.7l5.21,2,5,2.36,4.78,2.72,4.55,3.06,4.28,3.41,4,3.71,3.71,4,3.41,4.28,3.07,4.55,2.72,4.78,2.35,5,2,5.21,1.56,5.39,1.14,5.56.69,5.71.24,5.84a72.1,72.1,0,0,1-.93,11.55,70.34,70.34,0,0,1-2.7,11h0c-1.17,3.11-2.9,7.2-4.31,10.21l-2.72,4.79-3.07,4.54-3.41,4.28-3.71,4-4,3.72-4.28,3.4-4.55,3.07-4.78,2.72-5,2.35c-1.56.59-3.54,2-5.21,2L88.3,140.3l-5.56,1.14-5.71.7-5.84.23A71.19,71.19,0,0,0,71.19,0L77,.24l5.71.69"/><path class="cls-10" d="M82.74.93a108.65,108.65,0,0,1,11,2.7l5.21,2,5,2.36,4.78,2.72,4.55,3.06,4.28,3.41,4,3.71,3.71,4,3.41,4.28,3.07,4.55,2.72,4.78,2.35,5,2,5.21,1.56,5.39,1.14,5.56.69,5.71.24,5.84a72.1,72.1,0,0,1-.93,11.55,70.34,70.34,0,0,1-2.7,11h0c-1.17,3.11-2.9,7.2-4.31,10.21l-2.72,4.79-3.07,4.54-3.41,4.28-3.71,4-4,3.72-4.28,3.4-4.55,3.07-4.78,2.72-5,2.35c-1.56.59-3.54,2-5.21,2L88.3,140.3l-5.56,1.14-5.71.7-5.84.23A71.19,71.19,0,0,0,78.45.37c1.29.17,3,.35,4.29.56"/><path class="cls-11" d="M93.69,3.63A105.3,105.3,0,0,1,103.91,8l4.78,2.72,4.55,3.06,4.28,3.41,4,3.71,3.71,4,3.41,4.28,3.07,4.55,2.72,4.78,2.35,5,2,5.21,1.56,5.39,1.14,5.56.69,5.71.24,5.84a72.1,72.1,0,0,1-.93,11.55,70.34,70.34,0,0,1-2.7,11h0c-1.17,3.11-2.9,7.2-4.31,10.21l-2.72,4.79-3.07,4.54-3.41,4.28-3.71,4-4,3.72-4.28,3.4-4.55,3.07-4.78,2.72-5,2.35c-1.56.59-3.54,2-5.21,2L88.3,140.3l-5.56,1.14-5.71.7-5.84.23a71.19,71.19,0,0,0,18.16-140c1.3.38,3.05.85,4.34,1.29"/></g></g></g></g></g></g></svg>