<svg xmlns="http://www.w3.org/2000/svg" viewBox="0 0 165.25 165.22"><defs><style>.cls-1{fill:#0073a2;}</style></defs><title>Recurso 8</title><g id="Capa_2" data-name="Capa 2"><g id="Capa_1-2" data-name="Capa 1"><path class="cls-1" d="M50.32,32.94c2.5.29,3.66,2.13,5,3.58s2.28,1.72,4.07.71a37.49,37.49,0,0,1,7.4-3.07c2-.61,2.77-1.59,2.47-3.64a13.34,13.34,0,0,1,0-3.22c.21-2.09,1.28-3.4,3.52-3.4q9.83,0,19.67,0c2.23,0,3.3,1.33,3.5,3.42a12.85,12.85,0,0,1,0,3.22c-.33,2.08.47,3.15,2.5,3.6a10.94,10.94,0,0,1,3.61,1.32C106,38,109.39,38.53,112.48,34c1.21-1.75,3.24-1.33,4.78.2L131,47.9c2,2,1.68,4.06-.37,5.51-3.52,2.49-3.65,5.21-1.33,8.48a4,4,0,0,1,.62,1.48c.86,4.41,2.91,6.86,8,6,2.35-.42,3.54,1.47,3.52,4,0,6,0,12,0,18,0,3.59-1,4.87-4.59,4.53-3.76-.36-5.78.86-6.36,4.56a4.52,4.52,0,0,1-.68,1.8c-2.67,3.81-3,7.12,1.38,10.11,1.74,1.2,1.57,3.21,0,4.78q-6.91,7-13.9,13.91c-1.86,1.85-3.9,1.58-5.26-.36-2.54-3.62-5.35-3.93-8.75-1.42a2.23,2.23,0,0,1-.86.42c-4.54.9-7.44,2.84-6.48,8.27.38,2.16-1.38,3.42-3.74,3.41q-9.51,0-19,0c-2.55,0-3.72-1.35-3.84-3.76a16.49,16.49,0,0,1,0-3.22c.31-2-.62-2.91-2.46-3.31a10.36,10.36,0,0,1-3-1.07c-4.11-2.44-7.88-3.73-11.26,1.32-1.09,1.63-3.1,1.13-4.53-.29L34.33,117.35c-1.95-1.94-1.81-4,.26-5.51,3.29-2.45,4-5.1,1.46-8.45a3.77,3.77,0,0,1-.63-1.47c-.93-4.27-2.73-7.06-7.93-6.08-2.31.43-3.64-1.33-3.62-3.86q.07-9.35,0-18.7c0-2.89,1.53-4.37,4.19-4,4.17.59,6.4-.92,6.92-5.07a2.34,2.34,0,0,1,.39-.87C37.73,59.43,39,55.79,34,52.67c-1.49-.93-1.45-2.94-.12-4.29Q41.11,41,48.49,33.8A5.63,5.63,0,0,1,50.32,32.94Zm64,91.51c.84-.66,1.37-1,1.81-1.44,2.07-2,4-4.26,6.2-6.11,2-1.69,1.77-2.77,0-4.45-3.55-3.29-3.44-3.38-1-7.6a44.28,44.28,0,0,0,4.13-9.74c1.54-5.38,1.58-5.45,7.38-5.57,1.69,0,2.25-.49,2.17-2.19a57.05,57.05,0,0,1,0-8.06c.28-2.92-.64-4.05-3.64-3.64-2.36.32-4.61,0-5.25-2.93a43.05,43.05,0,0,0-5.74-13.89,3.5,3.5,0,0,1,.18-4.44c1.11-1.46,3.83-2.27,3.22-4.27-.5-1.64-2.53-2.82-3.89-4.19a31.76,31.76,0,0,1-2.93-3c-1.56-2.09-2.73-1.83-4.43,0-3.27,3.54-3.38,3.43-7.62,1a43.53,43.53,0,0,0-9.44-4c-5.61-1.64-5.69-1.66-5.84-7.5,0-1.8-.69-2.14-2.27-2.09a63.32,63.32,0,0,1-8.38,0c-2.8-.27-3.62.78-3.23,3.39.54,3.54-1,5.26-4.61,5.91a33.1,33.1,0,0,0-9.84,3.87c-5,2.75-5.08,2.8-9.16-1.18-1.16-1.13-1.88-1.32-3-.05a61.36,61.36,0,0,1-5.94,5.91c-2,1.72-2.21,3,0,4.67,1.89,1.49,3.62,3.25,1.86,6A42.88,42.88,0,0,0,39.17,72.7a3.4,3.4,0,0,1-3.3,3c-1.78.14-4.28-.87-5.17.52s-.31,3.73-.35,5.65a30.79,30.79,0,0,1,0,4.19c-.41,2.82.56,3.92,3.46,3.48,3.31-.51,5.15.81,5.78,4.34a33.16,33.16,0,0,0,4,10.14c2.73,5,2.78,5-1.24,9.15-1.14,1.17-1.31,1.89,0,3a61.36,61.36,0,0,1,5.91,5.94c1.72,2.06,3,2.24,4.65,0,2.06-2.82,4.38-3.25,7.42-1.09a31.79,31.79,0,0,0,9.68,4.23c5.53,1.6,5.61,1.63,5.76,7.56,0,1.81.71,2.13,2.28,2.08a54.19,54.19,0,0,1,8.06,0c3.11.35,3.94-.92,3.55-3.72-.46-3.23.92-4.87,4.25-5.53a30.91,30.91,0,0,0,11.51-4.81c2.81-1.94,4.93-1.53,6.93,1C112.91,122.73,113.6,123.55,114.33,124.45Z"/><path class="cls-1" d="M82.27,0A78.79,78.79,0,0,1,96.7,1.23c4,.67,5.37,1.82,4.8,4.2C100.67,8.82,98,8,95.73,7.65c-20-3.38-38.47.52-55.31,11.68a76.08,76.08,0,0,0-20,107.29c1.3,1.83,2.27,2.72,4.84,1.83a13,13,0,0,1,15.65,6.35A13.54,13.54,0,0,1,21.3,152.4a13.09,13.09,0,0,1-4.77-16c1-2.25.57-3.56-.75-5.38-35.4-48.92-8.17-118,51.1-129.58A71.51,71.51,0,0,1,82.27,0ZM29.18,134.24a7.09,7.09,0,1,0,7,7.27A7.11,7.11,0,0,0,29.18,134.24Z"/><path class="cls-1" d="M82.74,165.21A79.37,79.37,0,0,1,68.31,164c-3.53-.59-5-1.92-4.4-4.22.9-3.33,3.57-2.52,5.82-2.13a74.67,74.67,0,0,0,44.94-6c43.25-19.94,57.67-75,29.81-113.48-1.14-1.58-2-2.2-4.11-1.46a13.23,13.23,0,0,1-16-6.2,13.54,13.54,0,0,1,19.53-17.73A13.23,13.23,0,0,1,148.5,29.3a3.65,3.65,0,0,0,.55,4.27C184.8,83,158.47,151.09,98.75,163.65A71,71,0,0,1,82.74,165.21ZM129.1,23.79a7.09,7.09,0,1,0,7.27-7A7.09,7.09,0,0,0,129.1,23.79Z"/><path class="cls-1" d="M56.24,156.38c-.22,2-1.27,3.1-3.33,3.05a2.92,2.92,0,0,1-3-3A3,3,0,0,1,53,153.11C55,153.09,56.11,154.31,56.24,156.38Z"/><path class="cls-1" d="M112.42,12.27C110.5,12,109.17,11,109.16,9a3.17,3.17,0,0,1,6.34-.17C115.64,10.87,114.33,11.88,112.42,12.27Z"/><path class="cls-1" d="M82.62,56A26.6,26.6,0,1,1,56,82.62,26.46,26.46,0,0,1,82.62,56Zm.06,6.46a20.14,20.14,0,1,0,20.08,20.35A20,20,0,0,0,82.68,62.48Z"/></g></g></svg>