<svg xmlns="http://www.w3.org/2000/svg" viewBox="0 0 130.99 164.37"><defs><style>.cls-1{fill:#0073a2;}</style></defs><title>Recurso 5</title><g id="Capa_2" data-name="Capa 2"><g id="Capa_1-2" data-name="Capa 1"><path class="cls-1" d="M107.84,35.9c3.41,0,6.39,0,9.36,0,7.75.13,13.72,5.87,13.73,13.6q.12,50.55,0,101.11a13.4,13.4,0,0,1-13.37,13.65q-40.57.19-81.17,0c-7.55,0-13.13-6.15-13.27-13.76-.05-3,0-5.94,0-9.28-3.12,0-6,0-8.83,0C5.82,141.09,0,135.3,0,126.78Q0,76.88,0,27c0-8.34,5.84-14.14,14.14-14.17q19.89-.06,39.79,0c1.78,0,2.76-.28,3.43-2.31a15.29,15.29,0,0,1,29-.16c.7,2.11,1.68,2.64,3.64,2.47a37.35,37.35,0,0,1,4.49,0,13.65,13.65,0,0,1,13.31,13.05C108,29,107.84,32.24,107.84,35.9Zm-51.37-12-.53-.82q-20.19,0-40.39,0c-4.32,0-5.25.93-5.25,5.26q0,48.62,0,97.22c0,4.49.91,5.38,5.49,5.38h76c4.92,0,5.76-.83,5.76-5.77q0-46.53,0-93c0-9.45,0-9.13-9.2-9.08a5.64,5.64,0,0,0-4.86,2.18A14.38,14.38,0,0,1,67.66,30a3.72,3.72,0,0,0-4.41,1.23c-2.24,2.43-4.65,4.72-7,7-3.16,3.12-6,3.51-8.37,1.18s-2.12-5.27,1-8.35C51.35,28.67,53.93,26.3,56.47,23.89ZM33.41,141.22c0,2.72,0,5.05,0,7.38,0,4.5.94,5.45,5.44,5.45h76.37c4.53,0,5.46-.93,5.47-5.43V90.84c0-13.27,0-26.54,0-39.81,0-2.35-.4-4.51-3.13-4.74-3.14-.26-6.33-.06-9.7-.06V50.4q0,38.21,0,76.41c0,8.5-5.8,14.31-14.29,14.4-6,.07-12,0-18,0Zm38.75-131a5.16,5.16,0,0,0-5.3,4.9A5.05,5.05,0,0,0,77,15.66,5.18,5.18,0,0,0,72.16,10.25Z"/><path class="cls-1" d="M53.92,59q13.45,0,26.91,0c4,0,6.41,1.93,6.42,5.09s-2.41,5.19-6.38,5.19Q54,69.33,27,69.3c-4,0-6.4-2-6.41-5.15S23,59,27,59Q40.46,59,53.92,59Z"/><path class="cls-1" d="M53.91,84.7c9,0,17.94,0,26.92,0,4,0,6.41,1.93,6.42,5.09S84.84,95,80.88,95Q54,95,27.05,95c-4,0-6.41-2-6.42-5.14S23,84.71,27,84.7C36,84.68,44.94,84.7,53.91,84.7Z"/><path class="cls-1" d="M66.71,112.84a5.07,5.07,0,1,1-10.14.18,5.07,5.07,0,1,1,10.14-.18Z"/><path class="cls-1" d="M82.32,118.07a5.29,5.29,0,0,1-5.21-5,5.08,5.08,0,1,1,10.15-.28A5.31,5.31,0,0,1,82.32,118.07Z"/></g></g></svg>