<svg xmlns="http://www.w3.org/2000/svg" viewBox="0 0 171.49 164.37"><defs><style>.cls-1{fill:#0073a2;}</style></defs><title>Recurso 4</title><g id="Capa_2" data-name="Capa 2"><g id="Capa_1-2" data-name="Capa 1"><path class="cls-1" d="M80.22,54.87c-22.82,0-45.64.06-68.47-.08-3.16,0-3.88,1-3.86,4C8,84.16,7.93,109.55,8,135c0,7,2.47,9.44,9.55,9.45q34.91,0,69.81,0a13.09,13.09,0,0,1,3,.12c2,.5,3.49,1.79,3.43,4a3.82,3.82,0,0,1-3.57,3.81,14,14,0,0,1-2.34.07q-35.41,0-70.82,0c-10.69,0-17-6.45-17-17.21Q0,83.81,0,32.46c0-10.41,6.5-16.87,17-16.92,5,0,10.07-.08,15.1,0,2,0,2.81-.45,3-2.72C35.91,5.68,41.11.55,47.62,0A13.77,13.77,0,0,1,62.07,10.12c.52,1.72-.53,4.26,1,5,1.76.83,4.14.41,6.26.41,9.73,0,19.46,0,29.2.05,2,0,2.78-.46,3-2.73C102.38,5,108.25-.12,115.72,0c7,.14,12.51,5.48,13.1,13.11.15,1.94.77,2.46,2.59,2.42,4-.1,8.06-.05,12.08,0,9.75.06,16.64,6.59,16.74,16.31.15,16.22.08,32.44,0,48.66,0,4.2-2.8,6.55-5.72,5-1.83-1-2.22-2.59-2.21-4.53,0-7.61-.1-15.22.07-22.82.06-2.66-.74-3.39-3.38-3.38-22.93.09-45.87.05-68.8.05Zm-.34-7.94h7.39c20.58,0,41.16,0,61.74.06,2.59,0,3.56-.62,3.4-3.34-.23-4,0-8-.09-12.07-.14-4.81-3.29-7.95-8.07-8.06-4.36-.1-8.72,0-13.08-.06-1.76,0-2.21.58-2.34,2.3-.56,7.73-5.83,13-12.93,13.22-7.68.21-13.49-4.68-14.29-12.56-.27-2.64-1.21-3-3.47-3-9.62.11-19.24.05-28.86.06-1.9,0-4-.45-5.66.14-2.41.85-.95,3.49-1.5,5.28A13.78,13.78,0,0,1,47.31,39c-6.26-.47-11.42-5.66-12.16-12.7-.22-2.15-.77-2.86-2.94-2.8-5.36.13-10.73,0-16.1.07-5.13.08-8,3-8.14,8.19-.08,3.91.16,7.84-.07,11.74-.17,2.8.73,3.57,3.53,3.55C34.25,46.89,57.07,46.94,79.88,46.93ZM109.42,19.6c0,2-.1,4,0,6A5.43,5.43,0,0,0,115.35,31a5.23,5.23,0,0,0,5.53-5.41q.21-6,0-12c-.12-3.54-2.36-5.64-5.69-5.64s-5.55,2.11-5.77,5.62C109.31,15.59,109.41,17.6,109.42,19.6Zm-54.91,0c0-2,.09-4,0-6C54.31,10.18,52.2,8.09,49,8a5.48,5.48,0,0,0-6,5.44,119.27,119.27,0,0,0,0,12.4c.2,3.45,2.72,5.37,6.17,5.22,3.19-.13,5.14-2.21,5.26-5.71C54.56,23.43,54.5,21.52,54.51,19.62Z"/><path class="cls-1" d="M103.3,130.18a34.1,34.1,0,1,1,68.19.12,34.1,34.1,0,1,1-68.19-.12Zm34-26.21a26.22,26.22,0,1,0,.51,52.44c14.1-.09,26-12.19,25.86-26.34A26.27,26.27,0,0,0,137.33,104Z"/><path class="cls-1" d="M66.44,76.18A13.62,13.62,0,0,1,80.32,62.47,14,14,0,0,1,93.84,76.34c.07,7.19-6.47,13.59-13.84,13.55A13.75,13.75,0,0,1,66.44,76.18Zm19.46.08a5.78,5.78,0,0,0-5.65-5.83,5.75,5.75,0,1,0-.18,11.5A6,6,0,0,0,85.9,76.26Z"/><path class="cls-1" d="M80,128.89a13.52,13.52,0,0,1-13.57-13.63,13.84,13.84,0,0,1,13.87-13.79,13.71,13.71,0,0,1-.3,27.42Zm5.89-13.51a6,6,0,0,0-5.59-5.95,5.56,5.56,0,0,0-5.92,5.45,5.47,5.47,0,0,0,5.63,6A5.62,5.62,0,0,0,85.9,115.38Z"/><path class="cls-1" d="M27.44,76.1a13.51,13.51,0,0,1,13.9-13.63A13.82,13.82,0,0,1,54.72,76.41c0,7.21-6.54,13.62-13.86,13.5A13.56,13.56,0,0,1,27.44,76.1ZM41,81.93A5.76,5.76,0,1,0,35.1,76.2,6,6,0,0,0,41,81.93Z"/><path class="cls-1" d="M27.45,115.16a13.59,13.59,0,0,1,13.89-13.69,14.11,14.11,0,0,1,13.43,13.65,13.86,13.86,0,0,1-13.91,13.77A13.45,13.45,0,0,1,27.45,115.16Zm19.45.1A5.9,5.9,0,0,0,35.11,115a5.9,5.9,0,0,0,5.94,5.93A5.79,5.79,0,0,0,46.9,115.26Z"/><path class="cls-1" d="M132.84,76.08a13.71,13.71,0,1,1-13.72-13.61A13.89,13.89,0,0,1,132.84,76.08Zm-13.71,5.85a5.75,5.75,0,1,0-5.74-5.67A5.55,5.55,0,0,0,119.13,81.93Z"/><path class="cls-1" d="M142.54,132.86c-10.53.27-9.78-.67-9.69-9.79,0-2-.06-4,.05-6a3.5,3.5,0,0,1,3.59-3.64,3.39,3.39,0,0,1,4,3.17,41.44,41.44,0,0,1,.28,6c0,1.7.58,2.44,2.33,2.35a49.45,49.45,0,0,1,5,0c2.44.12,4.14,1.36,4.18,3.87s-1.61,3.85-4.05,4C146.34,133,144.43,132.86,142.54,132.86Z"/></g></g></svg>