<svg xmlns="http://www.w3.org/2000/svg" viewBox="0 0 136.82 159"><defs><style>.cls-1{fill:#0073a2;}</style></defs><title>Recurso 12</title><g id="Capa_2" data-name="Capa 2"><g id="Capa_1-2" data-name="Capa 1"><path class="cls-1" d="M68.62,158.87H16.2c-10.85,0-17.79-8.18-15.89-18.78a6.45,6.45,0,0,1,5.46-5.6,20.79,20.79,0,0,1,3.7-.23h93.05c8.67,0,10.23,1.5,10.54,10.18a9.59,9.59,0,0,0,8.07,9.53,9.34,9.34,0,0,0,10.28-6.14,15.37,15.37,0,0,0,.54-5.52q0-50.85,0-101.72c0-2-.7-4.83,2.26-4.9,3.31-.09,2.44,3,2.44,5,0,34-.14,68,.14,102,.07,9-6.29,16.58-16.41,16.32C103.16,158.54,85.88,158.87,68.62,158.87Zm43.47-4.68a16.59,16.59,0,0,1-3.84-11c0-4.23,0-4.23-4.42-4.23H37.52c-9.71,0-19.42.06-29.13,0-2.56,0-3.45.9-3.48,3.43-.08,8,3.61,11.8,11.64,11.8q46,0,92,0Z"/><path class="cls-1" d="M11.78,67.84q0-27.14,0-54.28C11.8,4.58,16.38,0,25.31,0H123c9,0,13.66,4.66,13.67,13.78,0,3.92,0,7.85,0,11.78,0,1.72,0,3.6-2.28,3.65-2.56.07-2.46-2-2.47-3.78,0-4.24,0-8.48,0-12.72-.07-5.33-2.69-8-8.07-8q-49.63,0-99.27,0c-5.57,0-8.21,2.82-8.21,8.54q0,54.91,0,109.82a26,26,0,0,1-.05,2.79,2.07,2.07,0,0,1-2.26,2,2,2,0,0,1-2.24-2.06c-.08-.92-.05-1.86-.05-2.79Q11.77,95.46,11.78,67.84Z"/><path class="cls-1" d="M46.71,26.14c0,4,.07,7.8,0,11.59,0,1.33.87,1.51,1.68,1.79,5.2,1.8,8.42,5.1,8.42,10.88,0,5.38-3,9.55-8.48,11.68a2.08,2.08,0,0,0-1.6,2.49c.14,1.8-.23,3.54-2.42,3.52-2,0-2.46-1.67-2.31-3.35s-.47-2-2-2.21a13.85,13.85,0,0,1-6.5-2.71,2.23,2.23,0,0,1-.7-3.25,2.16,2.16,0,0,1,3-.73c1.82.89,4,2.94,5.57,1.79.83-.59.78-3.34.76-6.11s0-5.42-.12-6.05c-.38-2.57-1.71-4.7-5-6.55-6.19-3.53-4.39-13.55,2.52-16.53C41.25,21.64,42.2,21,42,18.94a2.23,2.23,0,0,1,2.41-2.61,2.29,2.29,0,0,1,2.26,2.77c-.22,1.85.55,2.47,2.28,2.84a12.68,12.68,0,0,1,3.85,1.9c1.24.8,1.93,2,1,3.41s-2.19,1.42-3.48.51A10.41,10.41,0,0,0,46.71,26.14Zm0,31.48c3.87-1.81,5.82-4.84,5.4-8-.39-3-2.23-4.72-5.4-5.19ZM41.81,26.37c-2.92,1.61-4,3.68-3.7,6.33.23,2.09,1.66,3.22,3.7,3.73Z"/><path class="cls-1" d="M75.33,77h37.79a10.14,10.14,0,0,1,2.76.19,2.15,2.15,0,0,1,1.62,2.35,2.08,2.08,0,0,1-1.65,2,10,10,0,0,1-2.44.22q-38.41,0-76.82,0a11.1,11.1,0,0,1-2.45-.17,2.1,2.1,0,0,1-1.76-2.23,2.13,2.13,0,0,1,1.77-2.22A12.75,12.75,0,0,1,36.92,77Z"/><path class="cls-1" d="M75,101.11H36.6a9.63,9.63,0,0,1-2.74-.25,2.27,2.27,0,0,1,0-4.25,9,9,0,0,1,2.44-.26q38.56,0,77.12,0a10.33,10.33,0,0,1,2.16.11,2.31,2.31,0,0,1,0,4.55,12.85,12.85,0,0,1-2.78.11Z"/><path class="cls-1" d="M94.22,49.65c6.51,0,13,0,19.54,0,1.72,0,3.61,0,3.69,2.24.08,2.55-2,2.48-3.78,2.48q-19.86,0-39.71,0c-1.66,0-3.62.1-3.67-2.26-.06-2.58,2-2.45,3.76-2.45Z"/><path class="cls-1" d="M54.5,120.4c-6.2,0-12.4,0-18.6,0-1.76,0-3.51-.09-3.48-2.43,0-2.17,1.74-2.26,3.35-2.26H73c1.74,0,3.6.14,3.5,2.45s-2,2.26-3.68,2.25C66.69,120.39,60.59,120.4,54.5,120.4Z"/><path class="cls-1" d="M94,30.12h19.85c1.69,0,3.61,0,3.59,2.32s-1.83,2.34-3.58,2.34h-40c-1.73,0-3.56,0-3.58-2.33s1.89-2.33,3.57-2.33Z"/></g></g></svg>