<svg xmlns="http://www.w3.org/2000/svg" viewBox="0 0 165.14 164.76"><defs><style>.cls-1{fill:#0073a2;}</style></defs><title>Recurso 2</title><g id="Capa_2" data-name="Capa 2"><g id="Capa_1-2" data-name="Capa 1"><path class="cls-1" d="M34.27,51.3C33.18,21.32,56.65-.24,83,0c25.08.23,48.59,20.47,47.83,51.14.12.11.26.33.44.37,9.88,2.33,13.19,6.51,13.15,16.77a33.72,33.72,0,0,1-.48,7c-1.32,6-5.09,9-13.14,10.85-.28,2.25-.43,4.61-.89,6.91a38.06,38.06,0,0,1-39.72,30.73c-2.91-.14-3.75-1.78-4.33-4.23a3.43,3.43,0,1,0-6.29,2.53,4.69,4.69,0,0,0,2.82,1.79c2.2.52,3.67,1.54,3.29,3.93-.43,2.7-2.49,2.87-4.7,2.57a10.09,10.09,0,0,1-8.57-8.82A10.22,10.22,0,0,1,78.77,111c4.21-1.71,9.4-.6,11.76,3.3,1.66,2.72,3.58,2.79,6.16,2.55,14.46-1.37,26.84-14.62,27.24-29.37.16-5.81.08-11.62,0-17.43,0-2.43.59-4.5,3.39-4.49s3.33,2.22,3.33,4.56v8.64c4,0,6.64-2.13,6.94-5.8a57.05,57.05,0,0,0,0-8.06c-.22-3.84-2.79-6.25-6.67-6.54-.86-.06-1.72,0-2.58,0-3.34-.17-4.24-1.21-4.45-4.57-.34-5.34-.17-10.84-1.39-16C117.77,17.47,98,4.33,76.91,7,56.83,9.55,41.25,27.25,41.16,47.67c0,11,0,22,0,32.93,0,4.44-.8,5.18-5.32,5.19-9.66,0-15.13-5.48-15.15-15.23V68.63C20.69,57.85,23.69,54,34.27,51.3Zm0,27.75V58.72c-3.95,0-6.45,2.18-6.75,5.93a60.09,60.09,0,0,0-.05,7.71C27.61,76.26,29.74,78.38,34.23,79.05Z"/><path class="cls-1" d="M31.63,153.06c4-4.05,8.08-8,11.92-12.17a9.43,9.43,0,0,1,7.64-3.21c32.5.09,65,0,97.5.06,7.72,0,9.73-2,9.73-9.74q0-45.52,0-91c0-7.54-2-9.59-9.53-9.6-4.52,0-9,0-13.56,0-2.22,0-4.26-.55-4.26-3.28s2-3.43,4.43-3.42c5.28,0,10.55-.06,15.82,0,7.8.15,13.75,5.95,13.77,13.74q.12,48.09,0,96.2c0,8.16-6.17,13.81-14.69,13.82q-48.59,0-97.17-.06a8,8,0,0,0-6.46,2.69q-7.8,8.18-16,16c-1.08,1-3.42,2.11-4.29,1.62-1.23-.69-2.2-2.82-2.27-4.38-.25-5.91-.1-11.83-.1-17.75,0-2.33.45-4.58,3.3-4.6,3,0,3.45,2.29,3.41,4.78-.05,3.31,0,6.62,0,9.94Z"/><path class="cls-1" d="M0,82.21Q0,59,0,35.74c0-9.36,5.71-15,15.07-15.08,4.73,0,9.47,0,14.2,0,2.45,0,4.78.29,4.78,3.39s-2.5,3.31-4.86,3.32c-4.95,0-9.9-.05-14.84,0S6.74,30.05,6.74,35q-.06,47.61,0,95.21c0,4.41,2,6.67,6.42,7.47,2.28.42,4.05,1.31,3.64,3.93-.45,2.83-2.65,3.05-5,2.7C4.82,143.23,0,137.49,0,130,0,114.06,0,98.14,0,82.21Z"/><path class="cls-1" d="M82.47,13.81c19.12.51,34.19,15.32,34.32,33.13,0,2.33-.5,4.29-3.08,4.4s-3.33-1.74-3.45-4.09c-1.2-22.55-25.65-34.09-43.41-21.87-7.68,5.3-11.5,12.87-12,22.13-.12,2.26-1,3.91-3.37,3.84s-3.28-1.74-3.13-4V47c0-16.37,13.85-31.48,30.15-32.9C80,14,81.51,13.88,82.47,13.81Z"/><path class="cls-1" d="M71.91,95.94H65.64v-6h6.27Z"/><path class="cls-1" d="M99.5,96H93.21V89.93H99.5Z"/><path class="cls-1" d="M85.62,89.82v6.12H79.57V89.82Z"/></g></g></svg>