<svg xmlns="http://www.w3.org/2000/svg" viewBox="0 0 142.62 142.56"><defs><style>.cls-1{fill:#0073a2;}</style></defs><title>Recurso 10</title><g id="Capa_2" data-name="Capa 2"><g id="Capa_1-2" data-name="Capa 1"><path class="cls-1" d="M71.38,142.55H16.24C6.1,142.55,0,136.44,0,126.26Q0,77.1,0,28C0,18,6.17,11.83,16.14,11.78c3.89,0,7.79-.06,11.69,0,1.47,0,1.93-.42,1.86-1.87-.11-2.22-.08-4.46,0-6.68.06-1.9,1-3.3,3-3.25s2.93,1.36,2.94,3.32c0,2.13.14,4.28,0,6.4-.15,1.82.57,2.09,2.2,2.09q33.42-.09,66.83,0c1.72,0,2.51-.29,2.34-2.23a62.08,62.08,0,0,1,0-6.4c0-1.84,1-3.07,2.79-3.18,2-.13,3.06,1.2,3.16,3.1a62,62,0,0,1,0,6.68c-.08,1.56.4,2.07,2,2,4-.11,8-.07,12,0,9.44.09,15.71,6.34,15.71,15.74q0,49.71,0,99.41c0,9.26-6.31,15.59-15.52,15.6Q99.23,142.58,71.38,142.55Zm.05-95.1c-20.87,0-41.75,0-62.62-.06-2.37,0-2.86.69-2.86,2.93C6,75.65,6,101,6,126.31c0,6.92,3.3,10.23,10.19,10.24H126.43c6.88,0,10.17-3.33,10.17-10.26,0-25.33,0-50.66.06-76,0-2.27-.53-2.92-2.88-2.91C113,47.49,92.22,47.45,71.43,47.45Zm-.12-5.87q31.32,0,62.66,0c2,0,2.8-.29,2.69-2.52-.2-4.17,0-8.36-.08-12.53a8.7,8.7,0,0,0-8.89-8.77c-4.36-.07-8.72,0-13.08-.05-1.4,0-1.74.43-1.69,1.75.1,2.31.1,4.64,0,7-.09,1.9-1,3.21-3.14,3.11-1.92-.09-2.77-1.31-2.81-3.14a54.3,54.3,0,0,1,0-6.12c.21-2.09-.46-2.58-2.55-2.57-20.24.09-40.47.05-60.71.06-2.58,0-5.95-.89-7.54.39s-.35,4.86-.53,7.42c0,.18,0,.37,0,.55,0,1.92-.75,3.32-2.83,3.4-2.25.1-3.09-1.37-3.15-3.38s-.12-4.28,0-6.4c.1-1.57-.36-2.07-2-2-4.17.11-8.35,0-12.53,0-5.43.07-9.06,3.64-9.17,9.06-.07,3.9.13,7.81-.07,11.7-.12,2.35.41,3.12,3,3.1C29.72,41.53,50.52,41.58,71.31,41.58Z"/><path class="cls-1" d="M41.64,95c0-7,0-13.91,0-20.87,0-5.62,3.18-8.84,8.78-8.86q20.88-.08,41.76,0c5.6,0,8.75,3.25,8.77,8.86,0,9.65,0,19.3,0,29A10.25,10.25,0,0,1,97.73,111c-3.54,3.41-7,6.9-10.43,10.43a10.36,10.36,0,0,1-7.94,3.3c-9.56-.07-19.11,0-28.67,0-5.93,0-9-3.12-9-9.12C41.62,108.74,41.64,101.87,41.64,95ZM71.35,71.26c-6.78,0-13.55.07-20.32,0-2.47,0-3.56.79-3.55,3.35q.08,20.46,0,40.92c0,2.38.93,3.29,3.32,3.27,9.47-.08,18.93-.06,28.4,0A5.32,5.32,0,0,0,83.35,117c3.28-3.41,6.64-6.74,10-10a5.4,5.4,0,0,0,1.74-4.18c0-9.38-.06-18.75,0-28.12,0-2.49-.94-3.47-3.47-3.43C84.89,71.33,78.12,71.26,71.35,71.26Z"/><path class="cls-1" d="M91.72,82.15A4.5,4.5,0,0,1,90.4,85Q79.86,97,69.33,109c-1.92,2.19-3.35,2.25-5.38.25-4-3.9-7.89-7.86-11.82-11.8-1.46-1.46-1.82-3.09-.22-4.6s3.05-1,4.41.39c2.83,2.82,5.72,5.57,8.43,8.49,1.26,1.36,1.94,1.36,3.16-.07C73.82,94.79,79.83,88,85.83,81.14c1.91-2.18,4.41-2.25,5.49-.2A7.41,7.41,0,0,1,91.72,82.15Z"/></g></g></svg>