<svg xmlns="http://www.w3.org/2000/svg" viewBox="0 0 146.18 162.75"><defs><style>.cls-1{fill:#0073a2;}</style></defs><title>Recurso 6</title><g id="Capa_2" data-name="Capa 2"><g id="Capa_1-2" data-name="Capa 1"><path class="cls-1" d="M139.66,156.15V6.38h-3.55c-9.53,0-19.06,0-28.59,0-2.29,0-4.13-.62-4.11-3.26,0-2.42,1.73-3.13,3.91-3.13q17.48,0,34.94,0c2.61,0,3.93,1.25,3.92,3.87V157c0,5.12-.58,5.72-5.57,5.72H15.12c-5,0-5.58-.59-5.59-5.7v-7H3.72C1.27,150,0,148.74,0,146.28c0-6.56,0-13.13,0-19.7,0-2.61,1.28-3.9,3.9-3.89a70.52,70.52,0,0,0,9.2-.1,13.09,13.09,0,0,0,6.34-2.32c7-5.6,7.91-17.14,2.22-24C10.52,82.79,16.15,64.44,33,59.83c2.06-.57,2-1.67,2-3.2q0-25.58,0-51.16C35,.67,35.62,0,40.46,0c12,0,23.93,0,35.89,0A6.23,6.23,0,0,1,80.09,1.2a3.22,3.22,0,0,1,.51,3.1,4.68,4.68,0,0,1-3.18,2c-3.9.24-7.83.1-11.75.1H41.47V59.14c.57.2,1.14.44,1.74.59C59.5,63.82,66,82.92,55,95.59c-5,5.77-5.25,16.17-1.07,22.52,2,3.06,4.67,4.76,8.47,4.61,3.38-.14,6.77,0,10.16,0,2.46,0,3.71,1.29,3.72,3.74,0,6.56,0,13.13,0,19.7,0,2.61-1.29,3.91-3.9,3.89H66.9v6.12ZM26.38,122.53H48.85c-6.15-11.62-6.26-22.37,2.54-32.81,3.81-4.51,3.56-10.29.79-15.61A15,15,0,0,0,39,65.57c-6.76-.32-11.95,2.68-15,8.72s-2.31,12,2.07,17.2a22.51,22.51,0,0,1,5.73,15.69C31.63,112.72,29.7,117.67,26.38,122.53Zm43.38,6.74H6.62V143.5H69.76Zm-9.64,27v-6.07h-44v6.07Z"/><path class="cls-1" d="M105,99.17a22.25,22.25,0,1,1-22.38,22A22.28,22.28,0,0,1,105,99.17Zm15.74,22.4a15.87,15.87,0,1,0-15.86,15.73A15.93,15.93,0,0,0,120.74,121.57Z"/><path class="cls-1" d="M90.89,40.05q16.19,0,32.35,0c2.22,0,3.83.91,3.79,3.27,0,2.17-1.56,3.09-3.65,3.1H65c-1.91,0-3.81,0-5.71,0-2.41,0-5.12.13-5.18-3.12s2.59-3.27,5-3.27C69.75,40.07,80.32,40.05,90.89,40.05Z"/><path class="cls-1" d="M100.07,59.12c7.5,0,15,0,22.5,0,2.35,0,4.48.45,4.44,3.24s-2.21,3.16-4.53,3.16q-22.35,0-44.69,0c-2.31,0-4.53-.3-4.6-3.09-.06-3,2.27-3.32,4.69-3.31C85.28,59.15,92.67,59.12,100.07,59.12Z"/><path class="cls-1" d="M100.08,78.19c7.5,0,15,0,22.5,0,2.36,0,4.48.47,4.43,3.25s-2.22,3.15-4.54,3.15q-22.35,0-44.69,0c-2.31,0-4.53-.32-4.59-3.1,0-3,2.29-3.31,4.7-3.3C85.29,78.22,92.68,78.19,100.08,78.19Z"/><path class="cls-1" d="M71.19,27.35c-4.23,0-8.45,0-12.67,0-2.36,0-4.43-.5-4.4-3.28,0-2.57,2-3.13,4.24-3.12q13.14,0,26.28,0c2.26,0,4.21.56,4.24,3.12,0,2.78-2,3.3-4.4,3.28C80.05,27.32,75.62,27.35,71.19,27.35Z"/><path class="cls-1" d="M95.8,3.89c-1.23.82-2.58,2.4-3.67,2.24A4.46,4.46,0,0,1,89.23,3C89.1,2.19,91,.3,92.06.24s2.48,1.4,3.72,2.19Z"/></g></g></svg>