<svg xmlns="http://www.w3.org/2000/svg" viewBox="0 0 130.12 162.6"><defs><style>.cls-1{fill:#0073a2;}</style></defs><title>Recurso 7</title><g id="Capa_2" data-name="Capa 2"><g id="Capa_1-2" data-name="Capa 1"><path class="cls-1" d="M0,81.12q0-33.3,0-66.6C0,4.66,4.59,0,14.38,0,37.46,0,60.55.07,83.64,0c10.2,0,19.14,3.07,26.8,9.86,8.74,7.75,16.83,16,18.81,28.14,1.12,6.89.83,13.91.83,20.88,0,19.53-.17,39.06-.24,58.59,0,10.4,0,20.8,0,31.21,0,9.14-4.68,13.88-13.8,13.89q-51,.06-102,0c-9.34,0-14-4.74-14-14.08Q0,114.8,0,81.12ZM120.28,35.57c-2.92-7.81-7.88-12.63-12.82-17.5-7-7-15.34-10.09-25.36-10-22.7.31-45.41.09-68.11.1C9.33,8.22,8,9.43,8,14q0,67.35,0,134.7c0,4.4,1.3,5.7,5.64,5.7q51.18,0,102.35,0c4.56,0,5.8-1.25,5.79-5.93q-.09-47.56-.28-95.11c0-7.9-4.68-12.45-12.56-12.56-4.82-.06-9.64,0-14.46,0-3.85-.06-5.18-1.46-5.21-5.35,0-4.82,0-9.64,0-14.46,0-2.68,1.24-4.45,4-4.47s4,1.87,4.11,4.45a82.37,82.37,0,0,1,0,8.75c-.16,2.3.48,3,2.89,3C106.72,32.62,113.28,31.63,120.28,35.57Z"/><path class="cls-1" d="M57,41.44c-6.53-.81-12-1.84-17.63-.55-1.84.42-4.59.59-4.73,2.41-.17,2.12,2.65,2.17,4.35,2.55,4.44,1,8.94,1.76,13.41,2.64a20.85,20.85,0,0,1,2.2.56C60.92,51,64.15,54.38,64,59s-3.82,8.54-9.89,10.12c-2.69.69-5.64.57-6.14,4.51-.19,1.52-2.14,2-3.78,1.83S41,74.23,41,72.7c-.09-2.83-1.82-2.66-3.74-2.9A82.36,82.36,0,0,1,29,68.31c-2.56-.58-4.16-2.24-3.49-4.94s2.54-3.57,5.26-3c6.33,1.42,12.7,2.42,19.21,1.25a8,8,0,0,0,1.86-.34c1.42-.65,3.83-.67,3.72-2.57-.08-1.5-2.3-1.7-3.75-2-4.7-1-9.42-1.9-14.14-2.83a21.73,21.73,0,0,1-6.74-2.45c-6.23-3.58-6.63-11-.87-15.37a15,15,0,0,1,5.8-2.73c2.49-.55,5-.67,5.35-4.23.15-1.65,2-2.28,3.57-2.26,1.78,0,3.48.93,3.64,2.74.25,2.82,1.87,3,4.07,3.05a29.05,29.05,0,0,1,4.5.65c2.69.43,4.16,2,3.74,4.72A3.66,3.66,0,0,1,57,41.44Z"/><path class="cls-1" d="M64.93,105.66c10.27,0,20.55,0,30.83,0,3,0,5.61.61,5.61,4.09s-2.67,4.14-5.61,4.14q-30.84,0-61.67,0c-2.94,0-5.62-.65-5.61-4.14s2.62-4.11,5.61-4.09C44.37,105.7,54.65,105.66,64.93,105.66Z"/><path class="cls-1" d="M64.69,130c-10.15,0-20.3,0-30.45,0-2.94,0-5.45-.46-5.8-4-.28-2.72,1.9-4.26,5.88-4.26q30.65,0,61.29,0c2.9,0,5.47.48,5.81,4,.26,2.73-1.89,4.21-5.89,4.21Z"/><path class="cls-1" d="M64.54,97.49c-10.4,0-20.8,0-31.2,0-3.71,0-5.86-2.63-4.65-5.46.79-1.86,2.31-2.52,4.27-2.52H96.89c2.68,0,4.51,1.21,4.5,4s-1.82,4-4.51,4Z"/></g></g></svg>