<svg xmlns="http://www.w3.org/2000/svg" viewBox="0 0 163.3 163.24"><defs><style>.cls-1{fill:#0073a2;}</style></defs><title>Recurso 11</title><g id="Capa_2" data-name="Capa 2"><g id="Capa_1-2" data-name="Capa 1"><path class="cls-1" d="M0,50.73V0H50.73V50.73ZM40.53,40.58V10.32H10.26V40.58Z"/><path class="cls-1" d="M112.45,50.73V0h50.73V50.73Zm40.61-40.44H122.8V40.55h30.26Z"/><path class="cls-1" d="M50.85,112.51v50.73H.12V112.51ZM10.23,152.94H40.49V122.69H10.23Z"/><path class="cls-1" d="M91.77,143h20.4v10.05H92v10.07H61.43v-9.94H81.49V122.62H61.38V112.54H91.77Z"/><path class="cls-1" d="M40.91,101.92H30.75V81.75h9.83V61.39H50.86V81.46h20.5V91.74h10v10.13H61.29V92.09H40.91Z"/><path class="cls-1" d="M153.22,71.32V81.37H112.53V71.52h9.84V61.39h10.27v9.74H142.9V61.34h20.28v10Z"/><path class="cls-1" d="M61.32,30.59V10.26h10v9.85h30.57V30.48H92v10H81.69V30.59Z"/><path class="cls-1" d="M61.4,61.14H91.75v-10h10.19v20H61.4Z"/><path class="cls-1" d="M10,61.34V81.51H20.13V91.76h-9.9v10.11H0V61.34Z"/><path class="cls-1" d="M153,143h-20v20.17H122.75V132.91H153Z"/><path class="cls-1" d="M132.62,122.4H122.57V102.14h-10V92h20.08Z"/><path class="cls-1" d="M102,.07V9.88H81.8V.07Z"/><path class="cls-1" d="M92.08,81.76h9.86v20.06H92.08Z"/><path class="cls-1" d="M163.3,92.06v9.84H143.24V92.06Z"/><path class="cls-1" d="M102.32,112.42h9.83v20.06h-9.83Z"/><path class="cls-1" d="M143,163.21v-9.79h20.17v9.79Z"/><path class="cls-1" d="M61.33,50.79V40.94h9.91v9.85Z"/><path class="cls-1" d="M30.37,71.26H20.53v-9.9h9.84Z"/><path class="cls-1" d="M163.26,122.36h-9.82v-9.87h9.82Z"/><path class="cls-1" d="M61.44,132.86h9.81v9.95H61.44Z"/><path class="cls-1" d="M20.47,20.42h9.85v9.89H20.47Z"/><path class="cls-1" d="M132.9,30.34V20.5h9.89v9.84Z"/><path class="cls-1" d="M30.41,133v9.81H20.46V133Z"/></g></g></svg>