<svg xmlns="http://www.w3.org/2000/svg" viewBox="0 0 173.59 164.24"><defs><style>.cls-1{fill:#0073a2;}</style></defs><title>Recurso 3</title><g id="Capa_2" data-name="Capa 2"><g id="Capa_1-2" data-name="Capa 1"><path class="cls-1" d="M0,104.4C.33,97,4.1,89.9,11.94,85.28q12.83-7.55,25.77-14.87a16.71,16.71,0,0,0,5-4.38q20.33-26,40.75-52a43.61,43.61,0,0,1,2.79-3.41c4.79-4.9,12.42-3.88,16.13,2.29s7.39,12.66,11,19c.92,1.64,1.85,2.55,4,2.21,2.33-.38,4.78,0,7.09-.45,4.09-.78,6,1.17,8.41,4.31,5.79,7.5,6.07,14.19-.76,20.94-1.63,1.62-1.36,3.14-.18,5.07,3.25,5.27,6.28,10.69,9.32,16.09,4.2,7.48.6,14.57-7.75,16.14-20.94,3.94-41.84,8.15-62.76,12.18-1.86.36-2,1-1,2.42s1.93,3.31,2.87,5c1.35,2.38,1,4.31-1.49,5.69-.2.11-.38.24-.57.37-2.42,1.58-6.59,2.36-7,4.68s2.49,5,4,7.57c1.8,3.13,3.68,6.21,5.39,9.38,3.83,7.09,1.75,15.11-4.8,18.86S53.6,164,49.42,157c-5-8.42-10-16.89-14.71-25.48-1.46-2.64-2.74-3.44-5.88-2.68C14.15,132.38,0,121,0,104.4ZM85.13,23.58a5.06,5.06,0,0,0-.89.58c-12,15.25-23.94,30.53-36,45.74-1.18,1.5-.8,2.52,0,3.87,5.16,8.85,10.34,17.69,15.35,26.63,1,1.82,2.08,2.25,4,1.87,18-3.6,36-7.19,54.05-10.64,2.24-.43,2.23-1,1.22-2.72Q104,56.33,85.13,23.58ZM23.71,122.71a14.25,14.25,0,0,0,7.5-1.71c8.64-4.86,17.19-9.86,25.81-14.76,1.26-.72,1.44-1.33.68-2.61C52.58,94.88,47.54,86.09,42.49,77.3c-.52-.9-1-1.34-2.05-.69-9,5.32-18.26,10.3-27,16-6,3.91-8,11.94-5.69,18.73A16.94,16.94,0,0,0,23.71,122.71ZM132.41,89.5c3.18,0,4.86-3,2.71-6.62-12.75-21.66-25.21-43.49-37.78-65.25a9.31,9.31,0,0,0-1.77-2.45,3,3,0,0,0-4.28.1c-1.18,1.08-2,2.07-.9,4Q110.29,53.44,130,87.74C130.57,88.7,130.93,89.92,132.41,89.5ZM61.49,157.36c5.38-.1,8.25-5.5,5.44-10.54-3.66-6.58-7.45-13.09-11.3-19.56-1.81-3.05-2.94-8.19-5.71-8.55-3-.37-6.36,3.16-9.62,4.91-1.32.71-1.7,1.35-.83,2.83,5.36,9.09,10.6,18.26,15.92,27.39A6.49,6.49,0,0,0,61.49,157.36ZM126.64,54.82c1.54-2.48,4.16-4.32,3.77-6.55-.46-2.6-2.27-5.17-4.07-7.25-1.16-1.32-3.43-.18-5.2-.3s-2.56.26-1.36,2.21C122.07,46.65,124.17,50.5,126.64,54.82ZM62,111.14c-2,1.36-4.16,1.91-5.51,3.6-.39.49,3,5.52,3.47,5.27,1.78-1,4.69-1.44,4.87-3.41C65,114.91,63.06,113,62,111.14Z"/><path class="cls-1" d="M151.42,31.7a3.53,3.53,0,0,1-3.36-2.55,3.14,3.14,0,0,1,1.59-3.76c2.89-1.74,5.87-3.35,8.82-5,3.35-1.86,6.68-3.74,10.08-5.52a3.12,3.12,0,0,1,4.57,1.46,3,3,0,0,1-1.31,4.35c-6.25,3.58-12.58,7-18.89,10.52A7.48,7.48,0,0,1,151.42,31.7Z"/><path class="cls-1" d="M153.26,46.32c4.35,1.22,9.15,2.46,13.86,4,1.74.55,2.17,2.27,1.67,4a2.79,2.79,0,0,1-3.36,2.18c-4.82-1.13-9.62-2.36-14.35-3.81A2.85,2.85,0,0,1,149.31,49C149.76,47.25,151,46.42,153.26,46.32Z"/><path class="cls-1" d="M130.11,15.54c1.11-4,2.31-8.8,3.79-13.48A2.92,2.92,0,0,1,137.74.17c1.8.56,2.92,2,2.45,3.87-1.12,4.56-2.38,9.09-3.72,13.59a3,3,0,0,1-3.75,2.06C130.93,19.35,130.09,18.13,130.11,15.54Z"/><path class="cls-1" d="M23.92,116c-4-.23-6.74-1.73-8.66-4.65-1-1.59-1.09-3.25.39-4.57a3,3,0,0,1,4.74.35c2.1,2.69,4.27,2.3,6.74.67a31.15,31.15,0,0,1,4.4-2.47,3.13,3.13,0,0,1,4.17,1.12c.94,1.36,1,3.08-.25,4C31.83,113,28.22,115.84,23.92,116Z"/><path class="cls-1" d="M48.12,101.4c-.2,2.12-1.36,3.45-3.43,3.45a3.08,3.08,0,0,1-3.26-3.18,3,3,0,0,1,3-3.39C46.62,98.1,47.71,99.4,48.12,101.4Z"/></g></g></svg>