<svg xmlns="http://www.w3.org/2000/svg" viewBox="0 0 162.45 162.7"><defs><style>.cls-1{fill:#0073a2;}</style></defs><title>Recurso 9</title><g id="Capa_2" data-name="Capa 2"><g id="Capa_1-2" data-name="Capa 1"><path class="cls-1" d="M134.27,32.46c4.07-6.4,5.62-6.92,12.3-4.6,1.1.38,2.21.72,3.29,1.14,4.1,1.6,5.82,4.75,4.22,8.82-1,2.61-.42,3.57,1.91,4.92,5.37,3.09,7,8.23,6.3,14.15-.85,6.79-3.68,13-6.37,19.17-3.12,7.16-6.36,14.26-9.44,21.44-1.2,2.8-2.36,5.65-2.17,8.84a2,2,0,0,1-2,2.36,2.23,2.23,0,0,1-2.59-2.17,15.87,15.87,0,0,1,1.11-7.46c3.1-9,7.57-17.41,11.27-26.15a85.16,85.16,0,0,0,5.18-14.61c1.3-5.78-.18-9.55-4.61-11.87-.46,3.32-1,6.59-1.34,9.89-.2,1.75-.69,3.34-2.73,3.11-2.31-.27-2.24-2.12-1.93-3.92.24-1.36.42-2.72.6-4.08.08-.63.08-1.27.15-1.9.63-6.23-5-5.18-8.14-6.89-2.61-1.4-4.52-.33-6.07,2.13a166.37,166.37,0,0,0-14.35,29.94c-2.31,6.12-4.28,12.36-6.09,18.65-.55,1.93-.33,2.74,1.71,3.39,5.13,1.62,10.19,3.46,15.23,5.36,1.84.7,2.67.38,3.46-1.52a240.45,240.45,0,0,0,11-32.7c.08-.31.1-.63.18-.94.43-1.63,1-3.24,3.14-2.71s2.05,2.08,1.56,3.82c-.86,3.05-1.54,6.15-2.45,9.18a211.05,211.05,0,0,1-11.07,29.63,12.91,12.91,0,0,0-1.21,5.81q.09,16.68,0,33.35c0,10.69-6,16.66-16.77,16.66H16.78C6.19,162.69.05,156.55,0,146v-8.57c0-1.77.47-3.31,2.58-3.23,1.88.07,2.31,1.53,2.31,3.17,0,3.39,0,6.78,0,10.16.11,5.89,4,9.94,9.8,10.38.95.07,1.91,0,2.86,0h99.12c9.24,0,12.82-3.61,12.82-12.89V119.88c-1.21-.11-1.22,1-1.59,1.59a67.23,67.23,0,0,1-8.88,11.93,15.54,15.54,0,0,1-6,4.11c-1.18.4-2.33.63-2.92,2.05-.46,1.1-1.72,1.2-2.79.75a1.89,1.89,0,0,1-1.32-2.26c.5-1.56-.41-2.52-1-3.74-2.35-4.84-2.29-10-1.89-15.23,1-13.59,4.48-26.65,8.84-39.49s9.49-25.08,16.65-36.51a6.44,6.44,0,0,0,.87-3.6c0-7.84,0-15.67,0-23.51,0-6.92-4.09-11.11-11-11.15-16.52-.07-33-.12-49.56,0-10.88.09-18.24,7.52-18.54,18.39-.11,3.92.06,7.84,0,11.75-.22,9.13-6.42,15.21-15.53,15.3-3.71,0-7.41,0-11.12,0C12.6,50.39,5,58,4.92,69.07c0,18.42,0,36.85,0,55.27,0,.74,0,1.49,0,2.22-.09,1.57-.8,2.68-2.51,2.64-1.55,0-2.21-1.08-2.33-2.5-.07-.74,0-1.48,0-2.22,0-19.91.06-39.82,0-59.73C0,52.93,3.92,42.88,12.43,34.58c7.65-7.47,15.16-15.09,22.7-22.67A38.86,38.86,0,0,1,63.9,0c17.9,0,35.8,0,53.69,0,10.65,0,16.64,6,16.68,16.76C134.28,21.77,134.27,26.78,134.27,32.46ZM7.78,51.09a25.52,25.52,0,0,1,18-5.52c2.95.18,5.93.09,8.89,0,6.68-.16,10.85-4.37,10.92-11,0-3.91,0-7.83,0-11.75A22.83,22.83,0,0,1,50.11,9.23c.44-.61,1.35-1,1-2.22A32,32,0,0,0,39,14.78Q26.85,26.87,14.78,39A27.75,27.75,0,0,0,7.37,50.68l-.26.61ZM108,122.26a40.19,40.19,0,0,0,0,5.38c.26,1.93.18,4.48,2.26,5.25s3.65-1.23,5-2.61c6.11-6.16,10-13.77,13.92-21.38.64-1.26.46-1.79-.94-2.26-5.19-1.74-10.35-3.6-15.5-5.45-1.37-.49-2-.3-2.37,1.33C109.2,109.05,108,115.58,108,122.26Zm40.24-81.59c-.26-.06-.09-.47.14-.8,2.48-3.51,1.76-5.74-2.33-7.17-1.18-.42-2.39-.79-3.56-1.24a1.82,1.82,0,0,0-2.65,1.4c-.37,1.52-2.27,3.59-.88,4.45C141.5,38.86,144.63,39.43,148.26,40.67Z"/><path class="cls-1" d="M67.37,124.86q-10.48,0-21,0c-1.77,0-3.73,0-3.75-2.35s1.82-2.43,3.66-2.42q21,0,41.93,0c1.79,0,3.68,0,3.74,2.34s-1.89,2.43-3.65,2.43Z"/><path class="cls-1" d="M62.46,70c5.29,0,10.57,0,15.86,0,1.85,0,3.6.3,3.53,2.59-.07,2.08-1.77,2.33-3.47,2.33H46c-1.74,0-3.37-.41-3.39-2.44S44.18,69.94,46,70C51.46,70,57,70,62.46,70Z"/><path class="cls-1" d="M62.2,141.63c-5.28,0-10.57,0-15.86,0-1.82,0-3.67-.2-3.7-2.43s1.8-2.51,3.63-2.51q16,0,32,0c1.84,0,3.6.29,3.53,2.59-.07,2.07-1.75,2.34-3.47,2.34C73,141.62,67.6,141.63,62.2,141.63Z"/><path class="cls-1" d="M96,91.63l7.72-15.71c.77-1.55,1.59-3.3,3.75-2.25s1.34,2.75.56,4.34c-3,6-5.93,12.13-8.94,18.17-1.65,3.31-3.26,3.4-5.51.36-1.57-2.12-3.09-4.29-4.63-6.43-1-1.31-1-2.62.34-3.6s2.59-.41,3.54.86Z"/><path class="cls-1" d="M96,53.29c2.76-5.62,5.26-10.73,7.79-15.84.78-1.57,1.67-3.27,3.81-2.09,1.85,1,1.26,2.61.5,4.14-3,6.15-6,12.33-9.07,18.47-1.57,3.14-3.2,3.24-5.34.38-1.58-2.12-3.09-4.29-4.65-6.42-1-1.41-1.2-2.78.39-3.84s2.58-.21,3.48,1S94.75,51.63,96,53.29Z"/><path class="cls-1" d="M62.52,103.45c5.29,0,10.59,0,15.88,0,1.7,0,3.41.14,3.44,2.3s-1.59,2.4-3.33,2.4q-16.2,0-32.4,0c-1.74,0-3.42-.25-3.46-2.3s1.59-2.42,3.35-2.41C51.51,103.47,57,103.45,62.52,103.45Z"/><path class="cls-1" d="M56.16,91.52c-3.49,0-7,0-10.47,0-1.71,0-3-.61-3.07-2.41s1.4-2.46,3.05-2.46q10.14,0,20.3,0c1.73,0,3.32.45,3.2,2.59-.1,1.87-1.52,2.29-3.18,2.28C62.71,91.5,59.44,91.52,56.16,91.52Z"/><path class="cls-1" d="M57.11,58.06c-3.8,0-7.59,0-11.39,0-1.67,0-3.1-.51-3.08-2.36s1.35-2.38,3.07-2.37c7.7,0,15.39,0,23.09,0,1.72,0,3,.63,2.9,2.52s-1.37,2.19-2.89,2.19Z"/><path class="cls-1" d="M27.59,74.86c-1.91,0-3.81,0-5.71,0-1.56,0-2.75-.83-2.72-2.47S20.33,70,21.93,70c3.91,0,7.82,0,11.73,0a2.28,2.28,0,0,1,2.53,2.28c.09,1.75-1,2.49-2.58,2.56C31.61,74.93,29.6,74.86,27.59,74.86Z"/><path class="cls-1" d="M27.61,91.51h-5.7c-1.63,0-2.7-.81-2.76-2.41a2.27,2.27,0,0,1,2.44-2.39c4.12-.08,8.24-.09,12.36,0a2.16,2.16,0,0,1,2.25,2.52,2.31,2.31,0,0,1-2.56,2.24C31.63,91.55,29.62,91.51,27.61,91.51Z"/><path class="cls-1" d="M27.55,141.63h-5.4c-1.69,0-3-.71-3-2.52,0-1.62,1.23-2.38,2.8-2.38,3.81,0,7.62,0,11.43,0,1.53,0,2.75.62,2.79,2.35,0,1.92-1.26,2.51-2.92,2.54C31.35,141.65,29.45,141.63,27.55,141.63Z"/><path class="cls-1" d="M27.58,120.11c2,0,4,0,6,0,1.61,0,2.63.78,2.6,2.49s-1.12,2.21-2.53,2.22q-6,.06-12,0a2.24,2.24,0,0,1-2.47-2.32c0-1.59,1.08-2.41,2.71-2.4C23.79,120.12,25.69,120.11,27.58,120.11Z"/><path class="cls-1" d="M27.48,58c-1.89,0-3.79,0-5.68,0-1.62,0-2.7-.84-2.62-2.47a2.28,2.28,0,0,1,2.57-2.21c4,0,8,0,12,0a2.19,2.19,0,0,1,2.43,2.31A2.14,2.14,0,0,1,33.8,58C31.7,58.08,29.59,58,27.48,58Z"/><path class="cls-1" d="M27.64,103.46c2,0,4,0,6,0,1.44,0,2.49.62,2.54,2.19s-1,2.46-2.59,2.46c-3.89,0-7.79,0-11.68,0-1.64,0-2.74-.78-2.73-2.36s1.16-2.34,2.78-2.32C23.86,103.48,25.75,103.46,27.64,103.46Z"/></g></g></svg>