<svg xmlns="http://www.w3.org/2000/svg" xmlns:xlink="http://www.w3.org/1999/xlink" viewBox="0 0 330.27 330.33"><defs><style>.cls-1{fill:url(#Degradado_sin_nombre_4);}</style><linearGradient id="Degradado_sin_nombre_4" x1="55.52" y1="62.46" x2="289.42" y2="319.64" gradientUnits="userSpaceOnUse"><stop offset="0" stop-color="#76cbec"/><stop offset="0.53" stop-color="#0072aa"/><stop offset="1" stop-color="#18499a"/></linearGradient></defs><title>Recurso 1</title><g id="Capa_2" data-name="Capa 2"><g id="Capa_1-2" data-name="Capa 1"><path class="cls-1" d="M208.93,205.07l.2.29v-.29Zm.2,0v.29l-.2-.29ZM245.62,60.14V207.65h-36.9v-68.2l-20.1,31.3-1.94,3-21.76,33.89h-.25l-21.82-33.89-1.94-3-19.36-30.07v66.23l-.49.74L97.4,244.52,84.65,264.36V60.14h28.87l8,12.47L137.28,97,161,133.88l3.75,5.8,3.73-5.8L192.15,97l16.57-25.76,7.12-11.11ZM194.38,2.52,178.16,16.7l-1.39,1.23c-3.85-.29-7.7-.45-11.62-.45A149.64,149.64,0,0,0,99.86,32.31a143,143,0,0,0-15.18,8.48A138.52,138.52,0,0,0,68.92,52.37a17.86,17.86,0,0,0-1.46,1.23A143.88,143.88,0,0,0,36.87,90.47,139.26,139.26,0,0,0,18,160.72c0,1.16,0,2.33,0,3.49A140.62,140.62,0,0,0,41.17,238a146.84,146.84,0,0,0,33.38,35.61c.55.42,1.1.84,1.68,1.26q4.08,3.06,8.45,5.8a140.65,140.65,0,0,0,17.41,9.51l0,0c1.42.64,2.88,1.29,4.37,1.91a143.14,143.14,0,0,0,15.08,5.47,147.72,147.72,0,0,0,23.6,5.05l-10.42,9.12-6.48,5.67c-2.26-.52-4.5-1.07-6.7-1.65q-4.36-1.17-8.64-2.53c-.2-.06-.39-.13-.62-.19a3.16,3.16,0,0,0-.64-.16,7.23,7.23,0,0,0-3.82.29,1,1,0,0,0-.26.13l-19.52,7.44-3.4,1.3-20.26,7.77a7.58,7.58,0,0,1-10.27-7.55l.65-10.52.49-8.19,1.07-17.38a6.56,6.56,0,0,0,.06-1.33,7.17,7.17,0,0,0-2.33-5.17,1.7,1.7,0,0,0-.29-.26c-1.68-1.49-3.3-3-4.92-4.57A160.92,160.92,0,0,1,20.33,238,156.44,156.44,0,0,1,.06,164.21C0,163.05,0,161.88,0,160.72A157.39,157.39,0,0,1,16.57,90.47a162.72,162.72,0,0,1,42.7-53.08,161.68,161.68,0,0,1,25.41-17c1.81-1,3.69-2,5.57-2.91.52-.26,1-.52,1.55-.75a165,165,0,0,1,29.78-11,170.63,170.63,0,0,1,72.8-3.14Zm135.89,158.2c0,1.16,0,2.33-.07,3.49A156.27,156.27,0,0,1,309.94,238a163,163,0,0,1-45,50.76,165.86,165.86,0,0,1-19.33,12.33c-4.07,2.24-8.28,4.27-12.59,6.15-3.69,1.65-7.47,3.17-11.33,4.53-4.24,1.49-8.57,2.85-13,4a169.58,169.58,0,0,1-43.6,5.66c-3.14,0-6.21-.09-9.32-.26l10.75-9.42,9.35-8.19a147.51,147.51,0,0,0,32.82-6,142.73,142.73,0,0,0,14.67-5.27,141.05,141.05,0,0,0,22.23-11.66c2.89-1.81,5.7-3.72,8.42-5.76.45-.32.91-.65,1.33-1A146.16,146.16,0,0,0,289.1,238a139.9,139.9,0,0,0,23.17-73.77c0-1.16,0-2.33,0-3.49a139.6,139.6,0,0,0-18.87-70.25A145.11,145.11,0,0,0,262.84,53.6c-.64-.58-1.32-1.16-2-1.71a140.41,140.41,0,0,0-15.19-11.07A142.87,142.87,0,0,0,229.76,32a147.38,147.38,0,0,0-21-8.09c-1.74-.55-3.49-1-5.27-1.49l5.27-4.63L210,16.7l9.07-7.93A161.65,161.65,0,0,1,238.5,16.7l.84.39c2.14,1.07,4.24,2.14,6.31,3.27A163.26,163.26,0,0,1,288.22,53.6,159.7,159.7,0,0,1,313.7,90.47a157.39,157.39,0,0,1,16.57,70.25Zm-153,83.75a6,6,0,1,1-6-6A6,6,0,0,1,177.28,244.47Zm19.17,0a6,6,0,1,1-6-6A6,6,0,0,1,196.45,244.47Zm19.17,0a6,6,0,1,1-6-6A6,6,0,0,1,215.62,244.47Z"/></g></g></svg>