<svg xmlns="http://www.w3.org/2000/svg" xmlns:xlink="http://www.w3.org/1999/xlink" viewBox="0 0 514.3 476.38"><defs><style>.cls-1{fill:#0072aa;}.cls-2{fill:url(#Degradado_sin_nombre_4);}</style><linearGradient id="Degradado_sin_nombre_4" x1="147.59" y1="62.46" x2="381.49" y2="319.64" gradientUnits="userSpaceOnUse"><stop offset="0" stop-color="#76cbec"/><stop offset="0.53" stop-color="#0072aa"/><stop offset="1" stop-color="#18499a"/></linearGradient></defs><title>Recurso 1</title><g id="Capa_2" data-name="Capa 2"><g id="Capa_1-2" data-name="Capa 1"><path class="cls-1" d="M99.78,387.54v88.84H75.89V431.07l-26,29.24-26-29.24v45.31H0V387.54H17.37l32.52,36.61,32.52-36.61Z"/><path class="cls-1" d="M141.52,411.43V421.7H190v23.88H141.52v6.92H190v23.88H117.64V387.54H190v23.89Z"/><path class="cls-1" d="M280.59,476.38H262.64l-30.72-40.85v40.85H208V387.54h18.08l30.58,40.85V387.54h23.89Z"/><path class="cls-1" d="M371,399.6v23.88L362.51,432l8.48,8.48v23.89l-11.88,12.05H298.44V387.54h60.67Zm-48.66,11.83v8.7h24.78v-8.7Zm0,41.07h24.78V444H322.33Z"/><path class="cls-1" d="M412.73,387.54v88.84H388.85V387.54Z"/><path class="cls-1" d="M471.66,452.5h33.71v23.88H423.89l42.64-64.95H432.82V387.54H514.3Z"/><path class="cls-2" d="M301,205.07l.19.29v-.29Zm.19,0v.29l-.19-.29ZM337.69,60.14V207.65h-36.9v-68.2l-20.1,31.3-1.94,3L257,207.65h-.26l-21.82-33.89-1.94-3-19.36-30.07v66.23l-.49.74-23.66,36.87-12.75,19.84V60.14h28.87l8,12.47L229.35,97l23.73,36.87,3.75,5.8,3.73-5.8L284.22,97l16.57-25.76,7.12-11.11ZM286.45,2.52,270.24,16.7l-1.4,1.23c-3.85-.29-7.7-.45-11.62-.45a149.64,149.64,0,0,0-65.29,14.83,144,144,0,0,0-15.18,8.48A139.42,139.42,0,0,0,161,52.37a17.86,17.86,0,0,0-1.46,1.23,143.88,143.88,0,0,0-30.59,36.87A139.26,139.26,0,0,0,110,160.72c0,1.16,0,2.33,0,3.49A140.51,140.51,0,0,0,133.25,238a146.59,146.59,0,0,0,33.37,35.61c.55.42,1.1.84,1.68,1.26q4.08,3.06,8.45,5.8a140.78,140.78,0,0,0,17.42,9.51l0,0c1.42.64,2.88,1.29,4.37,1.91a144.79,144.79,0,0,0,15.08,5.47,147.72,147.72,0,0,0,23.6,5.05l-10.42,9.12-6.48,5.67c-2.26-.52-4.5-1.07-6.7-1.65q-4.36-1.17-8.64-2.53c-.19-.06-.39-.13-.62-.19a3.16,3.16,0,0,0-.64-.16,7.24,7.24,0,0,0-3.82.29,1.25,1.25,0,0,0-.26.13l-19.52,7.44-3.4,1.3-20.26,7.77a7.57,7.57,0,0,1-10.26-7.55l.64-10.52.49-8.19,1.07-17.38a6.56,6.56,0,0,0,.06-1.33,7.13,7.13,0,0,0-2.33-5.17,1.7,1.7,0,0,0-.29-.26c-1.68-1.49-3.3-3-4.92-4.57A160.92,160.92,0,0,1,112.4,238a156.27,156.27,0,0,1-20.26-73.77c-.07-1.16-.07-2.33-.07-3.49a157.23,157.23,0,0,1,16.58-70.25,162.56,162.56,0,0,1,42.69-53.08,161.68,161.68,0,0,1,25.41-17c1.81-1,3.69-2,5.57-2.91.52-.26,1-.52,1.55-.75a165,165,0,0,1,29.78-11,170.63,170.63,0,0,1,72.8-3.14Zm135.89,158.2c0,1.16,0,2.33-.06,3.49A156.44,156.44,0,0,1,402,238a160.92,160.92,0,0,1-28.55,36.87,158.05,158.05,0,0,1-16.41,13.89,166.58,166.58,0,0,1-19.32,12.33c-4.08,2.24-8.29,4.27-12.6,6.15-3.69,1.65-7.47,3.17-11.32,4.53-4.25,1.49-8.58,2.85-13,4a169.58,169.58,0,0,1-43.6,5.66c-3.14,0-6.21-.09-9.32-.26l10.75-9.42,9.35-8.19a147.51,147.51,0,0,0,32.82-6,147.59,147.59,0,0,0,36.91-16.93c2.88-1.81,5.69-3.72,8.41-5.76.46-.32.91-.65,1.33-1A146,146,0,0,0,381.17,238a139.9,139.9,0,0,0,23.17-73.77c0-1.16,0-2.33,0-3.49A139.76,139.76,0,0,0,385.5,90.47,144.91,144.91,0,0,0,354.91,53.6c-.64-.58-1.32-1.16-2-1.71a140.28,140.28,0,0,0-15.18-11.07A143,143,0,0,0,321.83,32a146.92,146.92,0,0,0-21-8.09c-1.74-.55-3.49-1-5.27-1.49l5.27-4.63,1.23-1.07,9.07-7.93a161,161,0,0,1,19.45,7.93c.29.13.59.26.84.39,2.14,1.07,4.24,2.14,6.32,3.27A163.42,163.42,0,0,1,380.29,53.6a159.7,159.7,0,0,1,25.48,36.87,157.39,157.39,0,0,1,16.57,70.25Zm-153,83.75a6,6,0,1,1-6-6A6,6,0,0,1,269.35,244.47Zm19.17,0a6,6,0,1,1-6-6A6,6,0,0,1,288.52,244.47Zm19.17,0a6,6,0,1,1-6-6A6,6,0,0,1,307.69,244.47Z"/></g></g></svg>