<svg xmlns="http://www.w3.org/2000/svg" xmlns:xlink="http://www.w3.org/1999/xlink" viewBox="0 0 574.72 574.82"><defs><style>.cls-1{fill:url(#Degradado_sin_nombre_4);}</style><linearGradient id="Degradado_sin_nombre_4" x1="96.61" y1="108.69" x2="503.64" y2="556.23" gradientUnits="userSpaceOnUse"><stop offset="0" stop-color="#76cbec"/><stop offset="0.53" stop-color="#0072aa"/><stop offset="1" stop-color="#18499a"/></linearGradient></defs><title>Recurso 1</title><g id="Capa_2" data-name="Capa 2"><g id="Capa_1-2" data-name="Capa 1"><path class="cls-1" d="M363.58,356.86l.34.51v-.51Zm.34,0v.51l-.34-.51Zm63.5-252.2V361.35H363.21V242.67l-35,54.47-3.38,5.23-37.85,59h-.45l-38-59-3.38-5.23-33.68-52.33V360.06l-.85,1.29-41.18,64.16L147.3,460V104.66h50.25l14,21.69,27.37,42.47L280.18,233l6.53,10.08L293.19,233l41.18-64.16L363.21,124l12.39-19.32ZM338.26,4.39,310,29.07l-2.42,2.14c-6.7-.51-13.4-.79-20.22-.79a260.11,260.11,0,0,0-113.62,25.8A252.62,252.62,0,0,0,147.36,71a242.65,242.65,0,0,0-27.44,20.17c-.9.68-1.74,1.41-2.53,2.14a249.87,249.87,0,0,0-53.23,64.16,242.53,242.53,0,0,0-32.9,122.23c0,2,0,4.06.06,6.09A244.79,244.79,0,0,0,71.65,414.13a255.55,255.55,0,0,0,58.08,62c1,.73,1.91,1.47,2.92,2.2,4.74,3.55,9.64,6.93,14.71,10.08a244.88,244.88,0,0,0,30.3,16.56l.06.06c2.48,1.13,5,2.25,7.6,3.32a247.13,247.13,0,0,0,26.25,9.52,254,254,0,0,0,41.07,8.79L234.5,542.5l-11.27,9.86q-5.91-1.35-11.66-2.87-7.6-2-15-4.4c-.34-.11-.67-.22-1.07-.33a5.5,5.5,0,0,0-1.13-.28,12.51,12.51,0,0,0-6.64.5,3.22,3.22,0,0,0-.45.23l-34,12.95-5.91,2.26-35.27,13.52a13.18,13.18,0,0,1-17.85-13.13l1.12-18.31.85-14.25L98.07,498a10.5,10.5,0,0,0,.11-2.31,12.54,12.54,0,0,0-4.05-9,3.43,3.43,0,0,0-.51-.45c-2.93-2.59-5.75-5.24-8.56-7.94a280.26,280.26,0,0,1-49.69-64.16A272,272,0,0,1,.11,285.76c-.11-2-.11-4.06-.11-6.09A273.89,273.89,0,0,1,28.84,157.44a283.22,283.22,0,0,1,74.3-92.38,280.63,280.63,0,0,1,44.22-29.63c3.15-1.8,6.42-3.44,9.69-5.07.9-.45,1.8-.9,2.7-1.29A285.34,285.34,0,0,1,211.57,9.86,296.64,296.64,0,0,1,338.26,4.39ZM574.72,279.67c0,2,0,4.06-.11,6.09a272,272,0,0,1-35.26,128.37,283.29,283.29,0,0,1-78.24,88.32,289.79,289.79,0,0,1-33.63,21.47q-10.65,5.82-21.91,10.7c-6.42,2.87-13,5.52-19.72,7.88-7.38,2.59-14.92,5-22.58,7a295.37,295.37,0,0,1-75.88,9.86c-5.46,0-10.82-.17-16.22-.45l18.7-16.4,16.28-14.25a258.44,258.44,0,0,0,57.12-10.47,259.19,259.19,0,0,0,64.21-29.46c5-3.16,9.91-6.48,14.65-10,.78-.56,1.57-1.13,2.3-1.75a253.86,253.86,0,0,0,58.64-62.41,243.49,243.49,0,0,0,40.34-128.37c.05-2,.05-4.06.05-6.09a243,243,0,0,0-32.84-122.23,252.13,252.13,0,0,0-53.23-64.16c-1.13-1-2.31-2-3.49-3a262.38,262.38,0,0,0-54.08-34.65,255.65,255.65,0,0,0-36.55-14.08c-3-1-6.09-1.8-9.19-2.59l9.19-8.06,2.14-1.85,15.77-13.81A278.06,278.06,0,0,1,415,29.07c.51.22,1,.45,1.47.67,3.71,1.86,7.38,3.72,11,5.69a283.79,283.79,0,0,1,74.07,57.85,277.89,277.89,0,0,1,44.33,64.16,273.89,273.89,0,0,1,28.84,122.23ZM308.49,425.41A10.51,10.51,0,1,1,298,414.9,10.51,10.51,0,0,1,308.49,425.41Zm33.37,0a10.52,10.52,0,1,1-10.52-10.51A10.52,10.52,0,0,1,341.86,425.41Zm33.36,0A10.52,10.52,0,1,1,364.7,414.9,10.52,10.52,0,0,1,375.22,425.41Z"/></g></g></svg>